<mxfile host="app.diagrams.net" modified="2024-04-23T12:03:03.421Z" agent="Mozilla/5.0 (Windows NT 10.0; Win64; x64) AppleWebKit/537.36 (KHTML, like Gecko) Chrome/124.0.0.0 Safari/537.36" etag="UQUQKcfGw7bM0D1stUDF" version="24.2.7" type="github">
  <diagram name="Page-1" id="SXXS168qOgsdlO74wbao">
    <mxGraphModel dx="886" dy="27" grid="1" gridSize="10" guides="1" tooltips="1" connect="1" arrows="1" fold="1" page="1" pageScale="1" pageWidth="827" pageHeight="1169" math="0" shadow="0">
      <root>
        <mxCell id="0" />
        <mxCell id="1" parent="0" />
        <mxCell id="IjUfGqjnft0cQAmJXYSc-8" value="" style="rounded=0;whiteSpace=wrap;html=1;" vertex="1" parent="1">
          <mxGeometry x="-671" y="510" width="350" height="60" as="geometry" />
        </mxCell>
        <mxCell id="IjUfGqjnft0cQAmJXYSc-1" value="" style="shape=image;verticalLabelPosition=bottom;labelBackgroundColor=default;verticalAlign=top;aspect=fixed;imageAspect=0;image=data:image/png,iVBORw0KGgoAAAANSUhEUgAABGgAAAH3CAYAAADngmkBAAAAAXNSR0IArs4c6QAAAARnQU1BAACxjwv8YQUAAAAJcEhZcwAADsMAAA7DAcdvqGQAAP+lSURBVHhe7J0HmBTFEoAbUUCQKEhUBCQrigEFAZ+IYkIUzKKiqJifGbM+c8KcFTNgAnNAEFQySEZAokhGBEQUjPvmr5te5vZ293Z6jov1f9/cTdie7unu6VBTXVUq5mEURVEURclTxn38pmm3zD/IRnUz9sLOpq1/tJV/zJbV882A0bPNzT/9aVb5Z3NQvp5Z1LO9abCdf5yELUsmmn6jF5mbf/VPJKFBxZrmxS4Hm07V15uBA0aaM5L9tl4rEzu2Rdb+T+NMj8FLzJCso4y565BTzU3N/YNs/GM2fDfGXDNphem/xT+VhE416psnj2hjmlf83tz97Axzs38+SPc9DzWD29f0j3JhznBT6uu1/kEmlDMDehxvTq/B/urUeVWxvll5RltTyz/MiVems8abu6asME/97p9KxXalzem7NjX9OrcytXbwzwX5dbK5dMB885R/GOTqg443D+1Tzj8K8N1QU2rUev8gkUrmy3OONp3K+odxtpgR771vDlvtHwZIGY+iKIqiKM6kGd4piqIoipJ/lDblajYzvXt0M3MOqppEgOPz+zLTf1YqicY/ZvGkT02nz9ILZ2Dxr6vNYUM+Nv0W/OafyU9+M1OHfWCaj0ovnIERPy0xLd4daj5NIiQoMvy+yPR/c4ipPToD4Qz8+48ZuGS2qf3y++apeRv9kwEq1jPtKvr7CYz4aam/l52pK5LcJ45XHkmFiavN4l/83WxUMJ0aqXBGURRFUfIaFdAoiqIoSqGitKmyT2czYM9yKbUx7p49w2zw94NsmDrUHDZ5oxnnH+fKv3+aa0ZMMwP+8o/zhX/M1OFDzdEL02gJJfLHRnPM0LlmrH9YpPh9trn77YnmvGQFlhv/bjGXjhhqLp20wj9hqWna1i3j72dn6tr1SfJ1tZmz5h9/Pxn/mLErEuPw+HWtmZpMgFaxutk3hYBIURRFURR3VECjKIqiKIWO0qZBu9bmrvL+YSIbVpuxiRoyP000l0zaaBb7hxnz75/m01y0WPKSLfNGmksWhBDOWH730unvFhn+XWEGfjDD3Bwpf/8xT00eY/otzC5gabBrVdPa38/GL0nqwB8rzZRcNKqGrFyZU+i3cr0Z7O8G6VS3TpqlXIqiKIqiuKICGkVRFEUpjGxX3xzTMNUykt/M2B+DE/YtZsSYRWbgv/5hoWWZGTB+beYaPkWcVRMnmquTLhEKyz/mmjHjzOJg+TaoaXokHcVtMosTl4MtWWsG+Lsp2bDezEmoP6vWbEoqSOtUp76/pyiKoihKXpJSQPPnn3+adevW+Ufh+eWXX8xff7npTP/9999mzZo1/lF4fvvtN7Nli9vnKuIm/D//pFMFTg359uuvuXymSsO///5rNm7c6Bw/ad+8ebN/FJ61a8MYTszOH3/8IfG72p3muV3TTn5FqXOkef36VMYTc4f66ho36R4/frx/FJ758+eb1avdjDOQ3wsWLJA0uPD777+bCRMm+EfhmTJlivO7zns2atQo/yg8PPfy5cud6ivv+Zw5c8xPP/3knwkH7czChQvNkiVL/DPhIDx5R/67QJ5P9CaOrlBfyQMXqGszZ850fl8WL15sfvjhB/8oHKT5+++/l7bGhU2bNpkxY8b4R/lDrd2rm07+fiJz1gfa6w0zzMB0KimldjA3NG9sNvU6ycQuPNXEzulsZh9Y3RydwWca2lfyffW/Dc1gwnrbyj1TCY4wgJz1G7v1bfz31jZuwfy0NlhqlatkBhze2Wy+wA9/Vnvzdt1yZj//uitLlwbssjTv7KetlbnLP5UDjCP76f+1Z2fTo9If/oUQ/DvfvP7dlpSaQrUqVDdfHt81Hk/snI7my/rlTAP/eg5+X2b6TQ70U9s1NG3FcHEiW8yUlVljIPpk+ubFKzbmrrH070YzO9sqp3/M1DXJxlKVTNsM5DOMw4jfFcagru0E8L7y7C5Q50m7a/yEjzKe2rBhg/N4iP7BtW8C+hXidukbbb7x3wXS7to+A+37jz/+6B+FZ/jw4f5eeBiLRembZs2aZX7++Wf/TDjIM8K71nfGQoR3ZcSIEc7vyqpVq8y8efP8o/AwFpw0aZLUHRcYhy1btsx5LMhYzrXcSHOU8f/06dMl/1zgPf3mm2+c52yMCXjXmLeGhbpCma9cudI/Ew7q+dSpU53bGeZM3333nX8UnmHDhvl74VmxYoW0E7nlW8qhGS87L6wrixYtcp48kPFR4iasawPPy8LkxbVjZEDAy+5aaai0VHjXho4XzrXCAxMn1waeBsq13MgvwroKBWkkaWBdBXPU1Sh1jhfONe6KFSua/fff3z8KT8OGDU2NGklH6blSrpw3GWjQwFSqVMk/E44dd9zR7Lvvvv5RePbaay9TvXp1/ygcO+20kznwwAP9o/Dw3LVr1zalSpXyz2ROmTJlTOPGjc3OO+/snwlH6dKlze67727q1avnnwkH4ck78t8F8rx166SLIzJiv/32kzxwgbrWvHlzs8MOyVzT5M5uu+1mdt11V/8oHKS5UaNGUndcqFChgmnTpo1/lE+UL5NyKcnizVv7uQ3zV5v+/n4OylY3o0/pau5sv48pX9bv9r1zzVt3Np90q29Oz0VIs91220m+u7Yz1Ffbxk1dvNZMlb2c1Kpc34w942hzeqPqppxNU/l6pvvRXc3XHXZObTQ5F+gfZs+e7R+FhwGwi6Bhy6xFpl+KrjzrWTubTrUq+Gc8ytYxnY7qar5MY3voqYXzA8uQypl96wXCB7CGghkLrV37g5mzJhOB6p9mxLKgsH+ZGZpMxlCtptk3h7ennDAWom90gTEB4V3HI4BQzvXjA/05YzHXcSyTRiZurhDWdRxKfXfNd2AsF2UMjXCIsbAL5DvP7jrZ3mOPPUzdunX9o/B07NjR3wsPY7EofVOzZs1M1apV/TPhoE8jfNmyGbyYSWAsRHhX2rdvb7bffnv/KBy77LKL9Muu8Oz77LOP9DMuMA6rU6eO81iQsVy1atX8M+EgzYynXGnZsqXknwvly5c3Bx10kNNzA2MC3jXGB2Fh/EeZ16yZoefFBKjnjIFd4gbGMk2bNvWPwnPIIYf4e+GpVauWtBO5pT3lVQbwPLwrDP4rV67sH4WDQXCUyUOTJk2cK6ydsLoO4HlJ99xzT+eGgkpHeNLhAs9NJ+HKoYce6tzA08CR9y4vO/nFpM21Y2WiSkOFsMMF6hz57gqdg2vcvKSuHRuQd66NFGVFeNcGmnCuE20gbJS0uwoJIEq+AWUWNd/ZXLD57lpupDtqublCmqPWd9d8g6jlFuXZnai2k/GdXOdg6h9bZ/9zVqcSIJQ2dx3U3hxcpYzkW446U7OteWrv5JN8C2EIGyXfsso8naHacqZf57amQZLsJe4KLTuZpxq4lTvtRJcuXfyj8DDpcxmAz1m+3nviZJQ21xzQJoWb9NKmQfv909geWmumBGQWVXavbrr7+0Gmrt8oghwmXnVr/2Om5jAuU8H0ruLvBhi4cqWJf2r4da35O8lHvu516pkkQXPAABhBtguUOeNA17EYMKZwHQsyJiC86zi2SpUqkT4gMGlznfQx8dp77739o/AweWDilKOtyADGj0xYXfON8qbcXfsI6g2bK1HHFFHijtI3ES5Kvxo1PPnmUl+AuKPkG/FGGQ8Rt2u+A+Fd47ZpdyVKnSHugqzvUfOdZ3fN97yo765kWt/dc0ZRFEVRlG3Luk0mle5HrdK2C0/lCtlju6qmU9P0Av8qLeqYS/z9bcvPZnGqFcAVa5pOaRV0vAn7HtWTG8UtlHhlkspr0w7VTac90g3Q6plODVKV2RazOLh6pUYdc3Syn25Yv9VQ8Ip1ZkSioKVCdXNJoySCuXXrzRx/N7mB4DLm6N3dvnoqiqIoipI7KqBRFEVRlMLK76m9HbWraNXh/zEm1XLmChVSaGoEqFjdtHZT2gyHl8aUizYqV87dK1C9qint8RQ+/jFbUq3SKFfO1PZ3U9GgeirNEa8+ZBNy1TMtkq0S/XeTmeOr76xattaMyNqN07qWV+a1k+TnX79sDbcuiYHgHaqafd1WZiqKoiiKkgEqoFEURVGUQsqG5etzTK4tzavamflvZqWbzWafcmbH/Fi59dvmnG6cw1C2jHGz0FAQRC2TTCltWtdLZkPMGgreYmb7BoOD9KjX0Jh61U2nHKPALWbsjxgi/scs/ilnuFo1axYhLSZFURRFKXqogEZRFEVRCiXLzODvU9mWqWDa7WaXyVQytVNpwKTTWomz3ix2d7aTORV3TK05kokjiTTLvQofacokA7b8kbl0p1yjmkmXqE3dgCrMUjM1h+39CqZ1PerO7km9QA1ejaOBZWZ2EsckZyDYURRFURRlm6ECGkVRFEUpdPxjFo/+1tycyolMlZqmXdwueRlTJZUGzG9rkxiITYAlMKmWSOUpO5hyqdK5ZrWZmksatvy41gz09ws/lU2tVIZ+f11vZqd1TvRPGqPP5UyDxCVNFesF6sJWRqxZazasXmvGJnqSqljd7Cu/L2daJJEirVq7ziz+Y72Zk0OBppzZt25+rIVTFKW48uijj5o+ffqYu+66y9nb1/r1682tt94q93nhhRf8s4pSfFABjaIoiqIUKv4xG6YNN2fM2pLS/sxNLVoFPOlUNc13SeVV4Dfz0Li5Wz3z5OA3M2LSspTLqPKWXU3rVI5p/lptHpqY3OeR8O8SM2CGm+vfgqGcaVA1VZlsNE9NSvOsG6aZ/ktSeLvaobJpnkPrpaZpWzdJXBvWm7E/rjVD/ENL612qx+391GKZk78fZ8taM3V2kqV15aon1bhRFCVv+ffff8VdOS7+cXsei2WiYug1o3/9JWHY1q3LoTpXKPjss8/M888/b4YMGSJu1V347bffzNtvvy33+fLLL/2zilJ8UAGNoiiKohQK/jRbVs01/Qd/YJqPX2/G+WdzUL6e6b1ndk2GBvWqprQNMm7JNNP7q0U5hTT/bjRThw01Z6SRFYRns1mZUmOnnNm3TmqX3gOnfWNunrbWPwrw1zIz5L2J5rxU2kSFlAaNdzFH+/uJDJk9xvRbkERL5te5pt9H881TKbSJWterl7ScG+yapPz/3WT6z8sZh9ifsdSpltQOTf+Z681U/8jSum5N08DfVxRl2/Hrr7+aY445RlzV9+zZ0/z5Z2ZLHmfNmiVh2M4880z/rKIoRQ0V0CiKoihKvrLRDPhspOlnt/c+Moe9MsS0e36I2fH9aea8n1J7bsIo7EMHt83pmalhPXNGGkO/A+dONC1e+9T0Gz3NjJg1wwz5eqg5o/+nZt+F6eJKTbmyqdxE/2Yueed9c03g+T5d7l/yqNK0punt7+fkH3P3+OGmxaChpv+EGV46p5mBn31qjnl5tOnxUwqNksJM3Zam91Y1p+z8+6e5ZvhH5ph3vzFDvPLIelavHgyaZq5JaQ+ojLlkz8b+fgINapoeSQQtQ3K4Nbf2Z3y2a5hUK+bT33NOCLMJdhRF2WagMYOWyMaNG83vv2cumf77778ljN0URSmaqIBGURRFUfKVP81TS1aba+y2+jczYsufZlwGdmBO3/Ngc3WjJMKR7Rqb3q0qpHVVvfj3jeaaWXPNYaNnmx5z1puBEWQeVZK5aPZZ9c8W0y/wfFOD84Qq+5lLkqU/wJxf1pvzps720jnXnLFko/k0X+zjbAuqmu4H1DRt/aNkfLp2henhlUfWs3r1IM2ztq3fwpxR1z9IJIWgJQdx+zOWcqZFjUzsylQybRumLzdFURRFUaKjAhpFURRFKQL03rO9GdC+jn+Ukyr77Wf6VfYPtjX1djenpzKCm5bSpvXBLc1dZf3D4k6jjmbAnuXSCs4yoVbl+mZAl2YmtSilnNm3XurlY5ag/RlLrdqVc3edXa2m2beklJmiKAUGy7sGDBgg23fffeefVZSShQpoFEVRFKUws10582Sno82L7ev5J1KwXR1zerdWoYUfDWrVM08m8QKUnnqm98HptUNSUr6Fueno+ub0kCOQ7s3rmZv8/aJDadOg/eHm00ZlnIU0tSrUNJ92S7KsLYEqu1U33f39VCRdptSgZkpbOZbudeoFjFIriqJsGzBwjN0dtg8//NA/qyglCxXQKIqiKEphZLsy5urm+5iV5xxvLmlSyT+ZCwg/TmljXsxwNt22RmPz5XGNTVX/OBSNDjUjOtcx3V1GEjXbmgEnNjM3Zei1+ehG+5kBh1QzO/rHRYsKpvXh3cycDjVD51X3+q3MnDMONa0z0VaqWd20S2OHKIf9Gct2tU27VN61hDLm6N1r+vuKoiiKomxLVECjKAXMP//8k7GF/mQQlnu4gCE63DK6hscV5B9//OEfhSfqs2/evNnfCw/G9DJ1XZmIzTee3xXi5x6ukG+u8RN3lHx3dY0JpJm4XfOetLO5YMvNNTxEybfcqFW6tOlUoZK5aY/65sujO5vN53U3Dx3SzNTyJt2h8q18Q9P71O5mZfs65pLypZNqbjQoX9W8+J9Dzdge++WqmQGp2olye3Q0g8/pYmYfWM9cXaWMaZviXknrTLV9zF1nHW1mt65ueqcQLDSvXNN8eHQX894h9dMs7ykKlDZVWh7q51XqcoFapcuYS/ZoZhadcZIZfFQLUyXjkVpD0y6dHCWH/RlLVdO8dprc3a6SaZF6ZZ2iFBqi9qthDPImQvvoOpYC2vcoY7EofVNB5htpjzKOpE8sqDEFpOobMyXKeIp0Ryn3qHHz7C75bsdirvlG+ChpJ94o+RZl7pHxWM77QVK8B4+tWbPGPwrPDz/8IPdwwXvw2LJly/yj8KxduzbmNRb+UTi8Chf7+eefI6WdfPMK3z8TDq/CRgr/22+/yfO78uOPP0oaXPj1118lbq/y+WfCsX79+timTZv8o3B4lT22atWqmNfI+2fCQbwrV670j8JDfSUNLmzYsCG2YMEC/yg8S5YscS5z6jnvKmXnAuG/++47/yg88+bNi/3000/+UTh4VydPnuwfhWf58uXObRxlTb5Tdi7wjlDfVqxY4Z8JB89O3vG+u7Bu3brY999/7x+FZ/r06c71nbgXLVrk3M6QZ67vKnHyrtHWuED7MmvWLP8oPHPnznWOm7KmzJz6hi2/xObMnx4bNnZybOEvP8fWb/nbv5AZlDV9g2vayfdp06ZJvU3Lb+ti63/6ITZ2zg+xlRvXxTb7VYx3jffVFeKPUt/pW1zbSOKmfU7aN/25Kbbee86VS+bEvlywVPYTy4YxBWMS1zEB6XYtNyDvXfnll19kc4X22bWdAfLNdSxIvLRVrvFT7tQbV2gjXcdD1LUo7wvPTXvjMpbjHSd8lHxnTJBrW5GCxYsXO+c7ZTZu3Dj/KDxR+3TGYnZMwTvbokULZnCxjh075jon4T1fuHChpJ8wbO3bt/ev5g5pjzLvIl7yLxOOOOIISV/r1q2lrFevXi313cLYxj7DPffc45/NztKlS2NNmzaV3/To0UOe3bWNpMyoMy71nfpKnXNtYyl3xlOu8Nyu49iocVNu5J1LvlNXKEPaaBdo42bPnu1c5rxrxO/KpEmT/L3wUF7En1vaU36X8R4+knSK8F7h+0fh8Ropfy88SHJdpblehkWSxCIZY9tuOzflJMLiGs+rvP6ZcJB2Nle8Rj5S2l3TDaTbtc5QbtQ50uCKa50BwhK/CxUqVDB16rh/nqxZs6apVCnD5Q8J7LDDDhJ+xx3dFg4Qfvfdd/ePwlOvXj1TpYqbZQPqaZMmTfyj8Oy8886mcmU3i6qlS5eWfKPsXKlWrZqkwQWenbwrV85Np6BixYpm11139Y/C06hRI8kDF4i7du3azuHJM/LOBeKsW7eupMGF7bffPlJ932233cxOO+3kH4WDsqbMndrnspVMg12bmo777WkaVqpmqqR0kZ0c8m2XXXZxTjvhqTO5pr18VVOlen3Ttll9U6tiVVPO16rhXatevXrWgQP0C1HGM/RLUfpV+oekfdsOFUwV7zlr7dbMdGrktYXefmLZ0Kd6E3XnL41R+lWI4qqXeF3znefFzbDrcwPP7jomYQxIeNf4GQ9E+cpK+CjPHqXcSDd5X6pUKf9M5pBv5Llr2nlXid+1f6hVq1ak/qFFixb+UXii9umkPdmYgnfIm9CZxYsXp9xWrVoldYb/mUA5eRNFM3LkSHPfffeZhx9+2Lzwwgvm/fffl/ulmwNxbdGiRWIf5tZbbzXXX3+9+frrr823334bbyenTp0q25IlS+Q4HYwBGRN4k3UzZ84cs3DhQv+KMT/99JOcY5s/f75/NjuUG2PodevWma+++srcf//9kqYnnnjCzJw5M9c2gDKrWtVpka+MCSg3176RcqdvdIV8izKGjhI38ZJ3LmMSO6ZwHYsx96hfv75TGwWMKYjflaZNm/p74WHeQfy5pb2U96K5SSIURVEURVEURVGUPIOP1AcffLCZPXu2fEBDAJHJZBQhzdKlS2W/ffv2ZtSoUbKfyIQJE8wVV1whQpVEAe4ee+xhrrzySnPxxRf7Z7Lz4osvilAnKEgBJp7du3c3d9xxh9l7773l3CmnnGKefvpp2bd06dLFfPHFF6Z169by3wrfX3nlFXPzzTdLelavXi3n+PhoJ/EIIyZNmiT7y5YtM507dzbff/+9xHHbbbdJekePHp3teRCeIKy57LLLnAQJilJQaG1VFEVRFEVRFEUpZKBRhDBkwYIFuW5WOJMKvsl/9NFH5rDDDjPjx48XrZ9OnTqZc889VwQnaEVwn0suucS89NJL2TSh2O/fv785//zzJT1lypQRDYwjjjjCdOjQQcK+/vrrpnfv3qLNwob2XxgQrgTjRKOKc2ypNOTRsjn00EPNuHHjRKuiZcuWoiGMlgYaRf369ctIk0dRChOqQaMoiqIoiqIoilIICGrQoDly9NFHZ7Tsi2VLLFOCZBo0LBM68sgjZYnSfvvtJwKXPffcU+7NUqCJEyeac845R37XsGFDM3z4cNOgQQMJi9YKafrxxx9lSdCTTz5pDj/8cFOjRg0RnnCdc48//nh8yf+ZZ55pXnvtNdm3pNKgYYnT8uXL5f5du3aVc5dffrkIfACBULNmzWQ/qEHD8l+WGt19993m1FNPFUER1wn7ySefyO/5Tx4qSlFBNWgURVEURVEURVEKGY0bNzZPPfWUee6553LdbrzxRj9UcgYOHCjCGStgYSmSFfwg5Nhnn31Mnz59ZDkQv/vggw/kGrzzzjsiPOH3N910kzn99NNFOAP8Hhtr99xzj2jUuIA9k1atWmWz78ESJc6xWeFMItjoue6660Qgg10RBDkIl1huZZ/NLplSlKKCCmgURVEURVEURVGKMR9//LH8t8IQC8uaMBR83HHHiSYKGjEYMg1q7diw2MRhiVQyEPJg7yU/YZkWNnMSwXZNMP2KUpRQAY2iKIqiKIqiKEoxBqPAgK0WPOGw9IdlS2jpXHvtteabb74Rw7xo12BnJihsYTkRWA2VVFitmvwCrR9XL0qKUlhRAY2iKIqiKIqiKEoxxrognzJlitigOfbYY8WF9SGHHGLuvfdecbuN/RmMBCdz+Q1o1+CGvbCQ3wIhRckPVECjKIqiKIqiKIpSjGnevLn8X79+vVmxYoW5/fbbRViDsd6+ffuKYWE0a5KBQAfwKmXdXSeDeymKEg0V0CiKoiiKoiiKohRjMJyLQV+2bt26mauvvtrsvvvusmzJgtvqZC6t8ayETRc8ND3xxBPm119/9a9sBVs2b731ln+kKIorKqBRFEVRFEVRFEUpxiCg2WOPPUQAg/trhC645ca99fTp002vXr3EC1Myr0csh7KelEaMGGFatmwp9/jnn3/M77//bl566SUJO3XqVPmNoijuqIBGURRFURRFURSlGIO2DIIUhDR///23+eqrr8wJJ5xg6tWrJ8Z2X331VTNt2jTz6KOP+iG2gsvrO+64w+y6664i4Fm6dKk5++yzxXMT9mp69+4tgporrrjCD6EoiisqoFEURVEURVEURSkEsASpevXqpnbt2uISO1PKlSsnYdhwM50MvDZ9/vnn5qqrrhJX2kHwhnTnnXeaPn36+Geyc/zxx5vhw4ebc845xz+TBXZrTj31VDN06FBz3nnnxdOQzNAwhoq5xvPxnIkg8LHhU3ln4jeknd9UrVrVP5sd4rb3SWVXR1EKK6ViHv6+oiiKoiiKoiiKUsxheRLus9etWycCj0aNGiUVmiRj06ZNYnMGj0646d5ll138K4qiREU1aBSlgKGDpKNzBYv6f/75p3GRtaKmisG3ZAbhMoFwqLS6QljUbF0g7mRG6jLF5psL5DXhXdMOxE3eu0D81BlX+fpff/0Vqc6R7651hvpO3rmmnXyLUm7kOWlwJUq+bdy4UfLeBdIcxbUpz83mku+E2bJlS6R8j5JvpNs1bkVRSg60Fa5tLEQZU0Rpp+xYynVMQTjCh23fMfrbokUL06ZNG1nmlKlwBtBuYVkUGjlly5Z1HhNQXuSdK7ZvdOnbgLjZXPvGKHUuat/IWCpKfY8SN2OCKPlG+Kj5FqXOEb8rUdoJ3lXizy3fUr6JVPZVq1b5R+HBfZtrwdPALVmyxD8KD+mOEveaNWucGwvyjWd3qbBAoWGsy7WR3rBhg6TflXnz5jnHTZ4Tt8uz85JhlIwJjAukGcvzruVGx0a5ubJo0SLnuGlgWcvrytq1a50nbuQb7hZdGyrqa5R8o8xd46ZT5l1xhS9GrvWNuKlvru0M7wgNvGsjz/tCO+c6GKTORck72mfXuHlPyDtXIQlt3C+//OIfhYM4f/75Z+d3lfoetV8k713gXaXMXAck1Hee3bV9pp1wbWcIv3LlSv8oPKSd+F0h72ijXaFfi9I30c651jnaGMJHKXc2V+bOnev8rvKeJjM2mgk8L/XdtZ0B4iYNLnWed512yvV9pV9btmyZfxQenr2gxtA8N/U9Sr65frgh3xgPudZ32rgo/UOUsRjxupYZzxsl3+zchfbGBfpV13cV5s+f71RfgH4lShvFs0fpG+lb2Fz7RvLOtZ0gfJR2gjJzHUMTd5R+OcpYjLh5V137VdoZ8s21zImXuZMrixcv9vfCw7ifvMutvqUU0ISRoiajVKlSsrmARNf1RQfCcg8XSDNrG13TTrioeQeu94iS70C8rnFHyXfiJKxr2ok7ynNT5lGI8uysGa5bt65/FB7W8fIlw+X5WZfL+t2gi8UwEB7Dca6gEsvzu0CZ8cXHFdZ1p1qjnRvUV/I92frqTCHuSpUq+UfhIP4o66rLly9v6tSp4x+FByOBrnFT11KtPc8E8sw133hHq1SpIl/7XLD57gr1lbx3gfwmbtd2jveczSU8Yci3VPYAcoN8i1LfSHflypX9o/AQf5QxhWtdBeKNEp68J7xruTOAjdK/RYmbZ3eN2z531HKLmveuz27T70qUsK5jkSDE7/LsUfIMCBtlLEhb4do/EGeUMQVtlGsbyTMzHtpxxx39M+GgXyW8a9mT9ho1avhH4WnYsKFz3IyjKDdXeHb6Rtd3hmenf3Opc8RJWNd+nfBRxv9R6gzPmxf9smu+YYvI9X2hXyHtrmXO+Jv4Xalfv76/Fx7qCvHnlm9pbdDQsbs+fJSwEDVuHtyl0gSzwyU8cI8oYdlcn92m3zX+KPmeF3ET1iW8jRsK4tmjhFUURVG2LXwdd51AFGTfFLVfJbxrWCjoMUGUfjVK/HlRbmxRxhTEWxB5R7pd44363BC13BVFUYo6aiRYURRFURRFURRFURSlgFEBjaIoiqIoiqIoipLnYCfmhRdeEDs5e+65p+nevbuzRqNS/JkyZYr54IMPZP+EE04QY9R5xbPPPiu2dzBzcPnll/tnCx8qoFEURVEURVEURSkEsCQTF9bJjItjswXbI6429AoCjCe3a9fOzJw505xyyinm9ddfd7Zjp+QEY+7YssnLOvHNN9+Yjh07+kf5S//+/c15550n+6+++qo566yzZD8v2Hfffc3UqVNN06ZNJd8KK7rIU1EURVEURVEUpRCAQOP00083Bx10UI5t7733lsl4hw4dzFdffeWHUEoys2fPNpdccol/FJ0PP/zQPPPMM/6RUhCogEZRFEVRFEVRFKUQwOIG3Cfjvjlxwy01rnpHjx5tDj30UHPmmWeahQsX+iGVkso777xjBgwY4B+5g7Dn6quvFi0upeBQAY2iKIqiKIqiKEoho3r16ub44483PXr0kO3oo482NWvW9K8amZRff/31/pFSUkGgd9NNN4nwLgp33nmnCvwKASqgURRFURRFURRFKWS0aNHCvPnmm+bdd9+V7ZNPPjGrVq0SOy4sdULbhvPY6iiqfP755+aAAw4wp512mlm/fr1/Njrk1eDBg2VLxbx588wRRxwh2kjTp0/3zxZNlixZIvZaXIQ0aMwMGjRI6pqapy14VECjKIqiKIqiKIpSRMBGzXXXXecfGfPwww+Lt6SiBpofd999t/n2229FOPD+++/7V6KDodkTTzxRtlQ88sgjZtiwYWLPBwFFUQf7Mc8991xoIQtL5vr06eMfKQWNCmgURVEURVEURVGKCNttt505//zzTdmyZeV42bJleap9kl+UK1dO3G7vscceplmzZqZTp07+lfzhyCOPNPXr15ctv+PeFvz777+mX79+oZYpYdfojjvuiLw8Ssk7VECjKIqiKIqiKIpShNhxxx3FRg2gMVEUNWjgsssuEy0WNgQl+UnXrl3jcR922GH+2aINS+BOPfXUjAUu5P+oUaP8I6UwoAIaRVEURVEURVGUIsQff/xhNmzYIPulSpUy22+/vewXNUj37rvvburVq+efyT/QRGrcuLFspUuX9s8WXcqXLy//J0+eLEvH0nljQqj39ttvm5dfftn89ddfpl27dv4VpaAp5RWOWgJSFEVRFEVRFEUpYBC6HHzwweLyuGPHjuaLL76IL2UK8sQTT5jLL79c9vfdd18zceLEuJABl9wYjYUGDRpIeJa/TJkyReyNnHzyyaZOnTpyPciYMWPMyJEjJQ0sP2rYsKF4kapWrZr/i+RgS+a9994zs2bNEsFRpUqVzH/+8x/Tpk0b8/fff8vkf+bMmeaUU04RA8c77LCDH9KY1atXx5dnoUGDZlAyuA+GfMkX4sBIMs8d9GoFP//8s/zHwPKaNWtkf+3atfIfKlasaMqUKSP7mzZtkuVhwH2qVq0q+4mgjYIxY+LnWRGENG3a1Bx++OFml1128X+VHcIsX75c9nfbbTcJ8/vvv5uPPvpIygF43p49e0p+uTJkyBDx8AXYkfnyyy/NggUL5Fk++OAD06FDB7mWyMqVK02XLl2kXHgWyt3WiZNOOkmEN6lgWdTXX38ttnuoV9SVJk2ayDKxTARtixYtknpNOgEBHR7KqG/9+/cX+0GA8WsMHycDodK4ceNE+4f6g5CyVatWcp+dd97Z/1V2qC9Tp06V5507d65/thCCgEZRlILD63BiXgfhH4XHa+xjXkflH4Xjn3/+iXmNbOzPP//0z4SD8F4H5B+Fh7i9BtY/CkfUuL0O1vm5vc5IwlN2LhCeMnMtN8JT7uSBC6TbG7z5R+HZuHGjc9zkOfXdNTz57pp24iTfXMuN8FHe1ajvGuFdId+ob9SdsBA3eR6lvnqDfae4gbgpN0VRlHTQTtDWuUA798svv/hH4bFtrAu0jbRzdjzkTTZjLVq04AN6rGPHjjmeid9NmzYt5k1m5Tfbbbdd7K233srWxg4YMECusU2fPl36Lm/yHtt+++1jNWrUkPAW7jd58uSYN7mOhwlu1atXj3mT6aR9J+eIq0qVKknDdunSJfbjjz/G9txzTzk+5ZRTsvWD7J9wwgnx3y9btsy/shX7vI0bN47/Lrh5k/nYmjVr5Lfr1q2LlS5dOunv2MqWLRv79NNP5bfw+OOPx68NHDjQP7sVnu/rr7+O7brrrtnuY7eKFSvGPvnkk6Rl/84778R/t2jRotiwYcNiO++8c7bwbPXr14/Nnj3bD5U51HfyZvDgwfF73XXXXbFXX31Vypnj2rVrx9auXeuH2Ap16phjjpHfkF9PP/20nLf3Oemkk+Q4EerY8OHDY5UqVYr/NrjVrFlT8jTVu8A45uabb47tuOOOScNz7cknn4wf8yyJUCbff/997LDDDssWNrgNGTIk6ZijdevWcp265ArvpyvUd9713MZDKZc4eYFFounKDz/8IPdwwStUCe8Ka+8yXXeXiJdx8tyuafdelkj55lU6kbZ6L5x/Jhxe5yLP74qVZLqAFPqnn35ycs9GGCTe3MMF8gspOeXnAvFaKbcL1FevsfOPwkE4pNiu8NzehNkp38k36iv11gXCex2vfxQe4o5S5kuXLvWPwkN9I99c8AZyIq13bSeAuK1qcli8ht2sWLHCuZ2gztmvSi7QTpAGF6hrpN01vDf4cs433hHaKNdyo9ztlzYXeM+9wYl/FA7KOmq+0T+4QJzkm2u/Sr7RRrqmnXfVfhF1gXij9G20U655R59OeMY1LlBfCE8eukA7xebK/Pnz/b3w8J5Sb1zgXeV9ce3TgTYuSv9C2l37dcqb99UVxiOu/TJxR+mXee6o9d21naO8o+QbWhK0dS5Q56K0E1H6dN7vVH0TZXnvvfcab+It22233WbOOecc0dxACwHat29v9tprL8n/ZKDVgicjvPvwG7RsgloqaDKccMIJZsSIEaLJgcbMxRdfLFo2HJOvXE/mrvqhhx4SY8U8O/c96KCDTO/evUUDgjQNHTrU7L///inH2NS13N4z4uAZbXuElgVuua2mxsCBA0Xzx4V0bQTtAFpKaGQw3kTrB40m7LvwH40N+sVjjjnG3HnnnWnbKzRZKDf6sv32288ccsghZqeddpJraDphpDcsqfpltJTw8gW0o1deeWW231HfnnzySXFDDjzPueeeK/u5MWDAALk39Z2laWh6ER7NGZ6H9//aa68111xzjR9iK/TF1AuWXlHX0brp1q2bufDCC82ZZ54p5XnfffeZBx54wA+RHLRm0PxBU4g4yX80h6jjVapUkd9ccMEFovGUCtc+FaL0i+RbRm2U1yAlBamcN9H3j8KzePFi5y9e3osqkjFXkL56L7x/FA4kfl4j4vylknBR8o34vYGs81dWpHpIql3xKp2/Fx6v0okE23sB/TOZQxivoZF7uEB+eY2C89cLr4FOKrXPlHnz5kX6qu8aFgjrdSL+UTjId/KMNLhA+ChpJ27Xug5R8801bptv3kDHPxMe4natr8RPnXUtN9IdJe9c31OwcfMMLpBvBVlu5Lsr9ImucVPWrv0S8NxR2gnKLEp41/EARHlXgLyL0rd5A1zRAHKBPKNvcX1+b1AtYxLXesOXU/plV+jbXGE84ho3dcabqDtrQwBjsShjCtIeZRxLubniTQad33fiXrBggX8UHvIdLQQXyDfCU29diJpvtBOu/QO4pht416P06Ty7fc95d6wGTW5brVq1YlOnTpU2OjgmCGrQ7LLLLrFSpUrFWrVqFRs1apT/iyxoI+zv0MQZO3asfyULfm+1Y9AiIa2WGTNmxLwJslzj/v369cvWT1AW999/v1yzcSRq0PD7Hj16xK8njsUXLlwYv4b2yZtvvulfyaov3mRetIyS5T15Y8OmIp0GzciRI2PlypWTa2jKjB8/3r+SBXNdqxFToUKF2Lhx4/wrWQQ1aNiqVauWrU2dMmWKaDPZ67w7YSAfee5EDRqL1RbZYYcdYh9//LF/Nqtdp05w7aCDDvLPZmHvk0yDBk0iex0NnbfffjtbneP569SpE/9NovbLiy++GL/WtGnT2Ny5c/0rWTCPO/zww7PVl8R7UP9s2uvVqxebOHGifyULtJSC4ZlbBrF50qRJE/9MeKKMA207EXyPkpG6xhYwrhMP4KFze/B0RAmbF0R5dijo9JdEopaZoiiKUjwpyDFJ1LiVoklB1hmtb9HJTUCDUISJ5o033ijCvGQEBTRM0P/73//mEGJQVkzo+Q1Lfz7//HP/ylaYUBLW3gshjOV///tffDJ8yy23+GdzgpDGLrlJFNAAwgB7/6CABqHTHnvsEb+WuIwrNzIR0LC0x/4mUUDTvXt3OY/w5YMPPvDPZod8Ju/43fHHH++fzSIooOH5uX8w/Qjk2rdvH/9NWAGNJZWA5ssvv4wvRapbt64IRBAuHHjggXKO5/roo4/8X2dh75MooKHMevbsKddYnvTyyy/7V7IzYsSIWJkyZeR3CAStMANheXAZHEvmksHHkOBSu0QBDXXOXgsKnSyJ9fXOO+/MludWQIOAqDBTaL04YVXbFa+xkM2VKGHzgijPDgWd/pJI1DJTFEVRiicFOSaJGrdSNCnIOqP1LW/BqOmkSZPEOC0byyuWL18uS3pY8pSJQVaWGLE0yhrGtWzZskUMw0Lbtm1l2Y3Fm+iad999V1xPszTKwnIiC4Zuvbmk2XXXXeNGXZNx0UUXiQHZsLA01i7j6ty5sxiuzc/6NXz4cPmPkeVDDz1U9hNhOZg1LIzx31TL+xo1aiRLxoLpZ0lY5cqV/aO8ByPNuNAG6gxLrFh+NmHCBDl30003yfKtTGCpLEvlAOPLqQz3Eqe9J8udbPmxVM8uAWQZHOWZDPKDfErGpk2bxMA0WGPAQViid8QRR2SrrxgC/jPCUtmCQmeViqIoiqIoiqIohQxsbGDLhQkp2x577CF2YbAhk6mwAjshybwT/f3333H7XnjvwdYMdjuYuCNQwJYJ7pqx93L11VebsWPHmm+//VZ+D7/7dpKqV68ed++cDNKJMCIsTOoRAAE2aPJTOLNixYq4nULyBs9PyeC5W7ZsKfv/+LaEkoGgyyUPosDHY4R4CJHIOwQzCN0AQcYNN9yQ8QdmhBzWjg31MVU44mnWrJnsB8MgILIgxElXlti2SQb3+sO354bQDIEPQjSEUByTx9RXhJrYwMHL1EsvvZTUA1phRwU0iqIoiqIoiqIoxRA0XJLBJNlOtDHmixYN7prvuece0VZgksuk/uOPPxbDrVxPBto2/zoagU9HUAgQdMudH1SoUMHfM7lO8INpQ+iVDFyCFxT/+9//TO3ataWMECIhUMOosSupnjEdwTxE+BWV8ePHm3322UeMV2PwmLpy3XXXiQAR48fUVww5J2qNFRVUQKMoiqIoiqIoilIMSaWtgKbCLrvsIvto0iBo6N69u3nnnXfE+8/9998v2iFo7CTTmLDLq9COWJbGw+HixYvNwoUL/aPMQZBg087SlvxcqsJSm5o1a8r+999/n9LzJc9utYrQUkLDqbCB5tWDDz4oXpMQlKA506ZNG/9qZiCwsvnBUjuEcslg2RyaK0B8O++8s+zvtttu8h/Q4knlKQ4B0rRp0/yj7JC/VlOL5VOAN6f3339fNGeor40bNxZPTuk0dIoCKqBRFEVRFEVRFEUpQTBZb9eunX9kRLjw8ssvi7viTJaFsOwIIQ/2SS699NKkLv2ZiOPy2C6HCgO2TqztGmyJvPHGG7KfX1hbKAiY3nrrLdlPBOGAta3Sq1cv+V8YYbkaS4FwiU1ZhQWBFYIe+O6778zNN98s+4m8+uqrcYEVwhJcokP9+vVN69atZZ+6gMAIYUwiU6dOTerOHRD48BwW6gfx4arbutcuLqiARlEURVEURVEUpQSBlgFCCKsZMWzYMHPmmWfKBButkZkzZ5rXXntNbIZYjYUgxx57bHwCPm7cOHPkkUeazz77TIQpCxYsMN98841MqFmOkspmSTpYnvLoo4/G7b9ceeWVspxl9uzZZsmSJWIwedCgQTLZT6XREYU+ffrI8jDuzfKZu+++W4QTxD1nzhxJC7Z5WPKDhsjll1/uhyx8YP/mlltuMY8//rjTsh/KD2PPtWrVkqVS5PlVV10ldcSWBfe+9tprJb/QnCG/7PIvwr/wwguijQWPPPKIueKKK8TQNAIwyhQtqaOOOippXbP07dtX7CMBRoEvvPBCqa/UOdLyzDPPiM0g0lOkEV9OiqIoiqIoiqIoSoESdLPdsWPH2JYtW/wrmRN0s+1NnP2zyZk6dWo2t964Q951111jNWrUiJ878cQTxYVxIhMmTMj2u7Jly4pL5/r168fKlSsn50477bRYw4YNZT+Mm20LrrC5r/1N7dq1Y02aNInttttu4tIZt+PJXC5HdbONG+z33nsvVq1aNbleqlQpuSdx16lTJ+5ivHz58rGhQ4fG/vnnHz9kFkE323fffbd/NjvHHHNM/Dd57WbbBXufRDfblnHjxsUaNWoU/90uu+wSL4vSpUvLuZ133jk2ZMgQP8RWcHf9yCOPxF2us+EGnPuRr4SvXLlyrFu3bvHriW62Yfjw4bGaNWvGf0P5U+dIy3bbbSfn+vTpk7S+qpttRVEURVEURVEUJWPQNsA2DJoA1oZHWLDVQXi2oMHbZGBslaU6aMRgTBaNkHXr1ok9EY45f+uttyb1roMtE2yO8J808xuW/OABCc86r7zyimhO7L777pKWZN6kqlWrFk9rMk9HaG6QvgMPPNDUqFFD7o3tF5ZPEee5556b1KYK2h72vqnAS5b9DUtogpAWPCB9+eWX4mab+2E8mbjxKETcxxxzjNhMwStSopYQnrbsvVN5gaJ87W8Sw2cK6c4tnkyx90lWToCLbMoCN9nUDdyKkx8sb8NmUIcOHcwXX3whxnsTQWMLrRm0XKgPLJtimRP2fdDKoXxHjRolWl02Hcm8g+GtCW0Z4iAN3Jc6R31FG4w0nn322Unrq32v+F+YKYWUxt9XFEVRFEVRFEVRCggmq0uXLpWlInaSzyQ0DEycMfQLTJwztdHB0ibcWzNxZnkKS3fYcrNJg10RDAHbOBEUYIOEuHkejAhj5BdhEYKO4POwpMW6Y8ZWSSqPTZs3b5alLHYJDJN30sZkPxksnbF2TlIZ7yVeez8m96kEHEz+Wcpj84b84PdNmzZN6T4bYc6qVatkH0FMMqEH1/kdpHv2dATLOlU8mcLSNEBwRTmlY968eZLHiBJYNoXQg/zI5BlwR05ZknZ+j+CNsOQrgjfrrpw0kJZkIEikzlG3eFcIi7csa7coGXiQoq4SJ/ldWFEBjaIoiqIoiqIoiqKUQBAHoIXy7LPPihYMLtVTCZ6UbY8ucVIURVEURVEURVGUEggGnffaay9z4403yhKip556apsYXlYyQzVoFEVRFEVRFEVRFKWEwRIv7BDZ5VjAEiA8eOGWW8l/tpmAhtuGXS8ZJEp4+0gu4QnL5mqoCaI+exSipp91ogX17AWZb1GJknbWsrKOMnF97x9//CGGx1gvycY6TconEXvOpdxsfSHtLuknLOlPZogrGaxPxWUhLvJY+8lzE9ZVjZI1wYlG3TKFuCHTtAchzwlPul3THiV+YC03HahLuRG3XUPtAvlOWJe4yTvizmSNcjKi5Bv1lS9ChHV9X3gvXescYXlu17gpc9Z5u+S7/RLGs4cNT9zkO+kuiHeVtJNm13cFeAaXfCtoSDeba79MWHB99oIcE0Ql6rMXdNqjxF1QaSdetoKqr1H7VWxTJDNKmglR46ado311yTvbr7q072D7B9d+Gdsw2MpxgXRT7q75xrOTftfxTNQxBemnzFzrfJS+kTEB8brmHXFPmDDBnHbaaXEbNkHI04ceeshccMEFOVxzk2/UNeIPW+fItyhjCsJHGQ8RN/dwre9R5x62vqdNu/ejpHgvW+znn3/2j8KzevVqJ7dw4GV6bPny5f5ReKLE7Q2gI4XftGmTpN1rMPwz4fAamdjatWudw69bt07S78rcuXNzuInLlF9//TW2atUq57Tz3NzDBfKNZ+e/C9T3n376yT8KD2VOvXWBdH/77bf+UUzy8KKLLopVrVpVXPfhQtBrxBi1FPnNa4jF7WLFihVjbdq0EXd7S5cu9Z88HJQ17h1d+fHHHyWvXaC+zJkzR+qsC7wjuFNM5k4yE7wGPjZ79uyYN5j0z4SDuKdNm+YfhWf8+PGx3377zT8Kxy+//BJbsGCB87tKfXHtH3hHyTfeORfoH6ZMmeIfhWfWrFmxDRs2+EfhIL+nT58uZe/CDz/8EFu0aJFTePKN8K5jAsp68uTJ/lF45s2bJ++rK/Rpru0MUF9c6zv5TTtB3XGBMQV9k2u/SplFGctFGRPwrnuDfv8oHDwvz+3arwJjoY0bNzrlHXV2zZo1zm0s6Sa8K4SNMoZ2zXfAxTN9nAv2uV3fF555yZIlzvV98eLFzq6KSfsXX3zhH4WHNsY1burbwoULJe9doJ5///33zu0Mec677sqoUaOc+3TGYTy7K/SpuAl37RttubnUOeoM/apruZFnuK125bvvvnOuc+TXhx9+KO7Uk43X7caY/eWXX/ZDbYV4GYu59A/UU/p11zE47QRjCtf6TropN1fGjBnj74WHuHn23OprSg0aLEpjRRlryC5g5Rq3aaksL6cDCTYWmdNZYU6HV2nEWrmLFNwrbOMNZsQCtos0GGvg3mBOrIq7SrG9Civ57iKN9QaCIlXE4rsLM2bMMC1atHCSxlJfkKJj1Tzss3sNozw3ZZappfkg5BvPTliXcsNlH+lHu8MFLJnXq1fP+csL9W7SpEmy5vODDz6QfCwpUN8uvvhic9xxx4XOf6+Bi/TVhXrq8p4C4cHlPQWaXjaX8IQjfldtBuCrj2v4KGGB8Dy3S95HLTfqDHG7lluUOhclLESt71AQ9RWi1Bmem/KOUl/xTEJb4wJfFvmSyJgmLPTHq1evFk8mLn0TYzG0J/Fw4ZL3uC8l7wjvAq5MyTeXvGcsRN/MmCAs1FdvICtal65fxik38hxXrmHbC8qN9FeqVMmpX/cmEJL3jAVdYAxMul1c5jJ+IDwedFxgLMbY3WX8bsdi5Fturp2TQdoZw+OeuSDaaMZirvWNOuuaZojSt0Vtn6OOKaL2bXkxpnANHyXfgfDgkvfkO+9MonZKppDvEDbviXf06NGyfIn3LTd4Jx599FFzzjnnxN+PKM8NUeps1PoKUepM1LCkn/Dp6pzaoFGUAoYBeN++fc3AgQPFgnqQo446yhx55JFm3333lQF+lM6/oEF4iUu9yZMnmw8//FBc41loqJgEPPjgg6ZLly7+WUVRFEVRFEVR8opZs2aZrl27mh9++ME/Y0yzZs3ExbYV+jRv3lxcaCNsBgTVjzzyiCx3UrY9KqBRlAIEzZtLLrnEDB8+XI6RomOoq0ePHnLe5QtUUYAGf8qUKebxxx83X375pXxxA56XDqBXr17Oa0MVRVEURVEURdkKU35szpx44omioWhp06aNuf/++80xxxwjq1jg5ptvFi26O++8U7Q4Ae2Zp59+2vTs2dNZ60fJjKL7OV5RijgIZ04++eS4cAZV5scee8x88skn5rrrriu2whnAuFa7du3EQvxXX31lunXrJufpBK688kpz4YUXioq5oiiKoiiKoijR4MPo6aefnk04c8QRR5iPP/5YlhUGQbP9mmuukaVNdj7CEsBLL73UvPDCC3KsbDtUQKMoBQBr488991wzffp0WbZ00EEHmfHjx4tggqVMJQUk8C1btjTvvPOOuf3220U6j5Dm1VdfNS+99JJI+xVFURRFURRFCQ9j6alTp8rHUJYtWQ444ADz3HPPpbRRhpAGuzO33HJL3IYadqKuvvpqMcugH1K3HSqgUZR8hsbt7LPPNmPGjJFjGsgBAwY4G7AsDrCc6YYbbhB3fnQCGNGiQ8DNuKIoiqIoiqIo4eEDMKYTgpoz2Ld8//33ze677+6fSY7VpMEkgTUcjiYNghuEO9ZYsJK3qIBGUfIZhDEjR46UfYQyqBY2bNhQjksyaNNcdNFFYjAZsEtz7LHHxu3TKIqiKIqiKIqSGYsWLTInnXRSDs0Zlill6vEXIQ1a/3w4tV6c0J5BcIMGvDUsrOQdKqBRlHwEt50Y4qIxQ6XwiSeeKFFLmnKDTgAbNBgqA9z/kUcqoVcURVEURVGUzMAhB5ouQc0ZPKW+++67pl69ev6ZzMAcw1VXXSWaNNb9P0Kas846K/7RWck7VECjKPnIjTfeKG7s4LjjjjMHH3yw7CtbqVSpknnxxRfja2Lfe++9HO7HFUVRFEVRFEVJDkKV1atXy36pUqXM/vvvb15++WWz2267ybmwbL/99ub8888Xm5HsAx+crZcnJe9QAY2i5BOrVq0yn376qexXrlzZ3HrrrXFVwYICezgYLJ48ebJs33//vfn111/9qwXHLrvsIm786FBmz55thg0b5l9RFEVRFEVRFCUdmA7ArAJaNJgPYDlS7dq1/atuMC6//PLLzfPPPy8eoR544AHRylHyllIxdZOiKPkCmiCnnnqqqAR2797dDB482L+Sv2CAd+jQoeaZZ54RF9+oQCaCdP3iiy8W1cWojbkruN8+/PDDRTrftm1bM3bsWP+KoiiKoiiKoih5wZIlS8Qu5u+//y7Ht912m2jKKAWDatAoSj6Bi7u//vpLJNq4qMtv0ES5+eabTYMGDcTGC8aJkwln4McffzTXX3+9/PaII44Qt9e//PKLfzV/aN++fVw4NG7cOLN06VLZVxRFURRFURRFKY6ogEZR8okZM2YYFNZq1apl6tev75/d9qCB8uyzz5oDDzzQ3HvvvaEEHbjSY3nReeedZ04++eRshsa2NaxvxS2gZdSoUf6eoiiKoiiKoihK8UMFNIqSDyCYsYIRlg/ttNNOsr+tQevlv//9r6wX3bRpU1JvSNWqVRM3340bNxaXe3hSSgQhzxdffCFCHgQ2+bUysnPnzv6eEVs5iqIoiqIoiqIoxRUV0ChKPmE9EeGebocddpB9C3ZpXGHZVDLBC8KZ0047TbRn+E2QcuXKmd69e4vR4okTJ4p2yjfffGMmTJggS6Ew+tWsWTP/11tBg+akk04yQ4YMkWMENYn3DkOqJVYW1sNali1b5u9tBQ0fVxA6RXHfHTU8toDYXIlSZyBK3kWJm3yj3F2FfIR3zbeo9RWi5FuUsEC+F0S+QZT6Spqj1Jnc2glFURSI2sZGaWtSjcUyJUobTbyEd2Vbj+XSQbyu/ZolSt8YpW8j36PkW0H3jVHH0K75BoR1rbNR6ytEyfeo+ZZJO5FSQIN3lxUrVvhH4eFrt6vbLTJt8eLF/lF4mERu3LjRPwoHcZN2nt8FXpa1a9f6R+Eh/h9++MG54iEEiFJuGIly7WAo759//tmpkSTMmjVrnMuN/CK86wuHUawoGhrz58/PtaFcv369/MeNdFBAw3m8J7lCmfHsQai/N910kxgDDpZnzZo1Ta9evcRjE66s//Of/0je7bjjjrL0ql69eqZJkybm2muvNXPmzDFvvfWWadOmjR86CwQ/Z599tgh1iIelW64QB96tUoGLQEtivcTbVJRlT7QxvCsu9dW2UevWrfPPhIOOCXfr2PpxgQaefHdtY0k3gjhXqD+u7xpt1Lx585w7ZvLM1R4RcRLe1W07dW7SpEn+UXimTZuWVNCYCZT1zJkzndtn4qWNc6nv5BvtjGvfRvjx48f7R+GhT6dfdIVnnjt3rn8UHtyURhnP0M64DujQfCS860CY/oV7uLJo0SJ/LzyMB9hcodyjDISJ2xq8DAvl9tNPPznHT3jX9h0oc9dyo0/nfXWFPtmOV8JC3ISP8r6kGxPkBnkepa3gI5UrUeKmns2aNct5TEHfRBvnWl9516LU1zFjxjiPCXjPorTPjEkZgxdU30jc1pV1WGjXGU+5YsexLtC+0C+7PDeQb4zFXPI96piCusZ4yLVfpMwWLlzoH4Xn66+/9vfCwzvOu5ZbvqX04kTjygvPpM0FCq5GjRpOboQpOAodA6UuUFkrVKggrozDQudCx8QkGi2DsDBhJd9wE+wC8dNQYBw1UcsiE2ioEBQwEXeBCssSHJe4ednZiBs3bGGgGvLc5cuXN1WqVPHPZg4vK5MulutY3/xhoFPjpXH1WETntvPOO6esMzwf16lbp5xyinn99ded8jhT7r//fnPLLbdIfbLwLr/22mumU6dOSZcxJYN0I/y54YYbzBtvvJHtfq1btzYjR450es8yhQZ89913l32WaT322GOyryiKkim0W4xJXMcUTCAQYrssTWUQxiCUdtJlPESfascUmbbbQehzaMfpG11AkBvUZAwDAhL6Zpd+lYE3E3XGkRjWd4HwjAXRWg2LHQtS5oxLwoJgiHJnPOUCY2Ce3WUcSt4xJnGNm8kmddVlLMb4nXwj313yjfrC+8Z4xaW+K4riBuNt9eJUeFA324qSD+SngAaJOLZbgl+wGCDj1ht31S4wWL311lvNfffd55/Jok+fPubpp5/OpumSl6iARlEURVEURVG2HSqgKVyoDRpFKWYMGDAgm1o3Gk24yXYVzgDCJNxuB70qQf/+/cUFtqIoiqIoiqIoihINFdAoSjECwQzaOUHFOAwFH3744f6RO6joI+jB45MFdeaXXnrJee2voiiKoiiKoiiKkoUKaBSlGMESIOwQWVhDjsHfvII15eecc042G0NTpkyJZAhSURRFURRFURRFUQGNohQb0Jp58803/aMsbrzxRlOnTh3/KDoIZrp27ZrNeN93333nbMFeURRFURRFURRFyUIFNIpSTMDzAW4aLWi7HHbYYf5R3tGyZctsXj0wIBzFNaWiKIqiKIqiKIqiAhpFKTbg1z9oe6Z69eripjOvwY15ok0bljkpiqIoiqIoiqIo7qiARlGKCZs2bfL3skA4s+OOO/pHeUuTJk38vSyWL1/u7ymKoiiKoiiKoiguqIBGUYoJv/76q7+XBcIZtF22BeXKlfP3FEVRFEVRFEVRlLxABTSKUkyoUKGCv5fFxo0bzZ9//ukf5S2J2jo77LCDv6coiqIoiqIoiqK4oAIaRSkm7Lzzzv5eFri+3rJli3+Ut4wdO9bfy2K33Xbz9xRFURRFURRFURQXVECjKMWEPfbYw5QpU8Y/MuL6esWKFf5R3vHHH3+Yr776yj/K4sADD/T3FEVRFEVRFEVRFBdUQKMoxYRq1aqZvffe2z8y5u+//zYvvviif5R3fPPNN2blypX+Uc54FUVRFEVRFEVRlPCogEZRChgEKYk2XcKArRm7lOmKK64w22239bUeNGiQWbJkiX+Uk3/++UeMC//111/+mfTw+48//tj8+++//hljGjdubGrWrOkfhYNlWL/99pt/FJ5Vq1b5e+Eh3s2bN2dzTZ4pPD9lFsXGD3G7ljtp3rBhg9QdF0j3+vXr/aPwELcraGBR51zyHSg31zpDnMRNGlyJ4rGMPHetM5Q14V3zjfrm+tzUd/LNNe2kee3atf5ReHhPorSRiqKUDGinfv/9d/8oPMGPT2GhjWI85gphXdtoxnC//PKLjNFcYAxJH+EKYzlXKC/KzRU7hi6IvtGOoQuqb1y3bl2kvnHNmjX+Xniorzy7S74ThnS7mmFgTBLlXSPdUeYerFBwJdMxcEoBDQPB+fPn+0fhmTZtmvMgnkybPXu2fxSexYsXS0PlAi/Zjz/+6FxwvCwzZ850biSJn3x3nXjx3IsWLfKPwjNy5EjnhooKizDAtZFctmyZc0NFA7tgwQLnDoZymzVrln8UnunTpzs3NHROUSZ95BnlTr6feOKJpmXLlv6VrHtff/31KQcslDXLoDLNN96NAQMG+EdZtG7d2lSqVMk/Cgf1xbVz4ZnQ5nGF+kq+lSpVyj+TObyfdGyu7QSdCwMaVyEJ7Qt559pOUFejLH/74YcfnOs7eUZ9d20jf/rpJ+d2gkEs/YNrufHMvAOu0MZFGYAjkHRtX2nj2ILC1UyhrMhz1wER9XTevHn+UXgWLlwYaQJAv5poNysM9C2uEzfi5n1J1QbnBnm+dOlSp3IDyi1K/xKljaW+u74v1Lk5c+Y4v6tAubm+M7zrtBWu/RPlRvpdmTp1qryvLlDX5s6d6x+FhzIjbpd8412n3F3H4JR3lDE074prvtHGMndxhXfNNW7eb+qqa32jnSF+13aC8nLtV4HxM2lwgbY9yoTX9stR2kjXvKO+U+dcBUzE+f333/tH4SFu13KjvtNGuo4pmOPTzrmE57kZ/7rWd5vvrmNgxu9R6lyU+SJxM/7Orb6V8jI2ac7yolHhEg2PZgoJYNLm4o6XSkPG1atXzz8TDhoabHHgZjgsFDadG2FdPNMw+GayW6VKFf9MOIifCl+5cmVTunRp/2zmUNkpdNcJM4PQ2rVr+0fhiPrsdMy4hS5btqx/JnPIN8qd53YpNxp48n2XXXbxz4SDAQnvDIOq++67T56hf//+pmnTpnKd14x3iQbplFNOMa+//vo283x09913m1tuuSXeaPIOvvzyy+bkk0/Opl0TFt7JfffdN9vEvmLFijIQrFOnjn8mb0EIsfvuu8v+5Zdfbh577DHZh7PPPtu89tprpmHDhubCCy80J510kpRf+fLl/V8oiqJsFW7tuuuu/plw0G7TN9HehcUORHfaaSenvo2+ib6VMYELjONo9xO9/GUK7b1r+854gOd3jZuJm2ufDkwg6P9cxqEICMh7xpIu8ROevHcdD9Hf8uwu41jqO2PwunXr+mfCwViI+k7cYT9g8NyM5cjzoE28TCHtxO8691AUxQ3G2y1atIh/TLjtttvM7bffLvtK/pNSQKMoSu7wZZQlP2geTZkyRY6BQc0rr7xizjrrLDnOTwENXxIOOuigbF98GeghOLrgggucBH8M9i6++GIzePBg/4yRAdzzzz9vzjnnHP9M3pNOQIPdmxkzZvhHWc948MEHm//85z+ma9euIhyLIpBSFEVRFEVRlOKOCmgKFzp7UZQQ8DWQxuvbb781hx9+uDRml112mRkyZIgIZxDM8OWIZT8F5dkIl9fvv/9+NgEQX6SuvPJKMRocZokFz4uad8eOHbMJZ+Cwww4TYVNBwbO0a9dONGYQxPCMn332menbt6+UC0Iq8gHNKlc1SEVRFEVRFEVRlPxCBTSKkgHYvWCy/9///lc0NNq2bWuGDx8et92CCnf79u3NPffcI0KCcePGxZc3FQRt2rQRjZmgajeCGZYCdevWzXz00Udp14gjmEE75dZbbzUdOnTIsUaWZXCPP/54gS4nOuCAA8yYMWPM6NGjzYMPPmi6d+9uqlat6l81ZtKkSeaEE06Q3/Xp00e0lqLYYlAURVEURVEURdmW6BInRUkDS3vuv/9+0dZIZnUbuwLnnXeeufTSS02DBg1SLqnJzyVOFuK86aabzL333uuf2QqaPqwP79mzpywHatasmQhzEGAgmMF+Dv+TGX1DOIMhPVd7PWFIt8QpEZ6X/GXJ2Y033phDGMMzYwOic+fO5oEHHjDNmzf3ryiKoiiKoihKyUSXOBUuVECjKAEQSIwfP95MnDjRDB06VDx/2MYKsLuCMANtGZY4oV1So0YN/2pqCkJAY3nmmWekoUULKAo8O8uaHn74YWnE84MwApogaAt99dVX5ssvvxT7QIneQBCk7bfffqZLly6mU6dOYvzY1QinoiiKoiiKohRVVEBTuNAlTorigf2SZ599VmzHHHXUUea6666TJUy2ocKbAcIJJvwsq3nyySdlSU0mwpmCBsPAuEpFoOQK2jWPPPKIee+99/JNOBMFNGUQvrDMCwENGj8sT0PjCVjCxRKou+66yxx77LGmUaNGUuZR3O4piqIoiqIoiqJEQQU0SomECTruoQcOHCheiHC/etFFF5nZs2eLUAaNF4ztsvzn0UcflfMIbDCWi7cgF09IBQVpResH4cpLL71kjjzyyIyWJ6Hhs88++5irr75afP6zjMvF5WdBgqYMQpk99thDyhFXu2gvYZvG2giivHHnih2bWrVqmeOOO048cOGVK4xBZUVRFEVRFEVRlCjoEielRIE3H4z4og3CsheW/fzzzz/+1Sz2339/c8kll4jGDBoyQUO7rhTkEqdEEEhgWwcNEpYB4ZFq7dq1IozA6C+CCzwgHXHEEbK8qFq1agUmkHJd4pQbLGVDKDNz5kwRWr3zzjsitLOwnKtKlSqmSZMmIsxBCwnBnKIoiqIoiqIUJ3SJU+FCBTRKsYZJ98qVK838+fPNF198Yd59913ZD8JEHKHEwQcfbE499VTx+pPXFCYBTVFiWwloEkFg9fzzz5thw4aJZhUCq6DABvs0GFQ++uijTatWrUzNmjW1/BRFURRFUZQijwpoChe6xEkplvz111/mu+++Ew9LaIKwVAlvRlY4g0cfJv64xf78889Fq6Zfv37bRDijFH5Y8nXzzTeL+3HsDCGswZW61RzCJflTTz1lTjzxRPEChSAPb1G6BEpRFEVRFEVRlLxCBTRKsQFDvyxbYnJ9yCGHiKbDyy+/LPZjNm3aJMt3EMqcfPLJZsiQIeb77783N9xwgznwwANN1apV/bsoJRmWMe25556md+/e4sGL7eKLLxYbPhUrVjSbN2+WekP9QeiH5tWdd94pNnrWrVvn30VRFEVRFEVRFCU8KqBRijzLly83d999t3jjQTDTp08fM27cuPgSFYQvaNK8+eabYuh30KBB5vjjjzdlypSR64qSijZt2pgnnnhCbPW8//77ovJpl1wBKqG33nqrGI9m+dM111wjtn0URVEURVEURVHCogIapciBgVe88TBpxoBrvXr1ZHnKqFGjxOgvnnuw97L33nuLNs2PP/5oXnjhBdF4wJ0y1wsTPE8U984bNmwQDSEXc1IsBbMGgl0gPAIyV1asWGF+++03/ygc5NsPP/zgH4UHe0CZxE19weZMp06dZD3uokWLZHkTwsDq1auLoI97TZgwQZbJIdRBe+utt94S+0dbtmzx77QVygqNG8rOBYSPvANBOzlhQBMIuzuuEDcGt10gbt5T17ST1yw5cwGD4NR36o4L1Pdly5b5R+GhvvOuukDclJlrvqFh+Ouvvzq1E4QhvGvaSTPtsCvUF9d3RVGUkgNtJO2cK4sXL/b3whO1b2IcaO1/hIUxXKLtvDAwFoqiBbx06VLnMQF5FiVu+kb6CJe+Dejb2FzCU244nHAdx0btGxmLufbLjIOixE25RRkTEN413+z7kujkJVOob1Hq3MKFC/298NA+8ey51beUM1USztIQV7D/QWPlAgP4iRMn+kfhwTMLEyMXaByZgLlWGjI9SsHx7HjVSTapywQmD4lGcMPAJJPGzgUaSDo3l0aOl3XevHlpy41GsH///qIN0759e3PooYeKVoMFF9DYB3n88cdFU2by5Mnm/PPPFzfLuUHjHKW+jxkzRsreBTo1104V7GQTuzouELdrI+cap4VBheuzU89cOwcgbt63sPDMXbp0EY2soUOHisHnXr16iVDQQhuEnRqWz2EU+uGHH5Z2xb4b/Oc9cxUUEJ62yvVdBdf2GYjbVdBJ2qlvNi/CQn1xrTOUHZtrfSeca98A5Jtr3OQX7ZQr1BXXfCMcddW1zAjnOniHqEJ1nh0BvisLFiyQyY8LtDF2ma0LxMt4yrWtYADuOh4CPoS4wqSNds8F3pMZM2ZEauOjlhvhXSf7vKvTpk3zj8LDslnGPC4wfmT84wqG8ik7l/edfGMZsOvkh/aV98W1naR9d31XwLWNBPLdtU8mrxmTuLaTpJu8dw1Pul3bd6Dconj7jFJmPDN575r+KH0jEDZK3kWBOhNlTBFlPEOZUedcn50yc53rEifPHmVs4JpvEGU8k+kYNKUXJ1vhM5ncJoNCx+YHCQmLrTSucVNh+Krt0lgQN5UON7su4cl08q5s2bL+mXDwolPpcO3skneEp9zIexeilFvUtDN5Id/t0iN7P5aRvPjii+aZZ56R31iIg99iN4QJ8tVXXy3GXqOkHSGPCwwiybdgY0Fd4Jj0UK/SeXHiuku6gbRHaaSixA1R4icscaeKP5UXJ8LZdLvGTXg2l/CEg8R0P/nkk5JGtIqSDRhOOukk89///te0bt1ayp82JkreFcSzQ9Q6FzXt4FpnCe8aFqKknbDE7RJ/1DIryvmWF2mnjcaOlAu8y/Q1LuknbvoW+76HhfEEG/2qC4SlL3Idk5BvrmMx8o1ydx2PIBwhrOvEj3wnLOOKsJBuO5Z08dhHnjNeca1zUcZiQPgKFSr4R+Gg3Mg3V0+FUfOdMbhrfY/aVkRtp9gKon+AKOELMt+A+F3jhqjlBq7xR017lPBRy5zN5ltYL05R62uUfE9Me1iixA35Ud/VzbZS6GBQhEYK3pVGjx4tX4IYZFro9JngokFjN9fB57aCL0Bo8jRu3Fgm5AxW1M12eJIJaPgiikYKjeNll10my48KEwyMKX+0uMaPHy9eoThnYcC/xx57SL1t166dOfLII021atX8q4qiKIqiKIqSf4QV0CjbFhXQKIUGGgU0EJ5++mlRr0VCGQSBBh6YrrzyShHQRJHcbkuwi0L6sJnAl8evv/5ajlVAE55kApr33nvPdO/eXc5RH7D1UlihDqOmfscdd5g33ngjhx0N6i9fSTFsjYHh2rVr+1cURVEURVEUZdujAprChQpolAIDNVbs5bDGHaOraM0E13ujdVKrVi1z2GGHiYFW7H5wXJhhzXnPnj3FZgAcccQRZsCAASKcKUgBDWtssU9EA8y6euwFoYnCf/IcrSUgz1HJZsMAbp06dWTbbbfdRBuoSpUq8rv8IpmABu2UY445Jm4gGCEN5wt73aDs0arBw9jIkSOljgTXq6NZg+Fha18JY8OFTTNMURRFURRFKV6ogKZwoQIapUBAC+L+++8XY3SscU80mMQkFU0ZJqzYmCkK2iYYSCbdeGoBlq68++67sg6c16wgBDQIjEjD22+/LQIZ1oazodmRyauPhgeCAzbWhO+7774igDrjjDPyRXspmYCGdPNcuLam7pAObLsUZk2aIOQ96UY4+dBDD4mx4SBWqwYh2Q033GAuvvhip7X8iqIoiqIoipIbKqApXKiARskXWLKELZlPP/3UDB48OIeFf2xw7LPPPiLUOPbYY03z5s39K0WDqVOnitcePFEBWj8vvfSSaJ5Afglo0EpCeEE+f/DBB+IFI3GpWF6Adg0es44//njToUMH0V6JYjArFckENBY0URAWWS8haNJg96ew2aTJDbysfPbZZ1JmeH9KdPNJvUGDDJfye+65p7wbKrBRFEVRFEVR8gIV0BQuVECjbDOoWkyin3/+eVnSgb9+BAhBGjZsKBoCTPTxwOTq8aAgYUKNsMK6GD/66KNFABM0/LqtBTTcHzey1113nSxhQgCWH682z1C/fn1ZcnTrrbfmubHbdAIaBE+TJk2SvA9q0rCkrCgKMNBsWrNmjZkyZYq57777xMBwEPKa/G3WrJnYq+G5XT1dKIqiKIqiKAqogKZwoQIaJc+gKmHPBK0NPNew5GTOnDn+1SxYuoEtE+xrnH322ebggw/2rxRN0FZBs8HaQ0Fz5tVXXzV169aVYwt5sy0ENCwN+/bbb02/fv3M+++/n82mSSIIv9B0QfsFYRjaPfXq1RO7MtaNKt6ySCP2alauXCkbS6P4z/mgN61EsFVz0003mRNPPFHunxekE9BY0MxCMGM1T8jfJ554wtSoUUOOiyrTp0+X5U/ffPONLAUk/4PNNfly2mmnmf/85z9mr732Es2hbaHFpCiKoiiKohRfVEBTuFABjZInsLRn0KBBskyDySSCmmDVQjCAIINlQE2bNhUhAQZpizIIBNAc4Xl5VvZffPHFpMZquZ7XApotW7aIC28EM2hepILlMcSJ/RjyHS0MBDKZTObR6iDNGBNmKQ4GnUn76tWr/V9kB1s1eKzCvhD2g6KSiYCGvMXA9FFHHSWaNMByJ5aYYf+nqPPLL79IXfvoo4/kHUsm9CSPsH901llnFXmhp6IoiqIoipJ/qICmcKECGsUJliphV4av+6+88ooZPXp0NlsnLDHBZTCTdZYvYVSWyXtxAa2Vrl27yrItQHNm4MCBKTVH8lpAM2vWLHP++efnWAYD5DMT9tNPP91ccMEFee66GeEby6kQlqDlkUxYU7VqVXPjjTeaiy66KJKQJBMBjQWvSCwvQ5AEaJc89dRTkpbiAkI5yvyFF16QOsizci4I79w555wjdXLXXXctkssGFUVRFEVRlPxBBTSFCxXQKKFgcs6yiw8//FAm5yyFCVYhbGIguDjuuOPMAQccIJPr4uYqGHs6vXr1igsC0NzAzg7LhVKRVwIaljThAevaa6+NL6sK0rJlS3PVVVdJmvJaMJMI2jW4vGYp25NPPml+++03/0oWPB/P+txzz4mWhwthBDTkMQJDBIIbNmyQc2jSEH9+uwff1lAP0JrCODXvIoa3WYoWhPqGUWE0qM4880zToEED/4qiKIqiKIqiZKECmsKFCmiUtDARRKiA4dmHH37YvPPOO/6VLFgmw3IZbK6ce+65otVRuXJl/2rxgldl+PDh5ogjjvDPZGnO4MY6NwFAXgho0FB64403RCvFNqAWli1hOBa3zAUBWjQIhfBClGinZo899hCbRNajVRjCCGgs33//vTn00EPFbg6gSYSQxtrZKY5gewhNNuoVQjMEVImu61mC16dPH7H/hFZRcdJoUxRFURRFUdxQAU3hQi1KKknhBf38889FGMBkF3siicKZdu3amQcffFBsY+BNBwFBcRXOAEKG3r17+0fGdOnSxfTv3z/ftDOI67LLLssmnMGODxpLuGnGg1NBgYFaNItwc51YBxYuXCj5hvZVfoCNI5abWVtA7BN/ooZJcQJhH8JRNIiwE0RdwV19UHvtk08+Ec22gw46SNyT4+0K20KKoiiKoiiKohQOVECjCGh4YFdm0aJFooWBLRU0IrB1gb0TrjEJrFSpkghtmOximJXlNB07diwWxlhTQd4gnDn88MPF7g6gOYNxXlxM5wfY+Onbt6/ZuHGjfybLzg/LeTAci1ZEQRtdRjBD3UBIgPt0i9U8wh5OOi9QeQmejRBUWLffb7/9tgi3Et28F0dY1oSHNASnvM+47MbDFsIaXJGzNA5hK0KaJk2ayH80nzZv3pzNjpSiKIqiKIqiKPlLWgFNoop8GKJOxKLEHSUsMElhUlkQEC/xk39MMBGOhJ00hXl+4sHo6AMPPCAGVnHXy4TO2hNhCVPz5s3NhRdeKLZG5s+fb55++mlZrpNI1HyLGj5KuRNvqvDDhg0To6uWHj16iOAKezuWKHEzMU7nhQkvPuQ/y6MsCMTuuece0YLASCzei1zyjqUxCNsSDc1mCuGwQxSkVatWYienbdu2/pkssF2Ed6dgXi1fvjyb0CkM1BdUMlOBJg22WTCUC8SPLRZr1HjdunWSty7w3qB9Qtm5wjKkYJmGgWfnOXITOCGYQbDHsi+EjLfeeqvZb7/94subSAN1CHtRCPn47YgRI3LYE0qEMnet8xjWxi08Wl8ukGfWxlBYSDP5ltvzpYJyR+jlCs+euDwxUyjrFStWOLeR5FmUd418d8233N7V3KDMXN8VS5Q2OmrfFCU84QgfhSjPHmUsFyVeiBq+IPM9aviozx6l3KLkG+RFnXWF8UyU/oG+0hXGFGwukF+EdR1TYBOQcaRruTMWcs03oF90rbPEHUXDmXEofatrneW5XceCPDP5HqVvTGZPMlMYE7jWOdIepV9mPEG+ubzrhPn555+dNeup55gxcG1nGE9EqXOY/XCFfKPO5Jb2lAIaEs9k3BWMV7oOqJhsTp482T8KDw2Fa9w0cmhJuA6iedFxOe1aaZgwU/Cvvfaa2DphmUKYZ6HCZfLC0Qk8+uijst4Q97xozTCBs8+NdgYaNGjJzJgxQ4QyuMlO5aUISCdxuzaSNLCuDQ3PQ767NpKknedMhGU7CK6s5sxJJ50k2hiJBlep764NTW7urqkHeCgKcvHFF8uSMrQiog6kaOii3CPZgMAKadDQCPLQQw9lm+BGGURCbgIKNGlYqmc1vNAcwZYN8I6iUeLy7ITLxE15Oog/yiDcpj8TsL+D+23WFCOQHTt2rLzPaMQB7R7CYMqH+ta4cWOxOWWFWYlESTfCRoxcszTPZYkVcUeJP0qdI7+jxu3aN1DfqKuu7yppd63vUeIFwkbJd8JGiZ8BPJ7nXGEsxEDYBdoowjOucYEBMAbpXesN73Cq9zgTxo0b5++Fh/c7UYCfKbxnc+fOde7TYfHixc7LOO1Y0LXcGEuRfldYNs4ExgXyLNl4JlP4cOI6FqO+k2+u4yHSznjHtZ1lDO0K7WOU8Lyjru+p7Vtcw9M+Epb7uIAGdpQ21jXdEOW5gb7R9bmB53YNT9goYwKIEj5K2Lyo7xClzkUptyj1Pbe5Q25EGc9kXGZe5UqKV2gxr6H0j8LjDSpiXgb4R+Eg7g0bNvhH4SHdrnF7GRfzOtaYl/n+mXBEzTfi9zrlWKdOnWgpYzvvvHPMG1z5V3PHG1RI+pOxYMGC2EsvvRTr3bt3rHr16nL/4Fa7du3YscceG+vXr5/8lrSEgWcnbu+l8c+EwxtERyo38j1smi3Eu3HjRv8oi88++yxWt27deP507949tnLlSv9qdqjv6eoMedKkSRO5z+GHHx7zBi/+lSxS5dmQIUNi5cqVi6fB64hiZ5xxhuSVhbCueQ6udd2SLvznn38eK1u2bDz9bEcccUS8nAmbLu0TJ06Mh7v++uv9s1uhzmXCN998E9t9993j9zr55JNj3oTLv+pOlHwnrGt9hShhgfBr166NDRw4MHbuuefG62dwo+4dddRRsYcffjg2depUP2S0uO+66674/a+44orQ9+L3rvkeNc8hyvtC3FHij5r2gso3whd0vnkTTv8oPPQtwTY3DMRNeNfnz4t+1TXtsH79en8vPIxHNm/e7B+Fh34ySr0h30mDC5QbaY9Sbps2bfKPwsOYwjXtpJnwrvDcrmMx6inhM+2bEyHtieOjMBDe9V0B13QDdSZK3KQ9SjsXJW6ImnZXouYbRAmfF+UWhah5F6XOBOP+4YcfYuXLl4+Pz2677Tb/SnLIs6jl5grxRn3uKGmP0k5kmvaUAhql4Jg9e3asdOnS8oIcf/zxkQZX8OGHH8Y6duwYq1q1amyHHXaIv3x2O+igg0Rws2bNmkiDqeLE8OHDYzvttFM8j04//fRIecML2a5dO7nXfvvtJxPjTEBgZtPA1qxZM2lEiwo0QggAgs9QqlSp2DvvvOP/Ij3PPvtsPByCQ1fI/ylTpsTLlDQgpFGyoLNhAvvRRx/FunTpEs9zu5FflSpVkjpMWxEF2rNq1arJfVu0aBFbunSpf0VRFEVRFEXJb8IKaJRtixoJLmSgVnveeefFVaDOOuusbJ5YMgGVXuxI3HjjjbIUB88tGG5lGY83ETPeCyj2QVgig/oyyx2wsVKjRo1sdlVKKtjGwDWzVW1mKQjLPaLkDWp4uJsG1H9/y0Btm6VALLEKQpnll2HivADV0+7du8vyGovX7og7aFTAc+PTTz/194zYSXGF/G/durX54osvxIAxaWCpGi7Po6j/FxdY0ojrbZZUsiSMuoeHtiOPPNJUr15d8ot1s7QVuNOnrcAQMS7mqc//hlBPpj3DmDRlwnr/MLZoNm/eLAaNSceECRMknZnUo7yAeFh6i00qNmyERVl6oiiKoiiKoig5QEqjFB5Y0kKxsNWpUydjFVc0BFgOwvKlRo0axSpWrBi/T/B+d955Z2zOnDmR1L2LM2jOsKzM5tmZZ54ZSVU4yAMPPCCaCGyDBw/2z6aGJVXB8jvssMMiqdUVJK+99posz7LPggbFvHnz/KvJ+emnn7JpMUXVJAM0esaNG5dDk6ao5uu2hiUCLHd87LHHYnvvvXe8LOyGRl79+vVjp556auzrr7/OuL2iDNDo4x4sIySe3Pj4449jrVu3jtWsWVPCUofq1asn6SJ92wqWKdx9992ivcbS0AoVKsiGRtFuu+0W69y5c2zy5Mn+rxVFURRFUYoWqkFTuFABTSGCdeZ2SQsTH2ygpIN1utOnT48999xzsT333DNWpkyZ+IvFxnHjxo1leQ7LnLi/kpo333wzm2CL5WUICfIKJqW28dt///1zXXfK0jObFpa8UYZFlVWrVsnE2j4PAhIEhel4/fXX40Kdnj17+mfzhm+//TbWoEGDeHoQMLDET0kP+fbf//431qpVq2zCM7shHKZTHzt2bNplfAjEunXrFg93xx13pFwPzG9Z3mZtGe2yyy6yNKpp06bZ6hTLOPMS3s/x48fH/vOf/8TjQDCDLaOGDRtK3HYpKrZ6sNOTiaBJURRFURSlMKECmsKFCmgKEUx+7MuBkeBUE3i+aPNFF3sQGPYNaiaw1ahRQ4QyaIMsXrw4V0GAEhM7KUHDyWjOYKw5L0EDhK/w3J+J3bBhw/wryRk1alRcYIRh4bzS5Ckohg4dKloHPE+PHj3SGgLEQOEJJ5wgv+WdmDZtmn8lb0AYQP4GhQxo0kQx6liSwFj2iBEjYjfddFNs1113jeeh3dBwwdbSddddF5s5c6YfKjtoUFkD2BgoTmVbCWFP5cqV5XcIdWbMmBFbtmxZbMmSJbLfv3//2AEHHCDlmZd8+eWXoiFDvKTz4osvljjmz58fW7hwoTwXmmEIa/gNAqRLL71UBeGKoiiKohQpVEBTuFABTSGBr8TWcxOT91deecW/kvUl98cffxSPOGh1JGrKIKCpVatW7OCDDxajqmG8PilZmjPBPCWPo3iuSMfLL78c23777SUelkbk5q0MzROWjhQX483UTQSRucHk2ApPWNoVxatDOmbNmhWfhLOddtppuvwvJGiNIGzs2rWrCGsSDZHTPqEx9sYbb4hwI1iXL7nkEllmRpv34osv+mezc++998p9mjdvntKLWl5DPbUe3Fga+umnn/pXknPZZZfJc/NuP/roo/5ZRVEURVGUwg9az8wl7diN1RlKwaECmkLCyJEj4y8FKvRM3Jn48HX4xBNPlC/MdmJvN77YHnnkkTKxYamTqteHB+EMSyZsnrKUZlsudUEzxC7toPzuu+8+/4piSRSavPvuuymXv0SF+3711VexKlWqxONDk0aFNOFBkDx37tzYW2+9JW2W9dQU3BB60GYhSMZ7E3az7PuHxk0yrrrqKrmOAHpbCU6DIECiDhAn9YKlprm5RKS9Pu+88+JhMhFCKoqiKIqiFBbQEj733HNjd911V5HX2i/qlOKPN6gsUniTKvG8smXLFv9MerwBs3goSQVZgIcSvB8tXrzY/Pzzz3K+VatW4q3Em2iY0qVLy7lUcA+8/ngTO/EsYj3DtGjRQrygVKpUyey0005yLhGeA88ogwYNkuM77rjDrF271rz66qvGe0HknKVChQrGm+SYLl26GG/iYnbffXf/ihIG6tA777xjTj31VDnebrvtzAUXXGAeeeSRbe7JCg9beDayZfvBBx+I9xzSUNLhPTzjjDPMxx9/LF5+2rRpY8aPH+9f3XbgTejQQw81K1eulOPTTjvNPP/88ynfWSV3aNdeeukl8+yzz4q3o8S2DLp27WoWLFhg5syZI8d49+rZs6fsW+6//35zww03SDuKVy+8ceXWHkcBL1GHH364WbNmjbn99tvNrbfe6l9Jz2+//SYewgiH9z2efVumU1EURVEURSmGIKApavC1kq+pJD+TDTsJqcBegDcBEIOs1h6C3dBYQXPFm7jHpk6d6ofICV91vYm9GJO0thKCG7ZNvMlfbMCAAUntwaD2jzcS+/vEJUxsfF3+3//+F/viiy/y5StycQfNGWtglHK+8cYbt9kymkTQosGjky1btAoy8epU3FmxYoVoXrDchXzBEG1+arKgxRZU70SLQg0HR4c2DwPZfJHBlpIt32RbmzZtciz7mzRpUtwWE+8K7TXaNy6gCcP90y0ZRCORZVlo9mDjJgzYBiOdGKBOZVNHURRFURRFUVJR5AU0rPvHqFG67fbbb/dDZgf7HriItZMD7oWXDmxf8B+BDQN1bCQ8+OCDfqjsIFzBNoK9B5N9whGeuFnGYickp5xySlI3tAgHbHi7EYbwGFNlGYCSN7CkBeGMzWfKliUUBWFI+aKLLspm4Pmhhx4S4U1JgzLBmDUCGZsXvIOjR4/2f5F/sETHun9mw7tTSSyTbQnClVtuuUXc2QfrP9uOO+4Y++ijj/xfbgU32kHBNe0r7y1CvVQu0llG1aFDB3HPzfLPJ598Mi6Ao53G5hflnbh8ybbHCIvCCsOxnUQ/wrPhAUpRFEVRFEVRwlDkBTQXXnihfKlMt23cuNEPuRUG9hgftYN1BCEffPCBGIdkQoYHH7Rm7rnnntghhxyS1BMJhntbt24t90AQg3HZQYMGxaZMmSL3IQ6+HL/66qviVQkDscmwrrWDW9u2bWOTJ0/2f6HkFUHNGSZS11xzTb5pziSCQa7zzz8/XuZMVo866ihxp43Hp5IARl+xw4M3MpsPaK0VhHDGgk2aoGciNGkQ5ip5B+/cCy+8kM32DxuCF2y+JAMvYHhXs8aj2fBYd8YZZ8S+//57/1dbwR04v8GuFJo7vF/YNqJ+2fAIUmifERJa0JjkGsKdsHa9EMqgRYnGD16uFEVRFEVRFCUMRV5AgxtXFxi020H6tddem/IrOQN3vtAGB/CA8SRcu9p7PP3002m1MPhKm8rQJO5iO3bsGL8XG5odfDFmElMQ2h3FEYRnVpuJ/O3bt2+Ocs1vqBPPPPOMaEvZsieN++yzjwhqiov3pkTQmEG4irYKZWGfvVGjRuJ+uaD57rvvRFhg6wpCGiVvePvtt2N77bVXDu2Zli1bioG6dO8k7wuCbwSrwbAsKUpcGmUFNJQfmpJoItLOsyFIsYIahDTB9t8KaNq1axdaeItLcIQzKqBRFEVRFEUJB3NeTA68/vrrogFdUimSRoIxNnnMMceYMWPGmOuuu06MSIZh0qRJYnwUTjnlFDHm6E2Q5ThT3n//fTEk6k0YzH333ScGe6OAgeEvv/zSDB48WO7tTQz8K0aMYvbu3duceOKJpmbNmv5ZJQxvvfWWueyyy8QQ9Pbbb28uueQSc9dddxUKI7BeY2S++uorMQ6NQdy//vrLv2LEuPWee+5pvAlmWkPXRYHNmzdL/s+dO1eMcXuTYv+KMbVr1za9evUyffv2NZUrV/bPFiyjR48WY6+kFU4++WTz2GOPmVq1asmxkjnkIcawBw4caL799lsxqg4Y5O7YsaM588wzzQknnCBG0DMFY+x33nmneeWVV+SY9hgjw6V9w7xXXHGFlBf3JO7DDjtMzltIR/v27c0ff/xhHnjgAXPttdfKee6JYeCmTZuaL774wuy2225yPhN4Poxc16lTxwwbNkyMxCuKoiiKUnTB+H9wbJ4J2223nTg32GGHHfwzSiaQz6effrp59913TaNGjcSRRIkEAU0y+FIZ5es9YVNpjOQG4dIt8chNg4avoani5nzv3r0lLKromzZt8q9kkUpjJhFv4ib3wE6BN+n0z2bdP5mdmUzhub2Jhyy5CmoWsAwLdX6+HKO9kwokj6TflSiuuok7+CU6LIR11RaivMj3ZOWOcWarocJX+5tvvjlpHkVJO+XmmnbSjVYAX+tZZochVFvuxX1DS6VPnz6iURM2/8g3V2OxgAFi8jzVu855lhnaJTVBTRrqD8sgXd8X7o19k3Tvcjqo5yy7cn3XSTd1zpXly5dn9L5ghJ1lonXq1MmhMdOlSxfRMgmbh+SZzTf6GcqE+1WqVCmbUWerQYN2om0X+E+5UXcog169eslv0KaxsMTK2g9jWVUQnnnZsmX+UU66du0q90MbKNXSWtc6Q9yUear6mhvkGXXOJTz5Rr+b2F9mCuHT5VtusBzU9V2xJCuPTKG+uL5r5HeqvikTCBelT6ddde2bIMqYgHRH6VdpP6KknXx3DU++k3bXcqPcSb8rUcYUpDnKMmmeO0p9J2yU+k65uUI7FeVdxyyCK7SvrnFT1rRzrnWG8ia8a51hLBScy4SFlQCucdOvRImb+sJyedc6Z+tMur5xzz33FIcvyTa0cNkSzxNmzpw5/h2SQ5qjjGMZ87j2y5QXYzlX7FjMdUzBGDxZ2ml/cBjCWAqt+mSQdsZDUeo774srUfKNuDPJt5R+fb1MM14C/KPweBVOvpi74L1s8nXUFSSd3qDCP8qOlzFm3rx5sn/88cfn+GLrVQz5yk8a0mFd/+63337ihttCvnkD0fgX4rAgceULMF9iv/nmG9HwwU24VwklXQ899JC4/37wwQeTptFraMRFtyu4uyUuF7wKJ+7FXZ7dq6jGe9kk/S5Qbt7kJ4fr9bfffttceumlxuv0RHPm4osvNtdff73sByEvCe8KGgK51ZlUeA2VpA9tnuOOO854HZ355JNPjDfBFHfqe++9t3zFR3sq2YYr+F122SXptUy2KOEJ53VESa8lbvXq1ROthAMPPFC0DHBjjZYB2gu4i7eaD5lCnUn1nmcC5eUNJMWddzI4v++++0oacZ9MvaY+8U5aN/+u7wr3In7qrQuEp86QBy6Qbtf2GTKJmzb8gAMOMDfeeKO8W/we7SNc26PR9uGHH4pr87Dai5QZG6CBwzsCnLNu0oPQPtOugs133jnKF80tCL67zZs3l/Ocu+WWW4w3iPCvZL2ryeocz4b240cffSTHZ599tqlYsaLsA/eiPec3n3/+uVM7Z8uc/y5Q19iihI9S3/PiXXWFdM+aNcs/Cg99rzeA94/CQdy0F8E6FgbyjT7d9V2n/noTR/8oPN99952/Fx6em/GYCzwv7vld8w0YUzDmc4H6RnjXdpJ31WpfusA4wDXtvKuEd4X64lrfyTfqq2u+0a/+8MMPzvWdZ4/SVjCGd4W6Svwu0EaSZ65tLPlF+Cjte5R3zbWuAs+cOHYPA/1ylPEM8bOlGgsC7Sj1Otn2888/y5Z4njCkLTdoK1yJWmeixG3fNZc6R5go/Xpe1PcodS7KeIbyyqSdSLnEySa+UqVK/plwMFln4O2i2kWFpnNItaSDe9slTkxcW7Zs6V/Jwg6+GZQzGbztttv8K1kDhkMOOcR8//33ssTlpptu8q9kQVieu2zZsjkm8UHKlCkjFQv1egbjFvKNSkO+pXvZU2FfGPKO9JMWOtqXX37ZPP744/FGaNdddzXDhw83TZo0kWML17lHmKUCQRhMMeG2E5owkFYqHnG7PDsNPPWFSVdYKDfybccdd4yXG0IuljIxGWLyf/PNN5sbbrhByjYRGz44qQoDAxrCpqszLpAm8sXmbVGGMqB8KSPej7zOq20F79PEiRPN4YcfLoM36vZJJ51k3njjDVVdTcPHH39sunbtKvu8c+ecc44sM2zcuHGe5tujjz5qrrzySml3Zs6caRo0aCDn7RKndu3aSV+RjKOOOkoEJm3btjVjx46Vc3SJtLWEhx49ekj7m65tYCkUQkcGZcRH20w9B/orlqeytJb6Q9+BEIj8sQIiZdvCO0zZIFB2gXKjzibrO3LD9un0ay5tHuMMNuqTS79K3PTnLv0qMGZCwO6CbS9dxiO8h4wDCevaV9B38r65lJsdE5BvLu0VZcbzuy5Npt0g3a7joXRj6NxgHEmdIe/C1jnqO+EJ65JvjHPIN5Y6u9R3RdkWdO7cWd7JIPQpCBOBNpJ5WRA+fj755JPygU/JHNpOXeLkgYCmqIE6ml3ilNt23HHH+aGyQM0ag5Fe5yPGWV3wKk/8/u+9955/Njtexx77+uuvc2wYH3UFTyUs6cJz1CWXXBJJhbW489Zbb4mhTsrIG+RIfv0WQVVbUVjuhDFa++7jgju4pEbJDu30eeedJ/mEZztX7rjjjtjzzz8vSz+9iYd/NqsdnjRpkqgSUx5HHHGEfyULu8SJ7fPPP88W1ptExCZMmBC//tprr/lXtoIR69K+UXG8QGEAGBV2C/Hjya9///4xb+Ivv8NLFMaILcR5ww03yBJVvJVNmzYtdu+990qbVFDu/RVFURRFiQZ9P3NJ+v5HHnnEP1vwMK649dZbZUzEuCU49ikK/JnBEqeSQJE3EszXyoMPPti/khOMNGJ81IIKPEYpFy5cKMuErr76av9K5iDht18G3nzzTVnykAj3x7hrInxJxZClK3ydQJWOrwt8oVByQpnwpR7pNl+f7rnnHuNNtuJftBXFBZpK2pwjjzwyrt6I4WCvky4UxqYLI3zJDbt0LciMGTPMQQcdJF9k99hjD7PPPvuYvfbaS95llpmOGzdO2nQ0stgPGuW1GjSApiVLG9GYQa0Wg+wsF2UJAkbYWX6UWIb0M//73/+MN/CSYzRoWKJXt25d+arPEmCWQPB1h+fk69mAAQOkP7IaiMTFl6ChQ4eKJh+aAGjbkU76BwzCu2gXKIqiKIpScOBg5vzzz5d5GeMEq3Vb0KCty9yYuerRRx9t3nnnndBLyQsS1aDxQUBT1Ahq0IR1sx0MyxdWV2rWrCn3uP3225Ma+sHQ2O677x7f+ILK70855RT/F8q2AM2ZMmXKSF7z/8Ybb4xkpFBREkELzpuMSx1j8zoSMXambBvuvvvuWNOmTcWgdKmA4XQ2vl41bNgwNnjwYP/XW7EaNGi/0ObbdsFu5cqVEyN+uWn3eIOw2N577x13ux7c0LChLzjzzDOTGpzjSxZGsHfcccf4dYwZonFzzDHHqFafoiiKohRBCqsGDWMNHB9UqVIldvnllxe5OZBq0GQR3tBIEQcpol0P+Nlnn8lXcResdszXX3+d1JgablZHjBgR3zhWti0YcPUaI7EDxBd2NGdwl5uX9i4UBe0HtODs+n5sHaGhFcUQp5IajAyPHDlStE3uvvtu+Up10UUXmauuukrKARsy3bt393+dEzRUMEj84osvimYd9oP4j/0w2mY0aNKB7RwMRb/33nuidUncbGhf8gUN7Rj+77zzzn6IraA9hAYnxqaxIwU8C7Yxjj322CL1VUtRFEVRlMINYxHGJdi5QwtY50BFlCw5TdEiigYNeAP9uNQTDRiX9XmPP/64fD31Kn7snXfeydVdFlJA4lMNmryH8kNzhvxlQ1vplltucXYTqSiZMHfu3FitWrXi9Q5Nmk0h3B3SZhS1tcFFCatBc/zxx/tnCh76LmyIsSmKoiiKUjQprBo0RR3VoMmixGnQAG5Z7RfXe++9V9a5eXkhx8ngGmv5gpxwwgmmfv36slbuggsuMC+88EKR97JTVKH8cEkNaM7gnYuv7q6eHxQlE7BHMmjQIHEdDWjSnHvuueKSNxPQ6OjTp4+ZNm2af0Ypzixbtkxsp2GvBo0eRVEURVGKN8whWWmB223rideC/Tu2ZDCWZH7z1FNPiT29jz76KO6eGft23I8tEeKz15K5g0aDl2t4S7PMmzdP7HcSD2PTFStW+FfSg5dhxr6EY3vrrbfETmomfPvtt6J9TLhnn31WbOcwp1Z8vIIscgQ1aK6++mrxZpRu8yqyH3Irv/zyi9gu4B5s3sQqtnTpUvktmhdI8AiLl5AOHTrEvAG1H3Irs2fPjlWuXFnCo7XRq1ev2MKFCyUc4e09sFlRrVo1+Z1q0OQdaCBgH8KWIZLs//3vf6qVoOQraNKw1tfWQ7wWZaK9Vb58efk9tkiUvCevNWhoV7zBVa7aksmgHzj22GMlPUOGDBFNK+zPaFulKIqiKEWPTDVofv3111inTp3kd1dccYWMIebMmRNr1aqVnGPeEoTx48CBA+OeaINb3bp1Za6KF2J7jnlqEMYp9trFF1/sn82Ca4cccohcu+CCC2SeykoS+/vgNmDAgJTjHcLhkRJbfonh0CwnbKrxDenHw1RiOLZDDz1UPBb36NFDjlWDpgjz6quvipePdBueOxLBI8drr71mvMogx0jxmjdvLsd4WurWrZs58MADxRL2qFGjRHKZCL/Hawc2bdCewaYB9imI06t8srVp08bst99+cSnnLrvsIv+V6KC1ZL1woTnDWsvrrrsu7kFFUfIDNGmwj4IXH+ArxBlnnGFWr14tx6n4/fff5X+yLxxK4QP7N9ge8wYz/pnM4MvZJZdcIuvBAe1NPEY1aNBAvP0piqIoilL8wbss9mGYl+KlEpiPWhgPMq/BixGaLqVKlZJxx3/+8x/TsmVL8Rx58MEHx8cTUfjxxx/NDTfcICtJmEM1a9YsblsRrr32WjN79mz/aCtoyPTo0UPCMvdlnnv88ceLxyhs/pFG7PQxR0tk0aJF8rsvvvhCjuvVqyeaxYRnTj169Ghz+OGHm1mzZsn1Eo0vqClSBDVoMtlq167th8wJksrHHntMbMkkC8tWv3792MiRI/0QOeHrKLZwkkkS7YamzcMPP6xeO/IIygwbQOQt/5HkunzZVpS8gLrndShxTz94Gzr55JP9q8mxbYPX8fpnlLxk2rRpsc8//1w0GPMC67mLMqYPyhS+FnkDMklLcBsxYoT2B4qiKIpSBHHRoGHlBh4ly5YtK1q+o0aNiq1evdr/ZSw2bNiw2E477SS/ZeUFx3ZlB/+/+uqrWPXq1bN5tHTVoCEe7tOtWzc5z/35f9RRR8XDJ2r3wBlnnCHXCIv2DXNgPFaSxqlTp4qWD9eZm02ePNkPlUXjxo3j9+7atWvs559/lnCEJ/5XXnklfp2tJGvQlOKPlwlFCiR2eMJYs2aNfyY93osgWjHpwAMLmjKsw7Pr8pAktm/fXjRgMgEbA6yh46uovQdf1ZEK7rPPPuqxI49AKoumjDdJEqkvUl4kueXKlfN/oSgFA23IWWedZX744Qc5Pvnkk2V9rbVTE4QvI8CXEdozpXDDF6MhQ4ZIf0I5H3DAAf4VRVEUpSBYunSpOe6440QbwJuMmjvvvNO/ohQnmF8xP6PfDWqcFCSsvDj//PPNv//+ax555BHxMJkM5oOsysBrJJD+l19+WWyZJmr8swJjwoQJMl9844035DeJMF5kbIk2DjDv3H///WUftmzZInMj4J3Aho2Fa0ceeaR4IIa2bduKB1w0WSxot6DpizYPNlafe+45/4qRZzjssMNkHw+Vzz//fA4vUaws6dmzp+yjKcQKFDxafvLJJ+K9Epo0aSLPWaVKFTkOQr7iaRMt80aNGpkFCxb4V0oYIqZRlCICUmqrqYTW00MPPSSSV0UpDKBJwxcD+wUknSYN19lUg6ZocM8998TbHW/A4Z9VFEUpGO67777YVVddlXS77bbbYt6EKLZ8+XL/18WTH374IdagQQNpm9FIUIonaF6gvdq5c+fY2rVr/bMFi4sGDdugQYOS2mehLtuVAW3atBE7L8kgrLXRwuaqQcM2fPhw/8pWJk6cGLeriJ2aIJdddpmc5/rvv//un82C5+zbt6+sOrH3Z9+2QXjXtedHjx4t55KBhjK2X/md2qBRlHyGNYxeI5DNinhuoDlz6623igQYbRm0aC699FKRzCpKYQCtmH333dcMGzZMbFN5bax8nTjllFNytUmjFG740gTe4Eg8FyiKohQk9C0PP/xw0g2bfNh2wNso9hQfffRRs3LlSj+kohQdxo0bZ+bPny8aHcOHDzennXZaXEu5qLHHHnuIdkoyW5mMKxhfACs3EjVTLIStVq2af+QO97DaMEEYx1oN7yDMvWy+16lTR7R05syZI5o+2JXZeeedzYMPPihhaXvwzITGDb9Fy8h6OEU7CLs6qeC5sWVT0inxAhqMMKE6p+Qvl19+ubzQGMNiyVpuoD541VVXSXmxxOCee+4xt912m+wrRgQBUYgSPmrYqGl3JS/iTXUPjKah5okxWHjnnXekzv/pu0gsaKI+e0GVmaUg0s9Eh4EDAw3U6Qs6D1woyHIvqLCKUpJhfMXHMJaCd+jQwbz33nv+leJJQbZxUJDtXHGNGxMRGMi18AGMpeR5KXDMr+evW7duDuGHDYsAxMI4Y1tTo0YNfy8zSLcVLJH3tCedO3c255xzjgjODjnkEBnrfvXVV/K/T58+8qESeMa/fBfawbyKku8FFRaihs+ElAIaKscff/zhH4WHtWOuFQwJ4uYEX/FhYBKUyaR//PjxItnba6+9ZMANpJnwUdIeJd8odMK7Fn7U+Ck317jJc/Iuk/DTp08XLRr84OPlBHh5k5Ubaxxvuukm0bZBIINQB68oQekycWYadzKIt6DyjbpuJcsukI/E7wLPjYcx12enzKJohmD7yTXtvKMrVqzwj8Lzyy+/OMfNe0baU+UbnRhriVnnu/vuu0vd4Gvn2WefLWXtWlcsPDv3sV9bwsJzZ2rDKxms+3dtI6nvrJ12DU+5Iah1gfzifXHpX/haVL16ddlncOJShrwrdpASFtJOmbvmGza7aENd0k2cefGuutZ7+gjrCdEF4ufrqyu855mMKZLBMxPetdwod/o2V2y/7EqUfKOuu9Z3iJJvwHO7tpGUG+Fd4yd8cMIVFt61TNPOl2s8CTKuYps6darYe0CTBvssCJepB9hHZDI1aNAgP2RyeO4o9Z0yp+xoM9L1k8kgv/m9a1tBO8fmAnFH0czgXXHtm3he+jbXOkOZ8dyu+Ua6XfMN8M7j+q6Qb+nGwPS9eMnFy5AFO3DYQFm+fLnUlyjjKuooz+8aHjJt5xgbBgU05Jkdx+LZ0YLmSaq2l3YhKJyyc6iwkJYw43fmXFZzhzyjrcG+IvZimMt9/vnnoh1Ee2Nt4FhY6cB5YPzFeJh7JBuL8dy5Cd9on0i7a5nxrkUZU1iZgQs8XyZj4JQCGjoHXGW5QuJdBsHAyxbl4Sm0TJbOTJkyRX5Ho2TdnVLoZFyYDiUIz0zFcm2oeMlpcFw7RxqZdA1dbixevDhS3NZolQtMnBLLDQOrLGUiX1nWhDs4NGfKlCnj/yILOqcokx/qe5TJPhNW1/pOY+ta34CwPL9LQ0XcpNu1vhKn63MDdca1vpFm144JGAi5pp3nJt255Vvr1q3Fnb9V18QFN8vyMmmf0kH83CNK3kUpN94X1zpDXaXOunasvOPcwwXidE07wuGaNWvKPn2jyz2oc64DcJ6btLtCeNf2kWcl3VEmu1HqTJSwwHuCgUlXEGa6tjXETZ/sWu48O32b67tOuqNMvFha4AoDYNdBMHWGsZTruw7ku2tbS7yMZ1zjp7yjjClY7pBpG83EqUWLFqZVq1ayNW3a1DRu3NhceeWV8iUbo5+47WXcxMSED1zWzW0yeG5+5wJtBGM5Pk7gLheDpNY4aibQN0QR5pJnrmEJF6VvJm7X+mLHYq7vOeFpK1zb6Cj9KtDOuLbRlHlufRNGcHEtjYtpC3WY5U7MFwnvWu5Rnx1c4wbbr6NtgvFc4P1/6623ZD8RhCFjx471j7Y6nHAhTL+GQAenFhaMHffv39/069dP2h2rXZOKoCFjzFXgSjtZuWNAOTc32+Q3+eaa74R1fdcglfAsE2x9z7XcvIdLincDMfjjite4pzRwlBteAyOut1wh3V5D5x8lhzi8ToqSjW2//fYxryOPn/cKztnwLM8cJd+In7xzjZ9y8yqOfxQer2P298JD3OSd10j7Z1LTsmVLyft99903XtaE5R7gVd7Ys88+K2XD77wBSOymm25KWafIL/LdNd+Iz2uo/KPwRKnvSvEHV8/WTTObN6iI76uR4KIB7cthhx0mZeYNRvR9L0JEHVN4kzZxJeoCcVN36GNcoE+kb3Lt20h3buOhdNixkQv06WwuMI6I8txAudkxRViIl/Cu5RZ1LLhhw4Zc2xjGT7RHtWrVis2bN88/m5X29evX+0dZUAcuvfTSuFHTpk2bZnPvG4TnznQsl4gdQw8ZMkTiYQz3xhtv+Fdzh/xmPJUpaiS4ZPH9999L/0t52+2AAw6ILVu2zP9F/uFiJPjQQw9N26Y8/vjj8XlP5cqVY59++mls6dKlMjdbtWpVbNy4ceKq2z47m6uR4ObNm/tns8P9qlatKr9JNBJM+GbNmsm1UqVKxU444QQZ35L/pHPMmDGxo48+OjZt2jQ/xFboi/bee+942ogfY8EYEaYtomxvuOGG+HU2NRKcBCTt1n6CC5UqVcq2BCUMSOGiGEAi3bm5XPY6kbhqF+7FbFqJG9UsV8Oz3CdKvhE/eecaP+UWxZ03qrKuEDd55yrNJSz38AYl5pprrhHX2d5AQ86jOXPLLbekrFPkF/numm9egxjJdV+U+q4Uf/i6+frrr8fbtdxUzJXCB22TbR9dNWiUgiHqmAINOFd7Z8RN30Qf4wL1jr7JtW8j3bmNh9Jhl/W5QN/N5gLjiCjPDZQb+ecC8RLetdyijgW9yZnzmIK0J7qvpQ5gwBObEcCSlM8++0z2E+G5XcdyUcfQ5DfjKUVJBhomgwcPzqZJg5tplvLNnj3bP1N0wbZOly5dZB8tNozt8s7yH220Tp06ifYFzigKAtoRNHvQ0IvFYmLTCq0atOVIJ7ZFP/30U1n2lLiag74Il9vWQDAGhgnHhjvuQw891Nx///3iWhstwJJOen2kYgwVnKVEsOuuu+rkupCAcAZBDEubWJ9IZ41xu//+97/OA2RF2dbQnrCEAm8DqTYmCg899FCkyZJScAQnDgycVECjKEpRgr7nvvvuEwEKfdYHH3zgX1GUogOekPjgxbIaCyYrEBAsWLAg0nKjMDCmQ5DKlm5+gqATYS2/s8vdU8FvWJZ44YUXinCcODDBMXnyZPmPseQvv/zStG/fPh53ojCU+Oy1ZONN0sC1VB+luR9jHX6TTMBOvmOoGc+WVatWFVMFLIUlfSg/YNv1hBNOSHp/5ts8X8eOHSUOO3b+7rvvZInfSSedJMu3EOKkS2NJoBRqNP5+iYJ1d1QAbIeceOKJ4nHF9UuLEh7ynhfSuiTm6ybCmZtvvtk8+eST8qLSMNx+++3i/UYntUphBqv1fMGhowoLXx9GjhzpHymFGYTFCNkAe10YgFYURSkIcMXLxBRDnd9884181c4N7MvwlRutg1122SWuSZ4KxsrYYGKMFkYL7cMPPzTdunUTwTYGXs844wz/SmrQmMb+DJM2nim3ySxgq4Mv77THfMjDnbiFj3zYQGL8WLt2bdHuyRS0JLFHgyZSWC0yhPd2LMAkM1MIQ3nwwdgaVFVSM3fuXPHuGtQEw0sSwhvqxLYGDRGMSjONprysjbpEqA8IMPiwg1AC7ZDctNMIg8ADWyy2LjHe4J3nvSBe6+gBoU3wXSEsdmqANAXrEtcQiPBeM8fCSU4i2Ff5/vvv5X2kjUg1zuG5Z86cKdp43A8QwDCvy63e80zMARGokSZWftB+kTfMxW1+8e4GBXElCgQ0JRHWo5ctW1bWuF1++eVOa20VdxJt0LDW+oorrpBzbF5HGrvjjjtkPbOiFHZYJ+x1MLImN8xGPT/zzDP9uyiFnXvuuSfeRo0bN84/qyiKkv+kskGTGz169Ii3Y9OnT/fPboVx16hRo2IHH3xw3B4G2z777CO/x8bN22+/LXYBX3nllWy2cr755hs5f9JJJ0kY+rhu3brJObYXXnjB/+VWsLdz7733xnbaaad4XNWqVYvdfvvtYr9j3bp18fDYuwiSaIPmr7/+ir3//vti283ei428+uijj9LaNCLs0KFDY/Xq1YuH8yaIsWOOOSa2ePFimSfYdLz33nt+qK1w71dffTWbjZTddtst1rdv35S2nMjrsWPHxo466qhsee1NrOVewbxVckK+tm3bNp5vbFWqVInNnj1b53VKkabEatBMmDBB3OCCN+gWeydK/sE6UiSkSFpxB/nEE0+YRx55RDRnkDDzpRo7NKo5oxQF8NjBV5yw3udQe0UVNIp9DCX/eO6550T1GPhK17NnT9lXFEXJb1w0aIA2jLYMhgwZIn1QkLvuukvGxYzHEmF8htYCXprQ/MReBnYo7FKIBx54wPTt21f2k3HIIYeIxqmFL/0XXXRR/It/kFKlSondjQsuuCCeRuyP4MrXEtSgQTMITQLSw9d/9nkGvtADaTzzzDNlvJmoMY9GAtrauApGgycR7GLceeed4g0Lzj//fPP888/LvgWNb5aQ/fHHH6K5gPYB6UIT5+STT87hlQetgzvuuEPKgt8Amgfss1QEsDny4osvZnPBXFhBK8LmtSXRg1wyj3KJ537//fccXpUSf4OWhy0n8vjZZ5+VfLeg+fTaa6+ZY4891smWkqIUOCKmKYFgVZ7HZ3v55Zf9s0p+4XVckvdt2rSJnXvuuXFL6DvssEPsmWeeUcm3oiiFDm/AF+83kn0JVhRFyS9cNWj69OkTb8cGDhzon83i0UcfjY/HdtxxR9FsXrhwoWgqvPTSS7HGjRvLda7xmy5dumTz1IUGSs+ePWMdOnSQ6/yWfc6x3XLLLf4vY7FFixZl80jDvT///HPRmsGTzKmnniqapmXKlIn/ZvDgwX7oLIIaNFYz9YgjjojNnDlT0oVX0+uvvz5+D66j0RIELZbzzjsvHkelSpVizz//vHjCIl+vu+66+Hn7m/PPP98PnQVebEqXLi3X8JKzZs0a8SD2448/xs4444ykGjd4wCE9hMG7z6xZsyTNc+fOzabl1KtXL2dvYskYOXJk7O67745v11xzjXjrsRvx4YmHsrUbdQ2vO3bbfffdRWs4uFEnEjc0kIIb5ZC4Me4PbmgSJW7kbXCjXtnytpvNL7uRRrSvFKUoUmIFNMHlNHQoSv5So0YNyXvbILNfsWLFWL9+/fK0I1IURckrPvnkk3i/cfPNN/tnFUVR8h8XAQ0fv04++eR4OzZs2DD/SpYL48qVK8v5ChUqyLXEZeb8JrikJFFAY/nggw/kOpPrVG62EQYx2eY3Z511Vg732qQVoRC/sfGlE9CwIUxJlh7a7urVq8tv6tSpI0tgLHPmzBFhAtf2228/ERwlwu/33HPPeDyJApqPP/44fg2BUBCeI3Fc+9lnn8mSLp69d+/eOdz4b968OXbiiSfK/UjbjBkz/CvRIB8QlNi0FueNcsaEgqIURUqsFyeMGlkwHqYUDKgosnkdhnn44YfNFVdc4ezWUlEUZVtCO2WxXgAVRVGKChjeDLZd++yzj79nzJgxY2TpCLDMCa842yUY1mV5OsuiMMYaFYwHs5SHpVks9WH5VJBSpUrJkiRc8GZC69atZWnWjkk8z7D8Cde/gHFVDMxa7PJ6YPlXsuVEzZo1kyVQqahXr56/Z8RLDXlp4TkSx7Usw2IpE/OP6667LocXIJb02LIgbZRHXrBy5UpZkl0S6NGjR446pShFhRJrgwbbJ1OnTpV91i+qN478hbW5QR/55cuXl841nXCmdOnS5phjjpFOUoU4ioUBHgNO1j4zaNyhELrMZyBm63tRWEuuJGf8+PHiWhKYOLDGXVEUpSBwsUGDu17suuDNaf/99xdvTpbbbrtNBCWMxxgfI4xJBgIDbDjOmDEjhw0aSyZenBB4YzcEuzTYfgkKwINg7+uss86S/XQ2aHJrk0eNGmUOP/xwifPBBx8UO4fQokULM2fOHNnHs2tQ2BJk+vTpcYFWMhs0CATef//9uB2WAw44QPIAARPecoJjk3bt2plx48aJjRnyqkyZMmbatGlSPgMHDpS0MubFpTTp69Wrl3iKjAp28i699FLJLwtxJ46bKM+gcA4BUuK4O+g5CHC5nPibGjVq+HtZJB5D4jls8yXWhcTfIHghTeQ1bqfPO++8uJCN56G+YWsoMY1K4Qf7URMnTjQ///yzlLu1F5sX4MEKD1XQpk2blJ63CgWiR1MCwUI8j8/Gelclf/Feunj+h9lYDsXaXkWxrFq1SryCsX49qLZcmMCzRf369WVTii54brJtkXrfUhSlIHFZ4hT0bnTbbbf5Z7O46qqr5Dzj4wULFvhnc8ISIuupKMoSJ5uOI4880j+TnKDtr3RLnHJrk7Frg4cffhu0hROcDyR7FgvjC/u7xCVOgB0alivZ39iN8sHbVZAmTZrINZaLPfHEEzFvEipLsFjOVa5cOfGChT2epUuXii2bvGTjxo2xFStWxDfG1GvXrs228RvmRnZjyRXpCG6FAbyNsZTJ5jW2afDMm7hkbFvDcsBkS+PyAzx9pau3LqxevTrP75kpGzZsEJtM2CfCg1pegrc47stGG1WYKZFLnFhSs27dOtlHSou0tiDAajwW4fmakcnmdXJ+yKLPlVdeKV8U+DIQZuNLRDIJvFL0ufvuu5PWezSm+CrGlx/7ZSoIGjR89eJLWqLl/8IC6SJ9bGHwOkj5WpiYJ127djXXX3+9qJoHNdEURVEUJRE8Bt1yyy1xD0repDaHRobVNuC3aNikwps7yFfuqFitDZbzsPQqFYkefFJBf5kOb9IpnoYg6DkxOKbkC3sqcksHGrx4XOILPR6f0FBijrFq1Spz4403ZltaZJeIoUXD0ivMLqAtc/PNN5vZs2ebt99+W7ST0OZBIyQvqVixoiytshvPv/POO2fb+A1zI7vxHKQjuBUk1EG0jdBQWrFihZyjPjGnYplb4pKxbckff/xhrr76avPqq69KusLA+A6tLP6z9M4F6jTPbJfERYX3n/RYz2L5DXnIPJ1xM//zEuYQ3JeNuUOhxsuIEgdSbh6dDSvfBcX06dNFsm7TktvmNfh+yKKP99LFVq5cGVu+fHmoraAkusq2J2i4MNnWtGnT2Ouvv+7/eivUC7wreAOG2LRp0/yzhYvhw4fHnyMMfEkIeo5I3Pg6yZc3vgwq256gBg2eQhRFUQqKTDVoMOyLpos3aY23X95kMvb333/7v8gCj6b0KVz3Jmj+2ZyMHTs2bmg2igaNTT8OIr7++mv/bHbQ3ggaAU6nQYOBY778p4Kv8fzOGkC2nH322fH7Y/w9MV+AMavVMGJLpkGTCF6gyEcbZsKECf6VWOziiy+On8erFGMXnlXJDPKyUaNG8TxEc+bSSy8VTZ/8ZsyYMVKHGYuFNUrcokULST9a4IxlXSBO4sYj7p9//umfdQdPugW5WoH3pn379pIveT3OwmuZrTNDhgzxzxZOSqQGTVAqWJC2Z1g3jNT11ltvjW8dO3aUa6QLSXrw2sEHHyzXigOsU+X5+YoTZktm/M2VoCRVKTywjt7WedZ5Y/ODcuerFAb8FixY4P+yZHHKKafE8wWtItoDvmphF+WEE07ItqZc2fYU6rXLiqKUGNBmoV9E88Ju3377rdh+Ofnkk+UL/dChQ+VLP30pdmaw6YKNkyD8rnLlyrKPdub//ve/uLY5MFbivnxdzwtDsyeddJLYOUEDoGfPnmLjJTge40s+mihom2cCWjjYq+D5g/dBGwj7Op988okcY1unefPmsg8XXHBBXCPkySeflGcPzhOwbfLZZ5+ZAQMG+GdyQn589NFH2bQYyEs0xYG8rlKliuwDfbbV3n/ppZckvC0PxqbeZN18/fXXhf8rfwFAXcfez8KFC+WYOoR2PYaUGRPlN++++67UYTR6CnJ8+uabb4otpyhgiwnt7LzWXFEc8AU1OfAahUiSOMJyDxcIF2X9YG5x466OR2fD138Q+9xeA+mfCQfhWZvpGv6mm26SdHXq1CmpFD83CBOl3JA+R3l217iJk7AuzwyE5wtHmLTzValbt26x0047Tb5cRFlTG6XMvQ497Xrv3EDqjgTdJX7yjPXGpMEFyow10q5gP8Z+NbIaNIlrTkkbX+DsOxtcO457TFcNGjTpkNS75hvhWaedCck0aLyBb+ynn37yj5IT1KDxBof+2az3fNasWXKOr4Z8Pbr99tv9q7mDO9ModW7u3LnOX6oIR965vuvkG5sLxMkXVte08+XYlqOLDRpvQJnDlWym8JWaNe7p+rZ08NxsLvWdfEPj0dVlKWnmS7crpNs13yyuZQ5R+iYgvGv/EHVMQlvF5kqUfCPPXOPmeXlu1/oOUcqN+Em7a/y23Fwh7tzSbjVQSpUqJa6Y0QyxG7ZMbFtlN2ygDRw4MLZp0yb/Dtkhvscffzz+e76iH3jggbFLLrkkdu2118p4CfuBO+20U9xldaIGjc23999/X66n06BZvHhxbO+9947Hxz2xvYJtnMsuuyxuh6JZs2bx36TToLG2ZNCMP+6442IXXnihaLrsv//+cc0g+ktswgXhudGiIR/5Tfny5eW5GGtcffXVsa5du0o/XLduXbnOFtSg4XmvvPJK0So65JBDYs8++2xsxIgRsaeeeko0f/n9AQcc4P86C/KsT58+8fvVrFlT7AORjtNPPz3WvHlzKdO33nrLD5EexklLlixxru+07VHGcqwIcB1DUx/TaT4FYdzepk2beL6x9ezZU+J3fVfRFCF+l/Dk96677hpPC/OJMETVoCHdlDsaNNwHV/CM6TNl/vz5/l5M7mPTw5abBg1jAuJy6ZvIN+wfJRvLZaJBwztH2vkfhqAGTf/+/f2z4QnmW1gYy2QyZ0upQYM00BtE+0fhwV4E0mwXkCQHXeCFBTsPQSl2IkjlLXgTCsIXBuxZeI2nfyYc3Btpv5e3/plweA2E/HcNjz2KKOWG5X7vxfGPwuG9VBK3V+n8M+Eg34Nfa8LgvaTyxSFMuVE/P/jgA/Ppp59KuUXRQKC+egNZ/yg8uGF0ha8ufEFwuQf1jLxzrW/gWt5AfUebKh14lMAiv9fxyLH9mkY9jbIO2n5pcck3wuSW7nTY/E78ghkGvsbh1axDhw5SBnzZzBTSHiXuqOGjhKXco9Y51zbONZyF+upab1hfHyXfbBvh+q4Tt2vaidObrPpH4SHttFOuUG4zZ870j8JD3xKlb6JfdB1TYPeCvtG13LB/EcVOFe2Ka96jucBY0AWel7aeMZkr5BtpcIH6SrmlG0umg/KO8jWdZ8/U9gp5xfiDtNqNdo53lv6zevXqonVJWXoTyJSebfg99lD69u0rHnl4byZMmGCeeuop8Xr08ccfy3k8RqHRnAxb3zMZD6EpjmaPNzmVtpGywkU1mjt44MHDFN55SE8m0B9iZ4d3Fc9Izz77rHnhhRfkuckPbyIttl3oM4Pw3I8//rhosKNhRNmRLrR3+vXrJ1oJrVq1kvslg3bxwAMPlLzG+xKavnhnuuSSS8SmDTZebr/9dv/XWRAP9+vTp4/Ye/Em2mIfCDsmeHFiTMl9Oc4E2kjsrri2E8A9XCGtUcJn0rcyTsdTFx5+LHjkJW/RVnJ9djuecxkL4smLdsYyaNCgUGOxqCSOoWfNmiXaRZn0t4S1dqDIO95z680sExhDU+Yu+W7z3LXOEKdrmVmi1Nco4xnSnkl9T+lmmwEwDa2roSU6VTLPZUBJwhHSWPW/sBCWxj5V5o8ZM8a0b99e9nFd9/LLL8s+UGF5btfBMOHZXCeOLGvCWCqN+xdffBE6DaSdsnMtNzr2VJ13bthBnH3hw0J4+9KGhWrMC0Pcmb50dP64WaNhR6hHmdFpuhAl35QsWMLD4IlBFgPBRKxL0Ysvvlg6EgsG4lBX5r2n49577739K4UH3EB27txZ9lM0uUlBiLjbbrvJwAT1agzgJYKrUAaRuPQMDlyUvIfBt12Gilr8c889J/tK4SdKG03fQr/i2jfRt7kORhkP0ae7jikYi4XpFxOJmm/06a5jgqhpJ37GUC5jOfKcvCd+l0kA5U76XZdc0J9RZ9LVOZY0JDMsatOOsVeMwDZr1izUcn6W9/Cxjv6EZRv0P9yL5cYYFubDJn01ApX69etLn23Taes7YyqWBVF2uLZu2rSpXE8G9xk5cqT0kwh3qOsYzMUgPkt5+XjGeBiIq1GjRrIPfExmSRJ9Jc9JXKSZD29MNjmPQV4ELFzjN+kYPny4CGQQLJIP9L/MF1iSRH3C5TfwwYhxehCEasOGDZNxCumi7tjftW7d2v9VdsgrJvSEYxk3Hzp531hu9p///KdYmTaIAnWAZXmjR4/2zxgpTwQkBWWqgveCciJtjEGtcANh6COPPJJRu4VwkiV5/KeOpxJ8pgOBJO8Fy92BeJ955hkxEZBp28XyPIS3tPcW2paCcMqCYBpHGJT1EUccIcLSvAJjyjfddJPs027wXhdavMa0xGGNl7EluhksaMIscfI6YVHJYwsLYQifjHTXUuGSDpcwkC5tYe7pDT4kr1F59Tpx/+y2gTSnSjfnSXPYPC9upFriBKhCc83rbGS5UJBMlzjZfA5T5/IqTF4YCQ4ucQqCGjfXUa3OjXR1zKY73W+CZPI7fpPp/aKSKh7Ohy3DVHzyySfxcsSYpKIoiqIo25ZTTjkl3veysQSMJTkFybvvvitLCRmXYrSY5UWkjWVtmaYtL40EB/OHJXOZzmtYJhUMazc1ElywuH2WUAoUpPhI+K0R1YsuukgMmyVzD7hy5UpR9URN1ZuoiPrbfffdJ6qXqLIiQeQ8eJNbMR6HeuZ1111nxo4dK+eDeA2BqIK+9dZbcoxrQOImDahq3nvvvfL1IhV8UUKN08ZDOh566KGkaUflE6kuGk98DULt9L333hNV26DaMumfMWOGeeCBByQd5Mljjz0mqt18PSGv+CpiJcN8sSBP+BoO3sRNvrZwLiiptXlHWPI8CCqNpA0jbsFrxMe9bBjuzZchtBxITxDU5tEEueKKKyTNN9xwQ55KiosqfJXAWKDd0KZBu4avapTvYYcd5v8yM/iSNXjwYHFzST6jgfP000/LV4tUUHYYFESjjTBsGBlMp6Fiw6BibePhK4ZdkrUt4Csf6uaAG/ogfL2k/lLfYcSIEaIKnKjyz9cK0kl7QLoxEIeaefBLioV3jfpMXlKnUUWnfHivgxAn7wd5we9oF1hOyFfhIDaNicsgeG/4epLsGl8nOc8XWkAVnHf//fffl2MLaeIc7xXPRVuDC1TrktOF4DIVNO8URVEURdm2BMcBuC9HewztpoKCMQrjEP6jtY2GGIau0VhhzIeGfkHC/AkNo9yW5rIUkXE1oO0XNGStFDC+oKZEUZQ1aLwJQuzUU08V4232Gdi22247cbWYaPjTa0Dkt3xd5ys+RtSQ9tpw22+/fezRRx8VQ2T2S73d0EhINKbmTWolLu5DGO9llmMbhnvjbg4XjsnA2ByG1ILxEKZ27drZXBCCN8ETI2leIyOGZHFXSHoxGLds2TL/V1ku4Uh78LlI0x577CHG6Ugr+9aoE4ZZyRPuZX/PPucwomfxJqlyDld+GLMNMmjQIEkbxsq8Ca9/NssANZJrjNRhSLVXr16Sj6QNA6EWygWDeMG8YyO+3r17RzKSXVSxGjTkCXXEbuQJ5zGeR/1PJJ0GjddRZjMQaDfioM59+umn/i+38ttvv4mBQRtvcMNN6f333+//ciuEwYBiYhjiqVOnTuyll16KnwtDOg2a7777LrbPPvtI3SKf0O4IQj0kPXzJ4b2z9TD4lQajtxhETKyH5JfXafu/2gpaI9wn+FviwP2ohbpLHQ7mBfFyzwceeMD/VRbkDb8jf4JgmBSDiVzD4GIQjPNyHgNvGIzk2bn/vffe6/8iJsabDz744KTl7g3qnL9UPffcc/F7vf322/5ZRVEURVG2FQ8//LBoq+y1117Zxv8FBYaNd955ZxkL3HrrrXIOrXxrPJtxZybktQYN92GMwz7bjTfemFZ7+Mknn4yP/zB0jWaSDZuJBg3aN6NHj46NGjUqtMbNH3/8IXNKwk6dOtU/G16Dhni5Bxv3S0dR0qBRAU0RE9Bg2Z7JSZMmTWJPP/20TLCYpCCAIRzCiKCQxj4rlvexdH/kkUfGHnvssdhDDz0Ub1wQNHA/rnHPu+66S4Q9XOvYsWM2K9lUfs6z7bLLLmLpnkkLwpT77rsvbm0fK//jx4/3Q2VN2rC0zrVWrVrFHnnkEXmZ3nvvPVnSwnmEKEFBCGnnWTmPkIalSKSR9DEBA56dsEzE8MjFpO3jjz+OPfHEE5InpINrCEzmzZsnYRD2XHzxxbETTzxRwjLhPO+88+QcjZkFARTXEdpgrTwIk2XShheFoIAGS/LkK+VAGdp0cW/rsYeJNEIsJt6cHzp0aOzrr7+O3XDDDdK4Ewbr/yUNK6Dh+ckfu3GODeHI5ZdfHvvxxx/9EFmkEtBQzraRR8h2xx13SN6/+OKLcp7OnriGDRvmh8iCODiP8PH666+XOkZdwLsE7wqdGe8QS2csffv2lTDUtzPOOEM8WFCmL7zwgghRCGefIwxBAQ3vJO8pG+8y9Y/zxIuHDYQaQez7jUcI4uddvuCCC/yrWZ6YGjZsKL9B+PXFF1/IO3nPPffEvVXQYdOJgl1mRnwITfAohFCVuLmXZebMmVKPyQs8glDvEQ6jopzYedKGcE/KJAjP0qFDB7lGmxSE/OX8scceK3nCgI1zQWEyZYXQhkHSK6+8IgMIypBjwjIowoNAWB588EEJzzZy5Ej/rKIoiqIo25J169ZF8raal9i5GhvjJmBewjjLnp88ebKcT0deC2jwusZYjTEvx4zlxowZ4/8yO4zLqlatKr9jedbSpUslHRyzpRK4MLZmbNe4ceP4ONRurVu3FqEPY9dUIIw599xz5SNiMGy9evVi1113nXgozU1AwxiRj2Tkd/CjIeNz0sAYPdmHbhXQFHIYyNsCYmJemEgnoGEiyaQSYQtfz4MTRIQEvJiEZaJvrwWFUVTk4AsXnGwwobFCD2Ayy3le2qBLxqCABoFLcI0jcfK13r50uBW0jSlCCF5kGo1ELR/uj9CGMLy0Fiug4YVjssV6TzQVLDQAuGEkHNoLwWtA2shHrgcFNJbcbNBEEdCQ3goVKkiZJWp9IGzivnfeeWc24RdSbgSGXKORDJZvScAKaA477DDpKOw2btw40ZrgGluPHj2y1clUApr//e9/8XKg3gbzE6EBwj7uR92x5UDHYTschAbB8qFDQEDKNdYY23Kls0KLg/O8v4kDCAQZQfecYQgKaJJtCF7oiP5M4s7VCmgQciGk4P0O5gGCI67z7icKd9CAIz9xH4krc/jyyy/jcQbfF+pt8L4Ijcl34p8yZYp/NutrSSJRBDSUE0IaBifBckKgRpuBhlRQaw14FgYVCJkQnoUFYRRxsxWGr3iKoiiKouQfCIrsmA8t+qCGCmMZO0ZgjJlsbBZkWwhogHET80XOoVHDb4IwBrZzRj5GMneB3AQ03Ie5nR0nJ9uIl/lm4rwJ0GpnPhb8PR+0raCIsMy5ENZwnEpAg9ZS8MMnv7djXjbGeHxwT5xHqw2aQo43ePf3ortNzU+wV8J6x3PPPVfsTbDPWsd3331X7JhgDwaL29hBwR5GIth9CVrk3muvvfw9Y8455xxx9Wdp0KCBv5caPMp4k0f/KMttGmtCsWdBHpMeLPJ79UzswHiTKPECgNV/b0InNiSwKXPppZea+fPny72w7eJN5Pw7boVnx3UcbgwtrK3E/oTXUIqNieA14H7YAfEaEv9M/kFeXHnlleK5x2tE/LNZ62ix1g9nn322eD7wJvhm3LhxYlmcdbXkHXngTc7ldyUNytNrbOOb1/GY1157Tbyt4Z0MS/fYS0oH9Yu6Rd3DLSMW9ikTC25HsVgP2GeibsIbb7wh+6wp7t27dzYPGqSLdw/wtuBN/mUfu0HYVuG33gQ+h7cV3iXevajgNcjrdGXDdSj54HWW4jEgXR0//vjj5V3l/bZ5gPtX8pC6yf14Np4bLwDYqOJ947c8k62HeL8g3zZv3iweNnARyu8JF8xbr5MUTwSkjfeS3xFXYr5EBe8kDz/8sPE692zlhF0cyh9bOg0bNpT0zZ49W9xfYhOHtdm0g2Ft0VCXbF7wLDynoiiKoiglB9ygM+ZjHIDX3eCckrGW9TI2c+bM+Dgxv8E9/RlnnCH7zDsYD5FmYN7LuI+xL2NH5h6tWrWSa+lgXsl9sK/DuIqxOTYImYsyLmQfd/OMlbAdyjgyCHM2vI1au4x4hCMNjBW5xjiNNDM2Y+6YDMZ2jH8ZUxMn41vmj8wdsa/IXBPX6zzjo48+KjZPiypqJLgIgcADmPBR6TBIdeihh0qDgHFSjGBiMJQGI5mbbV6cVODCOCxM0pKBsSw74ePF42Vd47uCrFmzpqQdo6+knZeRF5mXnrTT8CVO5JgUduvWzT/aCo0FbhD5PZO1ZOCuMNh45hdMhrt06eIfbcU2OripZFKLEVqEVscee6w0Jhg/s+4mg8IvxYi7SSbWlHmqxtuCMdeffvpJ9o888kj5n0jjxo3lP3WTRh8wQAt0IsnAZabFGq2zaWHCnspwLELJqBxyyCFizI2NzhcDcEHhXypwV5gowKFDg1q1aklbcf/995t27dqJq0YMAFetWlXcqFIPbduA0OXVV18VISx5i2CV3yPoonO1IBTBgDlgMBwhKWVAOjZu3Cjn8wJc5NuBUBDr6pJ3CYPddODkFYI63JnyfLQ1V111lfwuU2hvaM+Adqwg2hVFURRFUQoGxpbWmQeCAFyhB2FMxtwMcAyC0KIgYMyHgMSOZQcMGCDOS4CPl3fddZfs87HfGgnODYQg1hkD8xaejTEgYyHmfOwTD27PEdr069cvmzMOPoAGx+V8eGUcZ+FDKm7T7fgxGaQBV9nAnIAxaXAuiltulASAssJ5TVGlRI4wGVxb+JJcVLBCF7wfHX300SKdRYKJtxQmSHiZ4St3KivcvECpCH6BzpRkmi7AS8Fkxn6BBwQlgAco0s4X9datW4u3GJ6DFxKtBYQxwa/xwGQx2dd3fkfDgKTUTpwSQcJqJ995yfr166UBSgXp3WmnnfyjrdgyRCjQpEkT079/fykvPM3Q8NCAdezYUSbBpUuXlt8qWSD9p6wR+OU2Oea6rXt440qG1YagnGyds1oRSOKTQblbbPlarTSEDwiPkoGWVEHBO5WIfc7FixeL4AVPanToffv2lUEFXyH4uoEwOCjc4d1FawavSQhYaQPo7NHusZDvHHNvvnIgGOb56czRYMlEa5Hf8D6kg3xPVg9sO0fnjSAYAdpRRx0lXqxIE89Ih57s/UwHbZqtF2jtJLZTiqIoiqIUX/hQzocrQBMEoQTChuCGd0rG78wR8JSbyZhnW8AYBw+afDhkXtarVy9JGx+p+IDOBzqENnZ+lhuMCxGwMCZEISCZFjEfzazmDvMvPpIBeTB16lTZZ4z2xBNPJP2gyRyJ1QXMgZLBaoPly5fLOBPNH/shm7xmzIhnLcazwPiQuWFRmucHKZECmqBmQqLr48JM0L0wE3uWyqC2n0xTIz/ADW4yXnnlFXkZkSTzsvKSIDjiP+cQQpD2t956Sxq3ZNo+mYCWCpozTNxtI5AIy0BoiKKAQCDYwHJMI+Ai+GnZsmV8Qs8EF0k8accVcbKJtLIV6hUTZARauS3BY7mb1XZ55JFH4qqdFhpz+xUETQsrhOjevbv8ZzIflPxbECgCQkMEitChQwfpcOiM0IJKBOEEaShMIKCwnTLvKO8J7yTu9dHuSgfvHEu5gl9hPvjggxxL8viKgkCG+6K9AmgopRLsBmHQkJuWVCrQmLG8/vrrEv+LL74ogs8okG6WRwEDGxXQKIqiKErJgSXbCDuA+SNjJ8aSwW3ixInxD7jsM1YqKNC8/u9//yv7CCsQ0iBkYvyHhkuYeQdL+4E5WzqtcDuOhnnz5sl/5lBWewYtaz4MpoLxNB/BksG4kDkdwp1dd901Pv8jTjSlTzzxRBmns2SL5foIlTCVUBQpkQKaoDaGHXAXBVDJtxJLVNd42Ug/0kSEJTQMCA/yC76iI81EqwDtAV4cNGFIG9JNbGNYYRi2WJjU8jsmsWiQ8LKy1pDG67nnnkurkZIMGhY0iBCUoNLG0i7SgDYR9+WY+7pOpGgACItNH5ZGoB1BfjMpZZmWy31peFB/RFhFw41EmTzhvmgSobqXKEwoaVAvaFTtRifSvn17sTdCI49KadB+UirslwM6CJbh0LlQV8lrGnAm7ZQDy8ustg1aI6hZUiZnnXWWCBQQChGGjpi0UO4IAayAg04CQSPnSSPrY6mH1HEk97wHLKkpTND58a7ylWf69OmyFIn2hAEHnTfvk13CZeE8bRDPxruKUMt2sgh1rOYez4xghHvZ39kliIn2YuwSLQRi5DNCHt41lkVRNi6wbNDa00Ld1pY5z0MbyZpnFxgUWCEUX3dc06coiqLkDUyWGe9F/RCnKLmBBq61q8IHQDRzU23WpARjIOZKBVU/GW9hlw/tZ8aodkk/494TTjjB/1Vm2Pkl97GayskIftC2+4QNO8dLhr0HH8wee+wxWYnB+JsPceQxy/8ZtzOu5UMi5ZAurYUaL9NKJDsHrD0HPcIUNOm8OMGHH34oXpz4Dc+A9yM8yniTILF8/WeCxfCgF6dEvMlv/Jo3OfPPZuFNsOR8Oi9O7dq1Ew85bdu2jXmTZnGHjQVur0GIXXrppTm8Kn388cdx992kHWvhzZo1E28xeH6yVsQt1osTz+dN2v2z2cGdnPXkxEYaSA/33WmnnWLehFvu7+LFyZvQixcbfkOed+7cObb33nuLhxpcdHPfVF6c+H3Qr38QPF119F3xeRNU8SpDOdo6ee+99/q/LFlYL06pNupV165dxStSkFRenGDgwIFioZ56iZV36gZ5Tb3i9+ecc45Y5A/y1VdfybtEnJQjrpltGM7xbiZa2+e94Ddc9zoDKVO8JNWpU0fSdv7558efIwwbAl6c8BwWBlufRowY4Z/JzsaNG2Pdu3eX3/BsvCO8k7Vr1xYvSFdffbX/yyxwYU/d5x3D8xNlQd7yvM8//7z/q5i40Ce/cX/Ne8LvbFrwcOANDvxfZrk05zxlQT7jWpE8xyPBwQcfLNfwRhDEenG66KKL/DM5IT2ki9/R5lA2DRo0kDrUvHlz/1fhwAMU+cI9cfWvKIqiFBz0j6eeeqqM9y6++OJsnkgVJa/BMyj9P9u3337rn00O40rGUvy2YsWK4j04GdvKi1MiM2fOjHsTZay1dOlS/0p20nlxevTRR+U848V049Fnn302fg88KQFzUzz/co6xGa60U4GnJ5t3iV6cuLcdh7HxO+abn3zySVKvUYmoF6ciAF+9LUG7EgUNGifeS5RS7QxDm2hesM6Rr9+suePLN4Z5WdMX/DoNSA65H1siqKnZa4lfg1kiwnlrzDYZTz75pPEmcfJlHWklmissPUEzAU2CRK9KSDnR9MGIE/Hx1QNpLl+jMVKK5kIQvq7zhT6dQU6WUaDexhd30koa0JQgLHHh3YrnYElCYt54jYxcI45k98dGDCpy3JevNOQ7dQUNCZaCUIe4FgzLPdEWID72k8Hzfv3116Lh4U1GJc2UozdJFYNWrO0siaBdYetjcKNuo81COaNtlbi8ifeAPKccE/MczZm3335blpNhQwSvX2iccV+WTL300kui2RUElVC0LIiT+1G/0RohDuo864+t5oiFuouGjfVshjaIDcOaX+5lnycMvHvcg3BW2yRTbLhUSwjRMhk8eLDUZ5Y5sRSLd5KvKzxHonE1PFhhkI10YMgaWzTs33nnneIFzsK7yJcN2iU0zdCyI0+IB89YwfYEezAYJ6adomzY0E4aNWqUfBkh/YnroykvzluNnWTgPYp8pyz54sL7hQYcBunQqnMBLSPyhvqWF0afFUVRFDcYi2HrAs+X9BssPUFTQDVplG0Bmt0s5QbGFbk5VmGcgg08YGxV0FrUaPygNU26mNe4LPvBrh/zOt4x6/E0EcZ9jJOBudHJJ58s+4ylreY7qwQYTyZbLcA9GaOlsh3JPRhPAnMBNLaZ+6IhxLwLgho8RRpfUFPisF+O2dCkKGrwFRrp5nfffRf78ccfY15F969sW4IaNFYjBe0Tr4OMzZ8/P/bHH3/IudzwJoLyRTpMmNwgP9B68V7YmPeS+2ejw329CanUk1SaPK54gwyRFlOOiVpMSt7hTdJjq1evlnxGAyfTOkd5U0ep614n659NTTCeVF8oCiNouy1cuDCjekhbw7PxDm/evNk/mxPeQX63bNmytO0TGnp8jfr6668ln5NpDrrCvfiqwnPxdSpRwzAMZ511lrR7aPuk0kpSFEVRti1ozniTX9GItONRNo7RrFRNGiWvQQNmxx13FO2Nfv36+WfTM2XKFNHkp242adIk9vvvv/tXtpJfGjQWVmGkmx+l06BhrHbCCSfINd41NGJYNcB8lHsyp2NujQY1vznvvPP8kFkwlq5WrVr8/mhijxs3zr+apeVz5ZVXyhjL/iZRg4Y0HHnkkfHrxxxzTGz48OEyFmVcz1jviiuuiH322Wd+iOwUJQ2aEiug6du3b7yQWEqjZEYyAY0SDSbHCLhcodFjshxcOpIpdBg0qq7CIcInLisKAw2ya9w01OPHj/ePwoNgbNWqVf5ROOiMEIwyUHQBQQ6dMcILFxA80BGlE5CkA6EqwkxXGHi4xm0Fy67CEsqNZYIu0IFT313KjaVRtHtly5aVNLgwY8aMHIOeTOFdo82l7riAoIr67hKeskLw7Sqg5n0ZM2ZM2oFhOmjjXAeviqIUH+i7WGZsx6GJG8twWbrsIuinf+BjnCuMCVzbKdpY+uTEJdeZwniIj0+ubSzjMNd+DYYNG+b8sZVxULolL7lh+0bXjzuYSqDsUvWNjK0RBFC/WIIdHDvZMUWyfp2PesG6+sQTT/hXtmLHFa4CGsZS9I+ZCmiCUOcmT57sH2WRTkAD5FP16tXjv2HDFERtf2m8PcdSeNKVSFBoZbfy5cvLuIp93l+WhNll8YkCGkAAS3z8Nnif4Mby+2Rzi6CA5qmnnvLPhifKRzrKmXc1t7FYyiVOLLtI5sUkU1gOwj1cwCirdWPmAgaCvAzwj5KD/3qLV+H8PWO8ybK4gHZd9sTSBm8Q7h+Fx2tozNixY8UjjAvexEWe3xWWBbiCSpr3QiL0889kDksHqG+5lVsqyC/UXCk/FzAiypINVzBySr11ATVAlkq54jVkstwjuHQkU1hWxVKYxGUkmUL44HLBsLBEjeUtLrB0JzdvTulA1RM3hC71lTJDzTLV8qHcoKyIO90ynXQQnjqTuGwvU0i3a9zAskPXciPfqHMsFXKBZYGuHs9Qs0W1N2zaWfrlDcJkHzXasEvVLORb2KVqFtIepcxQTabOUXfDQhjynfAuEJ5ldK71lTxP5pIzU7yBaKQxBcbcg+OEMKDGTfgNCV7OMgVj2xjO9iYC/plwoAJO3+gKSzdd8SZ8MiZwwRu8iuF8b+LpnwkPz83SBBfsmMK1X8fQPEu/XWE8wnjSBeJmGbUr3mRZys6lbyTfGAN7kzv/TDhIO/U9GVy76KKL0j4bacZIPcvvWVoSBsYzzZo184/CQxtpl1+EhTaSZd6u/Sr9A22kS/sOhCd+Vxo3bpzNAUsYGMMmLhsPA2lPNDcQBsaCpCFVeOozniWBZT70ZRb6NNKerG/kXND77tNPP52jPXEZtwfBZIJrnSHusON3fk+7xlJ2W9dZQs78j3kceYHXKEwS4C00EZau48EX76kW5r30b7w/hGU5WLp0sTyfORdL8e2yJgvPxLwAswK59R1RxhTWS6wL1DWeNbeyL+U1ZuFb4Az466+/5KVxJUr4v//+Wwb/6R5+4cKF8crDujzWrloYGBDW5WWngpKlrpMPIP4o4Xl+14FwbmGZpLRo0UL2582bJ41yYYA8J99cnztq+Kj1XVGUwgvexPDMAKwrx+6BUnKI2icTnvFEbgOyZNA3sblOPkpy38Z4DFzzriCJmu9RxoFR6isQ3nUMnaq+ImzB8wz2yfhNbhA/dtQef/xxHZspkeBdsh/NEUKF+TAXDAt8DA2+F3xUpp3iHB9RXPsI4uC9oZ9KtP8ZBpseQMCUKj3ERZy8j3y8IA3Yi7Rek9K9+/wWgQyCHYSt5BHz8bZt28oHLOJEaEM6aAdSfdQiHL9DgIZQGRAAtWrVSsooWRr4WGM/dnBf1zYyP9hmAprCDhoyfL1HIn/mmWeKsdDCXFCFBaSkuC4DXMdFkXq7gIYQRnRpJDFO2rJlS/+KohQeMIyL0JeOCreMrhoXSuHgxhtvFKPeMGTIkNDuKRVFURQ3EM6gOTNo0KD45BFNFxxOIIABvqqfc8455uWXX45rzjCmx1EEH2G5riiKUlQoep8V8ggm+A0bNpR9hA58rVByh6UJeL9hYz+/Qa3tk08+EW8+PXr0iKS6rSjbgjFjxojHsqFDh4rmxaRJk/wrSlGEJSosewUEbpStoiiKsu3hIyqaM0HhDEtF8UAY9KSD5gBLHj788MP40gu+sONRlOVOtOOKoihFhRIroEGybte44UYXtSclM8g7NhdVvKjgXrxDhw6iuoY77bPPPluWWilKYYC1swwSrQ0r6ipqm0rR5eeffxZ7DMCEwHWdvaIoipI52Ou48MILZRmFFc40b95cPn6w1D5xDMq4EBfI2PqwQhrCoVVz++23O9soVBRFyW9KrICGNan169eXfZbNuBoFVvIXtHYGDBgg6xwBY9THHXdcfP2hohQUo0ePNqeeemrcmCjLYDCGxtc+peiCgIY+Amy7oyiKomw7EM6cdNJJ5u23347bnKEvHThwoNiYSAVCG/rhd999N24EFE2ahx56SAyQYrNCURSlsFNiBTRI2q2RYIwd4TlJKRqg+YR6a5s2baQzRpPm3HPPjX/lVpT8Bs0ZBpMsl4ROnTqJ7ZkoXhGUwgHL1BjUozmjAhpFUZRtCx9ML7jgAjNs2DAZnwMGSL/66iuzzz775Kq9zXKnww8/3Dz77LNxz3fch6X52C5UIY2iKIWdEiugAVxt24b+nXfekf9K0QBNGr6QdOzYUY6x88HypyhuLRXFBWzOYGgcd7jQvXt3WS9fEDaalLyHdgYwMhnFtaKiKIqSHjRnWLqOMXYLLpRxnY2QJgwnnniiefXVV+OaNAhpHnzwQbFJg1aNoihKYaVEC2j23nvvuOtMfNxb11tK0QBNGibCe+21V1yTpnfv3vElJoqyrWFZEwYMbZ1Dc+aZZ56RAaVS9ME+mTXyXKNGDdO4cWPZVxRFUfKeBQsWmI8++iguQEHTnaXsBxxwQK6aM4lgK5El8P379zdVq1aVcwhpPvvsM7Ns2TI5VhRFKYyUaAENRsRYJgObNm0ykydPln2l6ICWAp0tE2OgDPGyYr2uKMq2AlfafOnbsGGDHGNzhq98KpwpPmD/wHL++eeL7TJFURRl24BABmEM1K1b17zxxhtxe5GudOvWzTz//PNxTRo+6mk/rShKYaZEC2jgrLPO8veMrG9Vih62E8dtOl9YMBjMxFk1aZRtBcuaDj30UNGwgMMOO0y+0tWpU0eOlaIPHj8++OAD2edLLN65FEVRlG0HQhS8NtHHzp49O0/sftF+s9wJO4XcFw2d8uXL+1cVRVEKHyVeQHPaaafFG2q0LnSZU9GkVq1aYuiZiTJCmhkzZpjjjz9eNWmUPAfNmV69esXbClSoMT5oVaiV4sHixYvj3puOPvpoaWMURVGUbUvZsmVNu3bt4q6y8woMBnNfRVGUwk6JF9DQAey///6y/91338WXKyhFD1ww4oJ7t912k+OpU6fKV++lS5fKsaJEZfz48TLAY508dO7cWepcvXr15FgpPqBRab1yYYBcURRFURRFUbY1JV5AA0y4rJFZVCqVogvriidMmCATZ8p0zpw54lUHjRpFiYL11mQ56qijzEsvvWR22mkn/4xSnHjxxRflP23KQQcdJPuKoiiKoiiKsi1RAY1H+/btTZkyZcS6O7ZMlKINmjSvvfZa3CXjt99+a04++WSzcOFCOVaUsLB8DqGf1ZxhyQuu+fEkphQ/MDxuhboYrMTjn6IoiqIoiqJsa1IKaP7991/z119/+Ufh+fPPP/09N6KExz1fLBbzj3IHI2SsTYWBAweKWjvP7wJCnih2bEh3lHwn7ijh8WblCvlO/GHyPgjhyT8XEusr3p1GjhwphlytdhTLnVJpSJHmKHUuStiffvpJtDNcmTdvXnwpRlg2b94sefPLL7/4Z8Kxfv16cTXtCl63XNNOeVPGriCww9VmbvWV50NzZsuWLXKMoOaRRx4x8+fPN2vWrJFzYaG+Yt8Eo4Uu8K5gXwlDti6Q59jScYX66trOrVu3Tt5D60Y1LNiGcc030ky+rV271j+TE+rVU089Fa8XGJLfbrusrpI6EMWYPPWd53eBd5Qyc20jqa9z5851Ck+eEJ62ygXCR2knqC/WILcrUfpl0u/ar0HYMUkQ2grXMgee2/VdgyhjAvrFgso3iPLsxBsl3whPvXElSn2F/BxDB6G+kvYoYznb17rAeMbVQQR59t577/lH4aFvcv0QSH7Rxv7888/+mXDQP0yfPt057/j4FEXTfOjQoc51jnEY5eYKeUbf6Pq+Um7UGZc6zzOTdtd+nTRH6RsZz7j2jbRPjOVc33XyjHEs72xYyDf69eXLl/tnwkEbw2oJ13aSMSRzJ1eGDRvm74WHfOPZc803r2CS4k08YlOnTvWPwvPNN9/EVqxY4R+Fw6voseHDh/tH4fEaqZj3wvpHueNlUuyKK66ghsp2yy23xDZs2OBfDceqVatiXkMR8146/0w4fv/999jEiRNjXiPrnwnH0qVLY14j6x+FZ/Dgwc5xU97fffed5GdYyC/STfpd8CaqsZkzZ8bWr1/vn8mC++27777xsm3atGlszpw5/tWteI1EzJt4+Ufh8V7WUHUuEdc8B6+RjXmdu38UHvLetb4SL3nvCs/tNbD+UXiihPU6iFzrqtdxxqpVqxavP8cdd1xs48aNco08i5LvhKXsXCDdpD8KUfIuSn0F4nZpJ4CwrmknTtKeLt+//fbbWPXq1aW8mzdvnuPd+PXXX/298ETJc4iSb0W5vuZFO/HRRx/5R+GZMmVKzBuE+0fhoE/3BtGRxhT0ba5lR7q9iZ9/FJ633nrLuey8iU/MG4j6R+Ggvk6aNCne3rpAuZEGl3eGfo3xTOKYIlMI500g/KPwMI50HQ9R10aOHOkfhYcy8ybNTvm2efNmCb927Vr/TDhI+9dff51RW/Paa6/F++YqVarEx85R2ooo9Y33JErfGGUsF7WNJXyUfMuLMUEUeHaX+gpR8h0I6zqGJs2bNm3yj8KTF32jK+Sb63MDYaPkW9Q6EyV8lHGgbSdyq6+l+OM1biUeJKAtW7YUKfYRRxxhhgwZYipUqOBfVYoyaAuccsopIin2XgjTpk0b8/rrr5smTZr4v1CUnHzzzTeiOWO/xuEhDG9NahC4ePPAAw+Ym266Sb4qPfzww+byyy/3ryiKoiiFBcZxaDgCWvBffPGFLElVFEUp6qgNGh/slXTs2FH2UfNzVZFUCh8sd8LTDkvZYOLEieIaeebMmXKsKImgcnrqqafG24ETTjjBvP322yqcKQH0799f1I7r169vjjnmGP+soiiKoiiKomx7VEAToGfPnqZ06dJm1apVMhlTig8Ycx08eLBoz1ibNL1795b1k4oSBM2Zk046KW4bp1OnTmKTpFq1anKsFF/QmLHrkvfZZx81Aq0oiqIoiqLkKyqgCYA3J1yqAu5zMaCqFB/QpHn33XfjmlKTJk0yXbp0EcNqigIsg0NlGiEt4KJ90KBBUneU4g3aUghoLDfffLN491MURVEURVGU/EIFNAGwSYL9GWCw/swzzzhbt1YKJ3wRZ8K91157ZdOk0SVtyqhRo8yxxx4b16pCc4Y2wAptleLNBx98EBfMnXPOOaZ169ayryiKoiiKoij5hQpoErj22mtN2bJlZR9bBCtWrJB9pfiANsRnn30mE3DA9S22JnBXp5RMxo4da3r16mU2bNggx9icwQChCmdKDs8//7wYiafMr7rqKv+soiiKoiiKouQfKqBJAE9Op59+uuyjXfHll1/KvlK8qFu3rnnjjTdMgwYNRJNm1qxZ5uyzz1ZNmhIIy5oOPfRQs2jRIjnGWxPC2Tp16sixUvx59tlnpQ0A6gJG4xVFURRFURQlv1EBTRLOO+88s/POO8vX1Iceeshs2bLFv6IUJ2rVqmXGjRsnE3KENHjvOv7441WTpgRB+aM58+eff8ox3r1wpV21alU5Voo/CxYsELfaliuuuMLssMMO/pGiKIqiKIqi5B8qoEnCAQccYPbff3/ZxxUzqu9K8aRmzZrignu33XaT46lTp5rTTjtNNWlKAAhn2rVrJxN0OPzww83AgQPVlXYJ4t9//xXtmXXr1snxNddcYw466CDZVxRFURRFUZT8RgU0SeDr6e233x734PHoo4/qhL0Yg82JCRMmmM6dO4smzdy5c02PHj1Eo0YpnowePVq8NVmOOuooWdZUoUIF/4xSEsAoMAJaaN68ubn00ktlX1EURVEURVEKAhXQpODAAw80p556quz/8MMP5tVXX5V9pXiCJs1rr70Wtz3x7bffmpNPPtksXLhQjpXiAwaB8dZmNWeOPvpocb+Ohy+lZIHWlPXcdNJJJ8U16RRFURRFURSlIFABTQrQpLj11ltlwI6r7aeeesosXbrUv6oUR/DuNHLkSDESal1wYzB69uzZ/i+Uog6utHv27Gk2b94sx2hNscSlfPnycqyUDFja9NJLL8Xf7caNG5srr7xS3ntFURRFURRFKShUQJMGPPzwVRVWr15tunfvHjcmqhRPMByMJk3r1q3leOLEiVLuc+bMkWOl6MKyJoxAL168WI67detmhgwZopozJZD169ebJ598UvYrVaoky5yqVKkix4qiKIqiKIpSUKiAJg3bbbedueWWW8yee+4px9OnTzeDBg2SfaX4gpHYjz/+2LRv317qAJo0ePqZP3++/wulqPHNN9+INpQ1BovnLrTiKlasKMdKyeGPP/4Qr00YBEdjBqPg++23n39VURRFURRFUQoOFdDkQuXKlc0jjzwiSyD++usvc+edd5pffvnFv6oUV1juhEcf69EFTZquXbuKV69M2Lhxo3nggQfM8OHD/TNKXvHZZ5+ZJ554wvz+++/+mfSgOcMk3C5RRCPq7bffNnXr1pVjpWTx3nvvmZdffln2d9xxR3PttdeKIFZRFEVRFEVRCpqUo1LW6P/999/+UXj4ShmFKOERpGA3xgWem7j5b+nQoUPcYDBGY8877zyzZcsWOU7kn3/+SXktE0g36XeFtEdZhvXrr7/6e+GhvhC/a96Td8F8DwPhouQbJIZn6QvGY3G7bm3S9O7d2yxZssT/xVYS6ytCvb59+4o3qP+zdx5gUhRLAG4TIhJEomQxoKCoiIhgQgQRMABKNIGgiFlQFDEHzAlzFhMiqIggBlBUBEVykpyziCSzb9/+xcyyt+ze7dQcXKr/+wZ2Zreve7p7umuqq6t8Z7SpWLt2rTiu1cL2qxUrVqjqHSUHfjjY8qEBi5QxY8Z4Z8EhehZlTxccduPU95prrpEtKlkpwPA5c95557mVK1fK+WmnnSbp9t9/f7GIIjqbtt5wJO07mA0K/ZV70Tqh5lkj/y1btnhXgkGdo7jSQptrxzn6DIpO7fNKnfnb1ILCM9ynTx8ZI4nW9+KLL7qDDjrI+zZruOcvvvjCOwsOVjvr16/3zoLB2Dx27Fj1vMw4RIQ6TXrqi7Rs9dVAW3/99dfeWXAmTJgQ2oIxjEzB/WvnNeD+tekZK8LKYmHmxjAyQXbUm1YmAO5dW3dhZQruO4wsFqa/Qpi8w9Z7WFku3cWXZCDPJJPR0oH7ZvFGC2Osdpzivhlj161b510JBjLcpEmTYv71gjJ37lw3Y8YM7yw4WJ1r+xyLZ2F8Pf7yyy8i64WZG5HHNH2W55Sya+d1yhxmbkQOzOodIxX0d2Q57RhNnSGLaeqNvoIcqI2QjCw2btw4dZsvXLhQnjctLBRrod64d8bJTIk2TFKig0Rk2rRp3llwoh0usmrVKu8sGNGBJvLVV195Z8GJ3ngk+tLrnQUjKoxEooNU5LfffvOubCPamJEyZcrQi+V44YUXItFO6X27HfKNCpORaMV7V4IRnZgi0UE2En3ovSvBWL58uZRfy7BhwyLRju+dBYP2jnb4pPWSFdTXzJkzI9EXR+9KMKKTUiQ6SEY2btzoXQkGZY++sHpnGYkOIJFTTz011vY1atSITJkyxft2G/T36MuydxaJXHXVVfLbfffdNxJ9qfKupkbb3hAdZNX9DaIDnBwayHfr1q3eWXDoa9GB2jvLmuhkFGuHbt26ZdpXac+qVavGft+6devI6tWrvW+31Zumr/qQXltvQN1p01PuMH0GwqQPm3eQNk+EvLXpzzjjjMjuu+8e2W233SLdu3f3rgYj/jkPSna0mbbPhu2vpOVvaAjbX0kbNv3IkSO9s+BMnTo1EhWCvbNgMDcxJ2vnpjVr1sjcpm276AtjZMGCBd5ZcD788EN13UcFUZEJNNDXkIWQybTQbtGXddUzgyxG2ZFHNdDeEydO9M6CgxyplYeQX1PJM+kwZ86cyMqVK1X1xpxMvUVfmr0rwaDekJnSGWsGDBgQm9/322+/yI8//ij5hxkrwvQ3yqyVn4FnXCvL0Vba8RlIH2ZeDnPfEKbNgPSa/grUW07NjRBWpghTd2HaPEx/BdKHqfcwZYecHiey6q+78U90cDPSgAg/LVq0EA01zmRZgQ6y+mrkXVatWiWhmWfOnCna5jp16shWiVRhea+++mqx1Nh3333d559/7ho0aOB9Y4QhKvC6unXryudu3bqJBUQyeDbZkhYVVOUcnzP4jypTpoycGwWLqBDgnnrqKdezZ085Z9weMWKEO/TQQ+XcMAzDyFu8+eab7qKLLpLPOHlH1sLi2TAMI69jG+8DwFanK6+8Uj6ztYEIT7y4G/kffNJ89tlnskUGMCVt2bKlmzJlipwbuQfMHnHq7CtnWrVqJZG5TDlTcGFr0IMPPiifcQz93HPPmXLGMAzDMAzDyHWYgiYAe+65p+vbt6+rVq2anONPAH8Gf4bwOWPkHSpUqCDheGl/fNKwh/Diiy9W76E0sh98+Zx66qkx3y5YzrzyyivSdkbBBH8GPKf4esIZ8H333eeaNGnifWsYhmEYhmEYuQdT0ASEqE44Jq1Ro4acDxw40L3++uvy2cj/lCtXThzb8uKPkmbatGnu3HPPNUuaXACWM7yI/+05qmOLE89myZIl5dwoeKCUadu2bcxpJA6mCbduGIZhGIZhGLkRU9AowH8B4bYLFSok1jNXXHGFWFYYBYOyZctKe/v+Z7CkIoyzWdLkHOPHjxc/P743eywk8DlTqVIlOTcKJvgoGj58uHxmm+JLL73kSpUqJeeGYRiGYRiGkdswBY0S/FrccccdEqoVCKnMCr5RMEBJgyXN6aefLpY0hGsjnDPbnoxdC/5FLrzwQu/MuWbNmsm2Jhw0GwWT//77zz355JPugQcekHO2uA0dOlScuxuGYRiGYRhGbsUUNErwR3PzzTe7q666Ss5XrFjhLrjgArdmzRo5N/I/bHd644033OGHHy7nEyZMEMfRvhWHsfPB5wzRtfw6ZwvL4MGDXeXKleXcKJh88MEHMj5v3bpVzrF49KN/GYZhGIZhGEZuxRQ0IcDh5I033ujOPPNMOV+4cKE744wzJBSzUTBgZX7UqFGuUaNGYkkzZ84cUdQtXrzY+4Wxs8D/D5YzOIEFrJmef/55s5wp4LDlEGfubD/de++93WOPPea6dOkiz6dhGIZhGIZh5GZMQRMS/Bq888474jQWeGnEKeWWLVvk3Mj/sG2CMM516tSRc7Y+jRw5Uj4bOw8sllCKwjnnnOOGDBliljMFHHwRscVt7ty5ct6mTRt3+eWXy2fDMAzDMAzDyO3sFonifTZCgMUEPkgmTpwo5/Xq1RNHsgcffLCcG3kbosEsWrTI/fPPP96VHVm1apW77LLL3G+//eZdcWLN8fnnn4sDWyM8PF+JW1VKly7tnn76aVexYkXvyo7g0Puwww5zxYsX964Y+Y158+aJcpyIalg3tm7d2r366quuWLFi3i8MwzCM/MKbb77pLrroIvm83377iax13HHHyblhGEZexhQ02cisWbNk9XbZsmXygnD00Ue7Tz/9VBzKGnkXrKG6desmkz/ORzPjjz/+iIV5BlPQZC/JFDQ46i5SpIh3lpw99thDlGf9+vXzrhj5iRkzZogVlW9RReh7QqyXKFFCzg3DMIz8hSloDMPIr9gWp2ykZs2absSIEe7QQw91//vf/9ykSZPcCSecIBF+jLwLCpfly5e7X3/91W3cuDHTI145A/vss48IDkb2sP/++4s1TDxYNSVri/iDtvvxxx+9FEZ+gu1MCOm+cuaQQw4RRZwpZwzDMAzDMIy8hlnQZDNUJ4qZrl27iqk9jimPPfZYN3DgQHfQQQd5vzLyEijbCOX83XffeVfSByuqJk2aSNQvIzz//vuv+/jjj8UZcxBQlOHA24+4ZeQPCGvfvn17sV4ELNXwCVa1alU5NwzDMPInZkFjGEZ+xRQ0O4n169eLyT0v9oAfBJyY4kyY7U+GEQ9WIGzVyYuw7YstRBrC3jcKG63yi3LzLGqj+5CetNrnGcUfw6+m7khH/mEUf2HqPjf0VywTCWvP9iaoUqWKhNdGIZ4ZYforhOlzYdIC6Sm7ps+G7a85SV4eHw3D2DnsDAVNmLEmzPgMyASk1aRHJiB9mLkt7NyYk4St+5wirCyXkzJ0mP4KpAetTJJX+yvlTufdI2WtsFUDJYMWthT44W+DQodbvXq1dxacdevWua1bt3pnwSBvfI5QgRqot02bNrlSpUrJ5NGiRQu5vnnzZgm//O6778p5KnhY1qxZI/9roOzaegec4WohrG2Y6FVsRdGWnfbCOW/iFqN0oexh+jttRt/RsGHDBjd16lTvLDg4R9U+L/jMwRol3rFxEEhPWGMt33//vbrsPFMIZFrYGoO/KI2Omv5COH3GGg30V+rd35YTFMYHolhpxznGZ6KNaRk3bpz6WaOvoVTRPi846x48eLA4ZfeVMw0bNnSfffZZlsoZyjx79mx1f6fPffPNN95ZcKg3xgoNtDXb9LRzE/XGVk1Nf6e/0Ve1Zaetv/32W+8sOIxxOOIPw5IlS7xPwaHdeeY1IITyvGmfF8ZY5iZtuzMna8sO2jYHZCHqTgvjq3acAPL+66+/vLNg0OcZJ7T5kz6MPEWba8f3sHnTX6k77VhBn+N/DX69a2FeDzNWMI9oYZzSzun0U6LAamUK5GcsSrX9HVnIj36o4csvv1SPcStXrpR5WQv3zs4F7RjJ3KCVBbln6u2XX37xrgSDMo8ZM8Y7Cw7WwytWrPDOgsFz+tVXX6nuG5ApOHxFSxB4znletGVnTvvpp5/Ubb506dJQfS7MuwdzKmNUVvWW0oKGyYE/gl8VDby8VKtWTZykBoUOT/pjjjnGuxIMXnxKliypcs5LozNYkLZo0aLe1fRhYiF9jRo1RLPHYEk0EcIu+41x6623uj59+iR1bEr+POyk33vvvb2r6UOb8dBpt1PxAlC7dm1XuHBh70r6kDcDJT4ggmpUech4WPEbQejyoFBvDLKk1UTqQRDi5YV614CSgohd6USMoR9wv9qBpaDA84NmP6+tiBg7FwQxnAAjUNE3qlevLkK1bSE1UoFMgTVro0aNvCvBQJhiXsEHVlDIm7mpQoUKKnmIl2WE/wMPPFC1Uoo8wpxTqVIl70oweHk45ZRTvLNg8LKKgkMzrzI/8vLB862pN5g/f77IgiyYBQXFGGNMuXLlVP6skAUXLFiQpdI4Fbxs0+YaOZQ65+UDWU4D5UY+LV++fOD5F5mXiJbUu6beWKTjecGXY1ar47bFyTCM/IptcdoFoOx69tln3QMPPCCTD0JWhw4dXN++fUWZYRQMUH6NHz9eFHBYzXAYyUEo5IWoTJkyovgibP2RRx6pFtSNvA8vbG+99Za74447RIDHRBTl9yOPPGI+ZwzDMAoYpqAxDCO/YgqaXchTTz3levXqFTOZRTnDhIKlkZE/YeVy+PDhIkSEMds1nKykPvzww65Vq1ZmVVMAeeGFF9zVV18dGz+bN2/u3n///SxDrBuGYRj5D1PQGIaRXzEFzS7miy++cNddd10s6gimt/fee6/r2LGjamuOkTvhJfKTTz4RpRzRn+L3YxMmGssQjbl8QYFhCdN+TKUTh6gGDRq4m266SZxwG/kftk5iffjMM8/Ic8XWz4svvlgsZ9LZUmgYhmHkP0xBYxhGfsUUNDkALxw4uPTDNuNnA1P9l19+2V448gk9evRwr776agaHbfXr13eXXXaZa9q0qewrz4vex3clbGlBsYVD2McffzxDaG1e0lu2bOkGDBhgFhT5nDPPPFN8zPhT1X333eduvPFGi+pjGIZRgDEFjWEY+RVT0OQQbHfxV4X9yEc4ueRF9KyzzpJzI++BQ8bu3bu7YcOGyTnKN7ZiXHrppfKiaS+VekaNGuWeeOIJ+R8HjtRtp06d5BrCmZF/YGsg0QXY0uR72q9YsaK75557XOfOneXcMAzDKLiYgsYwjPyKKWhyEKI7TJkyRSwB/NB6WFYQMYFw3GZNk/c46aSTJHQ0L5hEMcCp6amnnmpWHtkEykyEsCuuuELCiOIoludlyJAhUt9G/gB/MzfffHPMbxPR2bCiqVWrlrS5YRiGUbAxBY1hGPkVk3RzEHyREJ2GWO5sedpnn33kBRSnsieeeKK8kBD+2cj9YNFx7bXXyrY1lDNVqlRx7733nljPmHIm+0CByXZA6hbn2tT1N9984+6//37vF0ZehlD3WKBx+MoZLApRZBPFy5QzhmEYhmEYRn7GpN1cAC/z+J/h4DNMmzZNnKDiDHPhwoVyzci94Pz59ddfl8++5czpp58u50b2g1XSO++8I88LvmrYKsjqmZF3wfKMZ4ZxEFBgo3jDz1DZsmXlmmEYhmEYhmHkZ0xBk0soUaKERHIaMWKE+CphexMOZtm6ccIJJ4jJP1FtjNwHW9Xuvvtut2nTJnFeS1ux1clCQe9ceC769u0rzpaxYMIfjb9V0Mg7rF+/3j399NOuRYsW4ggahRuKtzfeeMPdcsst5l/IMAzD2AGzqDQMI79io1suAx8LgwYNki0c+F0AfG1cddVVorh5//33JdSskXvAcmbixInyGcUM7WTsGrAw88Nto8DkuTHyDj/88INr06aNu/7662VLE8q2Dh06uJEjR7r27dt7vzIMwzCMjDRo0EBcAwCWy5UqVZLPhmEYeR1zEpzLwRkqCpt465lWrVq5W2+91dWuXduiAuUwKMsaNWrkxo4dK1GFRo8eLUoaY9cxd+5cV7duXbd582ZR1hCWm7Ywci9Ym7344ovu9ttvF+snrM2wIiTaWb9+/WxcMwzDMLIEdwD4bWzbtq1EQjUMw8gPmIIml4MCAOuMJ598Ul48//33X7lerlw5cZ6JM81jjz1Wrhm7nkmTJrmmTZvKNo3jjz/ejR8/3vvG2FXgSPvcc891X375payizZ8/3+2///7et0ZuA6fO9957r4TR9sezk08+2d15552i7DQMwzAMwzCMgoptccrlsJJcv359Cbs9bNgwd+ihh4p1wJo1a8SZJt9169ZNtgfgu8HYtSxatEgib0Hnzp3lf2PXsu+++4oFDWzYsMGUZLkQ1gFQpN12223iCBin2ihn8LWFNeCYMWNMOWMYhmEYhmEUeExBk4do1qyZvHw+9dRT7vDDD5drvOSgqMG085prrnETJkyQ68auYdasWeLMuXDhwjElQVBQrPE3tJBWq5zjxRknx2HS//nnn95ZcLAQC3Pvfhh69qL7jBo1yvuUOeSt9edEeO8w9QY8u/wNLWHanbzD1Pvvv//ufcoa8sLhLwoYLGeoc3zNnHbaae6jjz5yd911l/fL9CA9f1NL2PRspdNCnWvzpq3ZDqaFvpaT9Ram7OQbpr8ahlEwYJwKM6/6MoUG8g4jD4WRKUhH3tpNEYyxOVVvftm1kD7M/JDTc2OYew87NwaR5RIhb+5d0+fCvnsgg+fVeku3v6ZU0GAVsGLFCu8sOISG1j6wCHJLly71zoKzevVqdeXRaDjl1TY8+a5cuVI6jwbyJ32qTssWDvzSTJ482T300EPe1W0OUp999lnZZsN2D+39YxHCA6cBKx4se7QTBBF48E2hgQd91apV6geOly5Nf+d+oXjx4qKk0UDetLkW+it1r4F+zn1rX54YJ9hSpGXBggXqF16eFRRkULVqVfkf5s2b533KnDD1xvNJm2nLzjNCf9dGnSL/JUuWqJ9V2j1M+H7SppM3/oFQzHTu3DmD8hinwJ988okoaVDWBIF209YbZV68eHHM6i0ojDPp9q9k0GbaPuOXXTu3/PLLL7IVUzM++/NimGf1559/9s6CQ38LE6EtfqzQwNyinZvIm3lCOzcxl3Pv2nan3FgWagnTbvQ5+o0G7hc5MIwQTt5hnnXaXZs/z2sYOZZ5Vfu8UeZly5Z5Z8Ghv5G3dqwgvVb+p97DyNDctzbiKW2GbK0lzNzE/dLfwrQ59Ub9a6DczA9aGF/D5M17mxb6Gs+ats9w3/QZTX+nv5K3tt2Q5WbPnu2dBYd3NsZZDeRN5Ewt5Kt91mgr2l07N1F25CH+10CbaecmwPeVFuotnTEupYKGm9Z2diC99kWd0Hnazg48MNoXTu4Zh5VhQiTzwqFNT50xSWQ10BHO+cYbb5SXa1aga9asKddJP3ToUFexYkWJcIPfmiDKGu5f62CV7Vhh6i1MyES/3rSQt0aA9ic0lDPae0e5Eyb6ANG+tKGI6UfkXaRIEe9KMNhedMghh3hnwalevbooHTXQT3GUDfE+Z9IVivHjpPVVQ948Y7SdBvpKmTJlpAwaGGOqVasm7aeBdgvjUJE2TzVOMIYgrLGdqWHDhu67776T65SVCE1MbPfff38s+kZQqDPqTgNlRpnH1ioNjHFE2tNy4IEHijNkDdQfbaYdZ8qWLetKly6tSk+9lS9fXl120vtzlAb6OvlroU9qBTkgvfblg/pmbtHmT76k1bY7acPMrUEVqPFQZq3Db+b0MG0G2joD0nJo5VjS0W+0hLl3yh3GooFyaxWKQH8L0+dA23aVK1dWzw/01TA+HZmb/OirQeF+w8gUyHDcu/Z5o8609QbIYqlkgqxgXgojAxctWlTmCG2f4b5LlSqlSk99V6lSRT03Mr6GmRuRZ8LIkWHypt20MgXjA+UOI//z/qAdZ3hWtM8qHH300d6n4Pj9Pat6MyfB+QAmUxRabCNgZTpeKChUqJC8FNxzzz3u/PPP964a2QVRgz7++GPZcvb5559bmMccAi0+EywwYaFZN3KGO+64wz399NOyMuJPL7TJhx9+KMoNxiTDMAzDMAzDMHbEFDT5DCw6CF+LE85x48ZlMM89+OCDXceOHd2ZZ54p2m6t1YSxnexS0Nxyyy0xS4OswN/Kgw8+6J1tZ/ny5W7kyJFiQcXWIR5tNMS0NaG/2f4WXz5W6FDcJfPZwu9YSWILSpiVkV2FKWhyFkw2eQ7YdumbzLI6gMVH586d3eWXXx5rH8MwjPwMcysKaqyfsK7VWrjmNP62E6wEbPw2DMPYdZiCJh+CBQ37rgnP3a9fP1HWxINJGaZht99+u/iH0Jr7G9mnoMFvEIqVdGjevLkbPny4d7YN9i6jeJsxY0ZS02iERMpINLAaNWrINYRHXp7feustOU8GCp5HH31UtqbE89NPP4lCKBWY6h533HHe2XbYfohCCH8kKA+JQkZUn7DKQlPQ5BwDBgyQcYa90L5ZPNuXsOZDMYP5r2EYRkGBrecXXHCB+E5q165dBn+BeQnmUmjatKl76aWX5LNhGIax8zEFTQHghx9+cE888YSbOnWqOO2Mf4FHUdO2bVvXokUL2Yuo9clRUMluBc0JJ5wgAl1mYJXQsmVL72yb0qNJkybum2++kX2whF3n76H0QEAcPXq0KEXYXvLOO+/E/JbEK2iwrmnfvr1YPeC/CUd73BdKGJQ7fCYPn65du7pXXnnFO8sIv2e7Hf3KB/9AQ4YMke0v9MF42ILHlhj+vnb/tClodi30j2+//dY99thjogj2wc8JVld33nlnTBFoGIaR12Chi4UPLAKZs3xnyfg8YM5izud/ZKhEXwL4QUOpQdpLL71UIm3mRfz7Qp5gi2oYUN7jm4w6QYGF3IK8iTyD3MT/2vnfMAwj34GCxsj/RCfHSPSlKvL2229HGjVqhFIuw1G8ePFI7dq1IzfccENk/vz5XiojK84++2ypv6iwJvWr5ZxzzpG/06VLF+9K+owbNy7WjsOHD4/8999/3jfb4HzJkiWR1atXe1e28c8//0QuuOACSde1a9fIv//+632zLc3kyZMjlStXlu/pG1GByvs2EokKnbE8E4/oC3pk69at3i8jkaigG3n++ecj++yzj3y/7777Ro477jipMz9NmTJlIp9//rmXIjjr16+P/a2qVat6V43s5pdffolcd911kUMPPTRSqFChWJ1ztG3bVvoMY41hGEZe5sEHH5Q5ivkqfpzzj8KFC0cOPPDAyIUXXhiZO3eul2obzLc1atSQ3zFX5lX8ez333HO9KzomTpwockHZsmVjf9M/kAuQM5o3bx4ZO3asl8IwDKNgE87NupFnwDEnqxT4oGHL048//uhatWolns+xeCAUJ9FVWBHHVw0+S7CCYNUoTEQtY+fjh+jDMgYrlESv5pyzzSSIp3fS4KX87rvvlnNWEuPDabMiGB0/Ygfh6lgNY6894d7jtyyxlQkLLixzsNTCPw79j9U0+iJWF4Tby6tm4PkdosDRx+677z6xTqItWVFmBRRv9M2aNRMrrffee0/6jDkBNgwjK7Dk1Ubb3Jlgdco82rt3bxn3iIZEtBMsNJGhiCbGFk7mNbZ1vvnmm+6jjz7yUhuJYDHTqVMnmSOQE4hShDyCnMkWavoBFpkjRowQ6+EwYd0NwzDyC6agKYAgbOAfhC0nX375pWxfYWKMf7HCYe0ll1wi2xV4qUZYSdeJrbFr4SUZMCGmLbOTww47TBwEI0SlCteOoHr11VeL3yO2MCVubZk+fbooZYCX/HhFET6QrrnmGvn81VdfxcKWGzkPL0+YtaPUbdy4sevbt28sdCthum+66SbxhcTWPNrRMAwjHdasWeO6d+8u22rnzZvnXc15WCi46KKLMjjOZ2xDCfPpp5+6zz77TA7mWeY8wvtC/HZeIyP4IUPpwnaps88+233yySeyMEMd+3WJvzJ8I+Jf75BDDvFSGoZhFGAwozEMWLVqVeSpp56KHHHEEZHoS39kjz322MEcFVPUXr16RX744YdIVMiKRF/ivNR5i6ggJkdYcsMWp4ULF0ZKlCgRa6PXX389smHDBu/b1GS2xcln4MCB8j1bkGbOnOldzUhUwIpEBdXI8ccfH1m7dq13dTsjR46MlS1ZHt9//33se7ZrabAtTtkD29hWrFgR+eCDDyIHHXRQrE459txzz0j58uUjl112WWTjxo1eCsMwjGAMGzYstuWVbULMYWyFzUl+/fXX2LYkjnLlykUGDRrkfZucOXPmRJ555hnvbDu2xWkb3333XexvIENs2rTJ+2ZHkMeSyQ+GYRgFEbOgMWJgusuqEE6Fsax58sknZWUoPsoTpqiPPPKIOJU99dRTZQXs/vvvd9GX7FgEl9wOK3aYMGMVkCzEdE6Cc8Go8JrywIoJ577x4Kgw+kItkZMg+gItVk9E1gnjLDf6Eu6ef/55+Yx5N9vhEsE5L9ugsJ4hf8qfiB8JAlauXOl92o5vlQEVKlTwPhm7Etpx8ODBrkuXLq5hw4audevWMasnIOQ6jpyxcmILG2bqhmEYGhhPsM4EtgnhhHbmzJlynlMQjc7fxos1B9t4GQcz49BDD3U9evTwzoxE4tuUrbCZRQzFErhMmTLemWEYRgHHU9QYRkpY2Xj11VcjDRo0iEQn2Mhee+0VWxWJP7CiaN++feSLL76QNL///ntSi4mc5r333ovstttuUubdd99dLDi0ZLcFTVYHbfDbb795qTIyZcoUcea79957Z0jTvXt3sTBJJN6C5uKLLxarG1a4OKIv5+LUj++oo9tvv91LtR3a9sorrxRnsfF9onHjxhkseOgHBx98sHz3+OOPe1e3warpzTffLN9VrFjRuxocs6AJBvX+559/itXc/fffH6lWrVqs/jh4Pljhrl+/vtqqyTAMIxXMMzVr1ozNxYxBjEc5AXPhUUcdJeXAcviJJ57wvtFhFjTbePbZZ2N/44wzzshxKynDMIy8glnQGFnCygbhmMeOHSuOhF9//XV33XXXyUo7/kl8sKIYOHCgWKewOoaFSvQF3vXv31/SskqfG2AlB6d1EBUYXK9evdzq1avlPKfBuS5hO1MdWJgkOgH2iQqYEmobh4Ws6vkWL1jBYO00YcIEOU8GFjikP+KII+Sg/XDqR/uyJ586SuSXX34Rp7CDBg2SPfr0EXyTfP31165nz57er7aF3cYyi3tjhYw69yHcJuXFL9JVV13lXc19xFv55GVw7MuziHUVIeLxF9SnT5+YpRXtULduXXfzzTeLf4AxY8a4+vXry3eGYRjZBdYUWO0dc8wxcs4YhOwwdepUOd+VTJ48OZYv1sH43zPCg4WRz7hx49zIkSO9M8MwDCNTPEWNYQSG1RDCMUdfziMnnnhibKUk2cEqGZYYhFcmfCXWHjlpXbNly5bIqaeeGisfVheEEA7KzvBBQ71mdqQLK5QdOnSI3WOtWrUy+N2Jt6BJdmAR9dxzz6UdNpmyEYLZTx/vp4Tv2OOfCP6M+C2+jdjPr2VnWtB89dVXkVKlSkXq1auX6R763MzmzZsjDz30kKxS+yvWiUfDhg3FWoZ+YRiGsStgnoj3d8UYtat9XF177bWx/G+55Rbvqh6zoNkOvun8v4NVJta4yWQBwzAMYzu78U904DSM0GCFMnHiRLGyYTWK/1kVSxVKE2sKVlhYxT/yyCMlhCWhF7H8IFzzzobwj0SomTRpkpyz35zQ4n5khnTACoEoBIcffrj7/PPP5R40sAefaDj4AHnllVe8q9kDFhIPPvigK1GihETdOeGEE+Q6vmywennrrbckUkW3bt3EOodw3YTMpk3Yix8E9pxjgQNEa8AXTirefvttd8UVV4hFzeOPPy75a8E6Cz85gM+bML53fLA2oYxYi23atEn8ruCbiQhouR0sk1gV5nnECobVS6JtxUMbYx1z1llnibUbz95uu+3mfWsYhrFrIGz/BRdcELPyxILznXfeiVnX7Gzq1Kkj4yVg1dOmTRv5rAVfbE2bNhUZ49JLLxV/NokQGRE5Cd9yjM++hXHZsmXdiSeeKDKB76cnkffff98tWbJE5udEP4GwfPlysWaGk08+2dWrV08+x8OchszBPI1vQeQBrKVr167tzj//fKl7LCqBshDRTwO+zCijL2cBfvOQt7CYOuWUU8TKNisoI5a+WPYia/LqwpzP/RGFFAvjRGhT/AwiT1IGZLtZs2ZJG1MeZLdVq1bJPO9DeyWTe4gwye+QC8gr0T8R3xMZFT9tvv82ZC5kK/oClqmJ0O8pA2CpTNvjkwl/SJSPqJe+PGUYRgEDBY1hZCdYSxANhlUwrEqik2GkVatWSaNC+Qer+vgywccN1gqHHnqoRIuJCg+R2bNni6XOzgB/LlhcUAbKd9VVV3nfpEd2WNBgsdCiRQv5O5ooTlu3bpVoWqmsa6Iv6ZHoxC9ReKLCoHd1W76dOnWK5auxaCJNvE8cfAjw9zj69+/vXd0RLKgqVKggv+vdu7eqfSm/vxKnsaDBigo/LKmICkeRIkWKxP7uFVdcEbMuobykp59roc20UdDIn+crvt7w+/PCCy+ID6D9999ffBEls5bBkgrfAIsXL1bnT15aCzjSYYmUqr9mBW2mLTd50m5hrIRS+YBKB+pN22coc5h6wxcUhwbyJG1mz0tm0E/j/VIFBQswbZsbeQPmDt9XGQcywK6ypImXTaIvxt5VPelY0ODXr2TJkknHaKyNGcMZz5PBGM/vqC/ySuTrr7+O/a0HHnjAu7odLGmJ1pnKnyARrD777LPYeRgLGsYOytimTZsMeXAULlxYyjFmzBjv18lBtiLaF/WS+De4hgWWb4EbP04RlZTfkJYyEHGSaFLU+WGHHSa/YTzGF5L/97A0TQbXSUdfSaxTIlxSBmQs/+/4B+UjKurQoUO9X28H2dj/3bfffivRE/fbbz9JU7x4cZHd0oX5gXFSI0sBdcbcqAUZLKfyDjs3hpHFyBMZXDuvkz7MOBdmbqS9wsgz/rOmqXe/3sLIFNSbts3ZGUCf0RJGnuGeufesSGlBE2100eizGq0BbTda68y8tqeCaECsDsTvXw0CkWLIV5s3940GPR2tfiL4qiA9EW2ig6x3NX2iA41o9A844AAXnTy9q+lD3twD6TVgAUG9a/Kmz0QHWYkGFZ3IvKsZ+emnn+QgkhKrS6z0c0QFBu8XycH3Cn+XVX6sVVjBwAKAFQdWfVgZoe5oN3ydBOHTTz+V1TvqDm677TaxOkmn/X0LmujkLNYpWAMFJTrIubPPPltWejQWNNQfvl9YrUlW7z/++KP43SEfVszOOOMMuc6K2cUXXywrley5Z5XPXzFLF/oaq3XcP4wYMSJmNUPEKfwUJUIfI1+sO84880z33HPPqcaZ6CAnljKsMtJ2QS1oWIUrVKiQ9KN4ohOWRKbCqgf22Wcf8alzzz33yDlQd6THqkYT0Sg6qciKG+1F/w0KzwvR1ijr9OnT5ZliFTY6UXu/2A6rlazCYflDfbOSx+rp2rVr5XnSwMpflSpVVGMk/ZB755kO2t8A30fUm9/eQaDdeF6oc56ZeKITvqx8Ur5UkJ7xuXLlyt6VYDAv0t8S804Hxrc1a9Zk6ocqM6IChfQ7xsig6UlHep4XzbxKeqwKfL9YQeG+6WuMcRpoWyL0aMZn8O9d2270d+od68SgIFPQJ+mzqebVzGCMIJ227pirDznkEO8sGOTN/acbnQfrAXyR+dH+GGMGDRokfmE08HfoN4ljfCLx9YrlL9ajfrvR34O2O30d6xDGyWQWNPjxwy8b8hJ1w7iMJQjjMhYY0Zd1qTtkGeQKfMjFc/rpp4u8wPjN/9RTPFh6kj888MADrnfv3vIZ6MtE38TiF7CYwWKI/5HhmFfwC8c4y/wOQSxoUtUbrxrIBPirww/azz//LOMC0EbXX3+9yF60BXMr98RnIoQ2b95c6oZ+iOUKcxn5cO/ILzwffIc1EP2c8Y16xf/hNddcI8/ODTfcIJbE0RdpV7NmTbEQeumllyR/2hxZhfbgOlan8eMc82qtWrWkf1Iu2si32Fm4cKGUCWso8sG/oW+lzO/ov9Q5v6fOfVkJsLg577zz5DP3jixEu5MXbYsMku5cQxmp93LlyqnfHbj/xL6ULlgr4cdQMzdxz/Q97bzKvfOsI+to8md+QRbRyGLIBMhj9HWtLIjcoR1jkXV519bsOuAZIr02b/+9TTM3MSdT78jXzI1BoezIU/TXeF+o6cKzwjuEH/02KLzH8JxqIG/GoczelSGlgoYOz4DIw64B4Z+X5qAvy0DDkV6rZGCg4WHRCEM0OgIR6TWDHPXmT7oaeNgZrBAoNAMNgxwPvFYY42HlBTfowwbcN/WXzsNGt+PhIA0HAg2TLQ5mZ8yYIRNaZlA3tC8PNwfCM+cIGUyACOIcDPhZPYD0NwQHFBcIJAgLCFS+I+HM8BU0DHBMvpoXENqLv4NwoVHQIAAwUF1++eVJt2fhqJmJn+cJx6++ySx9DcUMZrsIkS+88ELaL8y33367KJUIl+rXGRMkghxm6vRfzhOfQYQyttTwsnTaaaeJcMXgrnlRp97Im/bXKGjoq5D4nNMGCJHUDzz66KNSh/H3Qv8lPeXWlJ30/t9PZ5whL0yzEWxRslF/jM+MFf7fiYd+0KFDBzlQuFI3tJEPfZ4JgrrTwLPLM6cZo8ibMpNeM85QF6TTTMrUO/dN2sR2Q5im7Rn/M4O/oSk3hEkLYdPnJDlZb0C/0zyrQP6QE+XPjrxBm35X1xvjmq8YABzRo3yOH7/SBUGYcTvZvBgPMoKvFGILDdtSGGeQpzSyZGYKGhRebC31F4RQxnDuj2eMrWw79rf8MpeiGIh/+ctKQcNYxvwKiQoaFqSQN7g/FD/vvfeeyKt+G3Gd9Cxa+S9gQRQ0jO2Mob5clgj9ib9LHn379hUFB3D/OKdHUYH8x+IbZUE5wz2yEIPiCFnLn3fIa8CAAa579+7y+ZZbbnF33nmnfMe86ito/Hma95nXXntN+hTl899PKBPb3ZGlKAf32rJlS/kOaD+/PQi6gKzlwxYtgjMA8ivKRL+vUiZkHBakoEGDBjKH+8QraGhfyvzss89K/6PfUcZ0nx3kIepLO69SVuohaF/3QY7P6jlLBXlT/mT9JR1Iy7yuGSOAtPQprUxB+UmvHSd5bwwji1FubdlJr82b/gbkHbTPkTfpw9Q78wT9VdPfyZu/oe1zvp5Ag583z3umZY/+aKcRfWi8T3mLMOXO6Xsm/5wqf9i8wU9PmOeoICEhgC+55JJIdBKUMJiEYi5RokRSs+BUR3TwiUQn9chJJ50kTnF79uwpjopxbsyWn6igIKG2cRQYHWBjaT7//PMst3Fkt5NgHOr169cvyyMqwEi66Au6OGiODnISYhuTXv9+hg8fHrnwwgtj9dCjR48M5oTRQSLmJLhr165pb1mZOnWq1FNUKIxEhaHIwIEDI48++mgkKvTI34pOkknNhJcvXx5zzBwdkCPXX3/9DvfF1hsNUUE8dp9VlU6Co4KibMXz/w5bsKKCmfftzicqHMl90PejQpzUa1RYjTRt2lRMpP1yJR5RoUjMqwljioNLzMXTbUtjO1HBO6kJvR122JFzB+Pb5s2bvac0OOnIJGeddVYsvyeffNK7qiezLU7Mcb6cwTbaVFx00UWxMrH1JZ4wW5xatmwp19m+i4yQDOoM+cj/G0G3OKUrB7KtrWPHjrF82Iq0ePFi79tIZNq0abL1ne+QBeP/LnMc9/7222/Llix+w1alePwtThzIjaNHj/a+2ZGRI0fGtnzhMD/68ifXkbUIEMD1I488Uq75ME/75UOeSWT16tWRL774IlYG5B7uySd+i9P+++8vMqdhGAaYk2AjT4AJK6tZrKygbcb8FhMzVpbYKsOWOLbaaGAVxbdiYPXOfySwOGF16aSTTpLzZPgWNNnlJDhd2GaBeRwaZKw9WInCXBDQhqNVRsOLphbtNCa4WNHEm3qj9e/sOQnu2rWrrAylswKAKS/bmNgqkoxbb71VtojFW8+xatiqVStps8zAAok2DYrGgiYe6g7LHrYK0f78LVbrMFXWropkBX0YazFWWf3/Me2mn7Pyu3HjRu+XO8KKJybxrKRiVkxf4NCuhBjbtkOwUhq07xiGkT1EX8DFsgILFGB1sVevXq5fv347bRwGnO7iRBZwkMucqrUkAMqfykkwFh1YdjDHsH0n1VZ+tq5iEQxsucWyxCcrCxq26PjbohItaJhjkZeQVbB2Zd5IBlYFfh0EsaAJCvMd1j7MvcgM5EPdwf333y/yBGBFhaURcgv3/O6770r9cS+UFYsbgg74FjTgW9BAYh0mEi8PwRdffCH1TLn4H3nqxRdflN/4vPrqq+6yyy4TyxNkG7ZOARbZWOqwXYzyYV2ClRbWMlgJ+XUeb0GDxQ7Oi8P0O8Mw8g+moDHyDUz0TIazZ8+WLT+YznLwIuwrK1D0YNLHhM5nJtbMwO8Iyo9UZJeC5qabbhJT53RhO5SvkADuDeEBJQ/KGwRdTPQ66ncAAKehSURBVAd5kcf8FwEr0ZSPe+f+2PbEdiWEONKkA3kgdHLv1CPCM4oR8kqM3ITgg8ImnftDKUakhqCEUdCgHEE546dB6EVIS8fvAfVOXXOP9Cv+R2nGdb+f0f9QvKCkYmsSfZM82Z6UFZg9s2WQLYvcF4Isgjcm2oZhGPkF5iNeUNlKwlzOfIWvFPyEaM3Q04W8mXvYesOWW+ZEIjtpyUxBwxzJdmLmGbbGpNrKz7zhb5VHPsB/ik8YBQ11yfzEVnDKl5niyze/35kKGkB5cscdd8hnFsV8ZRlbsImsCcg8zKPUAz47uA/kLRYo6DO+b714fAUN94HShC1GmYEihS1U5MOCEtuTevToIcoWtsyz/Q0fYD6PPPKItA0LI5SPRUK2qFP/LPqhlMFfDtvl2arlLwT6xCto2DZ+1113yWfDMAxT0Bj5Hl6aeRnmhRkLGSZhPmOhgKDCizkKnPHjx4tg5ittWOVA4ZEsRKUPggSrb0zqrLjwEp3ToKxAaYDg5TvM21lgzUTdYaXD/mPNXtLsAIWRLzihLMNfSzqwAsf+cBQnPrQ3CpDM9ob6e/NRxtBf+J9+RV/jf86pF5RX1FE60E4I2qya4ieI++AcAZ698zgtzKxMhmEYeRHGUCw8UeSjnGHuuu6668RyJvGldmeAGIwSgxduPuModuTIkWKVoSEzBQ0O5x977DFRvk+ZMkUcmyaDMMv4eAPqAcsLn6wUNPgxwW8aJCpoUMywcMW8gsyTmNYHC1l/wWlnK2iwksFahjkQecoPYY01jK+0oL7oGyitcGqMY2Xm6cwcy/oKGhQoBEvw/e9lBgtylIWFERa98MWDvPjEE0+4a6+91vvVNrA6pp6Rt7BORvYiL5Q7LHrhkB+ZMJVcFK+gSWwnwzAKOChoDKMgExUOIzNmzJD9zzwS0Zdg8ekxc+ZM7xep6dy5s6SJCjmRefPmeVeNXU1UEJZ24Dj55JO9q1nj+8TZmQf9ib3t+FJgn3lUMBY/Oexrx79SVFgXnwFbQoSZNAzDyIsw/7777ruRfffdV8ZL/HTgG+0vzwfIrmLRokXid8wft5lH5s6dm6k/r61bt4q/t8TfLMnCB83unq+r6Eu/3H8i/D3fVwzHhx9+6H2zjcx80Pzxxx+RypUrx9Im+qBhzuE6vuLw35IMynTNNdfE/sa5yjDbkydPjkyYMCHTEMT40SPkNfkQYppw0z7Mi8yffIeMRd39/vvv3rdZ4/ugoW8h46XDlClTJBS3n47/qedk4NOmkOeDhuO5554LNI/H+6BJbCfDMAo2O29p3TDyCGzTwRO/7/uEcIuEi/b3E2eGH7EKy5x0LSWM7AeTZJ+sonbF07lzZ1WkOR9W9dhaxb5+LG/oR2yX4u9i+syqGKunRJrApw3b4Fi1JKwn+9MxnSa8KOm0HuENwzDyIr7lDFFxsDjEWgYrBbaJ7OxtTYkwhjNGY2ECbD/CUgULDD77cwzWEmyxYSsOkX8aN24s/lHSBcsaf6zHcoS5ActLHz7j24QtM8D8wvwQj183yB1shfKhbNRnZv742DZGeqxCsFjCajgRthlTrjBgScr9NWvWTLZ1Md8lykjUKz5/iO4IhK1ly5IP24yJ3gT0D+bbRD9r+MTzfRZlB1jZ4MsGyBP54N5775XzRNi+hKWrD77sou9V3tm29sCHjR+pyjAMI2226WkMo+DBKtXQoUNlJYlHgVWtunXryqpYuvTv3z+2AkLUKSNnIAKP3w5R4d67mjVRASpyxx13ZIjew2rl4sWLZWUy2REVBr3UhmEYhgbGXiw4oi/cMu4yBhN1MDNri10BFhSVKlUKFCmye/fuGaxomCdSWdDAa6+9FosYxP1jLfPJJ59EBg0alMFypnjx4knnmyuuuCL2G2QWIhD98MMPkeuuu07KnZkFzaZNmyKnn3567HvqnShWb731VuTxxx+PWef4chGHxoJm3LhxkVKlSsX+BgfRlog62aZNG7FSjv+O/ObPn++l3s5LL70kVlX+74499tjIww8/LJanfl317t07aeQojQWNjx+VEkvXX3/91bu6I1haEyHKLx/pKB/WPh06dJB2rlOnTlK50ixoDMNIhSlojAIJ5tO33357bHLkQLjJbCJOBiEU2bpC+i5dunhXjV3JP//8I3VPGyDkoVwJAibJ/lY1jiOOOCIya9Ys71vDMAwjO0GZgVLdf7Hde++9IzfccMMu39aUip9//jly5513ylZUf15IdqA4OOWUU2ShJ4iCBrj/ihUr7vA3/YNtP2z9Ssb48eNj23DiD5QzTZs2ldDQvgIo2Ys/81vz5s2l3hP/BgdKkDFjxsTONQoa6gMlDeHCS5cuneHvJx6Etf7yyy+9lBlhyxaKo3ilU/yBgumEE06IbNy40UuxnTAKmtdff13q56OPPvKupOb9999PWT4O+tH06dO9X2/HFDSGYaTCFDRGgYQVr/gVsptuuinpCkxWrFy5Ulbb+BvFihWLbN682fvG2FWsX78+cvjhh0sbsHqlEfJpe1b1/P5Am65evdr71jAMw8guRo0aJfOlP96iIM9py5lkoGQYMmRIpHXr1pGaNWuKv5GSJUtGGjRoIJaX+KhJ5kPml19+EauOiy++WCxAksGcw4IQiqB4RQ1zGcqbeIVPMvDPUr58+Vi6IkWKRO6///6Yj5bLL79c8k/0X+PDPDlixAhRjvh/g8UJrJr8eyI9B9YqWrhPrHZefPHFyNlnnx2pVq2a5MUc27ZtW1FuJavDRKirPn36xJRmKMewTEGRghInGSygUf6uXbtGli1b5l1NjzVr1ojSMF1oLxRCKIv8+qxVq5bcd6q2RNHm17FZYBuGEY9FcTIKFBs2bHBXXXWVhE8E9jPjJwRP/JmFm8yM6OQa26+N3xEiLuy+EyMnGRl5+umn3dVXXy0Rjnr16iVhOPkcFMJf4zuGqBhw8sknu3fffTdDWE3DMAwjHPjlaNKkifv777/F/wxz5t577+19a6QL9bdy5UrxdULUyTD+1Iwd+euvv6xfGoaRI5iCxihQ8PKNkz4Emv3228+NHj1anNKFUaisXbtWQmUSUhkHtYTnTCecoxEeHATWr19fHB7i+PC7774Tx31acAp44oknSvhT+sQ555wjDhMNwzCM7IH5d8aMGeIQ98gjj9wlobQNwzAMI6+wx51RvM+Gke9BMJw0aZKsNj3zzDPyMq6xtojHj8hARIKNGzdKRIEWLVq4woULy3Vj57B+/Xp32WWXublz58p5jx49XNeuXeWzFpQ8xxxzjPvyyy/F2oroEkRmILJXYvQIwzAMIzjMueXKlXMHHHCA2nLVMAzDMPIrZkFjFCjo7r/99puE9yR8ZVjljA8v8ShlJk6cKJYXbdu2lVChZnK88+jWrZuEqaYt2Y6EUiU7VmJ9Jd6ZZ54pIUz33HNPd+ONN7r777/f+4VhGIZhGIZhGEb2Y44yjAIFCpmSJUu60qVLZ5tyBlgNfPzxx13lypXlBX/w4MHu2muvdQsXLvR+kRrMvDdt2uSdBWfLli2yV1oDyg3Ss5ddA+mxNNGyefPmwGVfsmSJa926tXv55Zclf9ryjjvuCKycYUsaW6MSQcFWt25d98Ybb4gSj/Z57LHHRAnnQxuzHeqff/7xrgQDRSF5J8s/HUhPn6EcGsL2uV9//VXqXgN9jby1awN//PGHtJ0G8qTPhenvKHi1hM0bC70w9cahSU8a+rt2nCE9fUbbX2lv8jcMw8gM5Bnt/MD4FD/PB4X5nDFWgz/GamUK5nTuXTvGMraHGWPXrVsXKm/mNi3cO3Ordm6kv3Bo0nPP5K2V5UjP3KiFNg+Tdxg50JcpNFDXpNXKFJSddw9tm9PXqTst9Hct3HM6/TWlgoaC4zRTy7x589QPO43mb1vQsHz5crUQzeCI0zXtAM89k14LwvvixYvVQjyDHPevZfbs2TLYaaDPrF69WvXAkIa02kGa+lq1apX6Yedhod610N95qX/rrbdESUMdokBo1qyZKGsygzJjqaGFrT7UvabeKSeTg3aAJz0+eLSQd7oDPHl99NFH7owzznBDhw6Va8WLF3dvv/22O+WUU+Q8CPS1zJ5zfBXhvBLYEle0aFH5DP7LsrbegLy1YySTExOEVpijz4VRNDA3aCdG2juMgod653nVQJ7krR3f/XrXgkChFWgoO+MEZdCAIEZ/0yim/XoL01+ZF7V9hr6qnRuA8s+aNcs7C86KFSvUimjGLeZkbbvT18mfv6OBPhOmz06bNs37FBzy1eZNn0EZH2aMpc9pX0B8mUKbP+0dRqaYP3+++gWCMi9YsMA7Cw73zfOugX6KLBem7LS7dpxjrNDOD4xP5K2F8VGbN/fLGKeVYemvYeZVyh5GJqC/aduMvqLtb4AchBysnV8Y22k37dxIeu04QZl53rTQZlp5BsLMDdSZ9t2DNPQ5bX/3xxltm1NvYfp7GP0I952OcimlDxoeNA7fv0ZQ6Ky80LA9ICgUmsGGly8NpMXzOv4kgkLeNDz+QzRl52Hlb2i3tpCWwYa60ziu9Qdnbf4IFSVKlFAPVEDdadJT71hBaNuN/Mlbs6edtPT3+JfwIPj9vXr16q5WrVrij4aBC+H4/fffl61PfE+/pF25T7+O6Gc8Z5r+BvhG4dDcN2Uhb22bkZ7nVFt28qbsyfKmPahDBmGc9l5xxRUScYs6pb0POeQQ9/zzz7vmzZurnhXumSNVWq4fe+yxspXq+uuvz9A3+I5y01c1eXO/pPX7Q1BIQ93xNzTt5vc5rf+HYsWKSd1poO+TXrsdjXwZ38LUW2btnhnUF2XX1hvlJm/ts0YfpO006clXe9/kR3/XpicN44RmbAfypu609c54gSDI3KYhJ2UKxkH+BnWgqXvypt7IXwPCJFanGpBluGdN3twz6cO0u99umrGGekcuIL0mf7/dw8gUjFXaPkPejFUa4mWxoGMN9029kVZb7+TPvWvGOX+s0I5T9HXt3ERfCZO3L1No7ps+St6UXZOedGGeNYJuaMcY7pn5QZs3z4h/7xoot/beaTf6Km2nqXfSh5GhyVc7N1BexidtvdNuft5B753fk55DU3bSUHbSa6DcjI+avIH+ru1vlNmv98zqzXzQGMZOAEsktjy99NJL3pVtEyDWNUR6YusMVhlGalgRwTqH1WO2iiG4AYMboc0JqX3wwQerB1jDMAzDMAzDMIzchCloDGMnwvYbtskQ2Ulr+mpsA213pUqV3D333CPhr7UrDoZhGIZhGIZhGLkRU9AYxk6GPfBEBRo9erT74Ycf3MyZM0P5YygoYHGE6SfbjBo0aOBOOukk8fPDNcMwDMMwCjb4+ZkwYYJr0qSJbDswDMPID5iCxjByCKxqjOSwL7Ns2bKyp9swDMMwDCMetj+zaIOfusMOO8yNHz9e7WfKMAwjN2EKGsMwDMMwDMMw8gwDBw50HTp0kM9Yz4waNcrVqVNHzg3DMPIy5l3TMAzDMAzDMIw8A1G+4vEjiRqGYeR1TEFjGIZhGIZhGIZhGIaRw5iCxjAMwzAMwzAMwzAMI4cxBY1hGIZhGIZhGIZhGEYOYwoawzAMwzAMwzAMwzCMHMYUNIZhGIZhGIZhGIZhGDmMKWgMI5/z77//ul9++cU707Np0yb3zjvvuL///tu7YhiGYRiGYRiGYWQXpqAxjHzOt99+66pUqeI++eQTF4lEvKvBQCnTq1cv17VrVzdnzhzvqmEYhmEYhmEYhpFdZKqg+d///ud9Ck6YtBAm/X///ed90kHe2hdZ0oW99zDlJ+8w6bG20BL23nO63rV5Q5i8qfPNmzd7Z8H5/fffM7VqOeigg9whhxzirrnmGvfTTz95V7dBuf/8888s+8xrr73mBg0a5Nq2besOO+ww7+q2vrplyxbvLDiUXdvnaK8w9cZ9a62BqDfK/s8//3hXgkHZyVubP+mpd22/I98wdYc1lXacob3/+usv9fNGWg4Nfrtp+xzpw/Z3bZ/x89bWG/2dQwN5hnle/P6qhby1be4TZl7U1rlPmPS0u/Y5B/IOkz6nZYIwkF5b937Zw6bXEiZvCJN3mHzD1huEKfsff/wRapz67bffvLPghJ3TKbv2eWN8Y37R1jvjK+m1bNiwQZ03daadm4A6Q57R5h92bqTutO1G+rDyfxg5NKfmZfKm7NrnhTEiTJtT7jAyxcaNG71PwUm3v6dU0FBx69at886CQ1pth6fwS5Ys8c6Cs3btWnXeNNiaNWvUDUe9rVq1St1peNBIr52gmFwov5Z58+ap8+ZBp+41904a0vLip4HJaf369ep289tdy9KlS9V5U2/Uuxb6C+2+detW9+uvv+7QfljPPPXUU7LNqXXr1m7y5MmxyYT+Rr2nmpgRGJ577jnXo0cPd/rpp7vXX3/d7bXXXt6329L/+OOPbtq0aSn/RmbwnFNuDdzn/PnzvbPgUG8IFRq472XLlqn7K5A3fVYD/X3RokXqyY28FyxY4J0F5+eff1bnzdhMn9OOM/TjMPVGu2v7HM/N4sWLvbPgME5ohTHGl4ULF6rrjTpfvXq1Kj31RlrtywvpKbsWxuYw8oj/vGhhXNW2G3mHlSm4d61MwfNC+bXwrGv7HEKsdl4lT/qsdpwB8qYMmrrjWafemQM1UG6eGS3cu/blibyZn7TQXzTzOVBv1Ls2PfPD8uXL1X2OOtf2d57VWbNmeWfB4VnTyhTcL3OTdpyhvqk37cs6ZQ/TZ6ZMmSL1pwE5SjtOAPcedm7kWdek556pO21/J88w8j9trh0nKHuYeZk649419cY4sXLlSvWzSj9H/vffZYISRv6GMOOE/56eVb3tFp24ks5cdDaE2DJlynhXgsEgWbx4cVekSBHvSvr4AjwvlhroNMWKFXOFCxf2rqQPExsNt99++7m9997bu5o+1BsCQbly5dzuuwffQUZno8OWLl1alZ6y03HLli3rXQkGA8WBBx7o9txzT+9K+jCxIISWKlXK7bbbbt7V9KAb8qBT5/SboHDP1DtpCxUq5F1NH4Qw6q5ChQrelWAwsdFm++yzj3clGAyUe+yxh3cWDB5y+i1KlIkTJ7rbb79dFDGJbTBixAjXs2dPGZSuuOIKd/nll8v9Uvcc8f2N8owfP949+eSTsjWqefPmouRJrB/6aqNGjdz06dPdHXfcIUcQwtw38Lxo+ipQb9RR0L7q4w+umucUwuYftu7CpA+bd5h7T9ZfdyVh7j1Mf4UweYett7zeX1EGV69e3bsSDOYm2g25ICi0OWNuGJmCY//991e1HXnTZqTXwJbWgw8+WFX3CKLcP3NjUOiryIElS5ZUzelAel+mCNpvKTflL1q0qEqWRBZCpihfvrx3JRi8rFPufffd17uSPsjQyMGVK1f2rgSDeZ171sjvyGLcN/WmSU+9UfaKFStm2WZvvvmmu+iii+Qzz9fnn3/ujjvuuNBjjZaw+ebkvBg2fU6O7xAmfdh7z8m5MSdlirD3ndNyYJh7D9tf0yGlgsYwjLwDGnQEE1Y7jz76aDdq1KikAjmCD8qWqVOnyuDIZxQ1KEMRcBAKx40b51566SXRECMg3n333bI9KhEGqCZNmrivvvpKBliUOVdffbX3rWEYhmEYxs4hlYLGMAwjr6NXPRmGsUvJzPSVlapLLrlEPmNq2qZNG1n1TQSLuLFjx7p3333XdevWTbZrnHXWWa527dqipDn++OPFAoff3XnnnW706NHuyiuv9FJn5MEHH5S/BY0bN3ZdunSRz4lgiffBBx9IBCitubhhGIZhGIZhGEZ+xyxoDCMPgAULVi2nnHKKOOw94IADvG+2gxl8w4YNRUEDnTp1ci+//HJK82wefaxgsKSZO3euKE/YGsf2PPzMZGa+9+yzz4q1DGnZNoAVTaoticcee2ysTBdccIGUKd6PjWEYhmEYRhDMgsYwjPyKWdAYRi7nhx9+cP3795d95Z999pnr3bt3UkdwWNGwtalp06ay5WjgwIESdSlVWGx+w95V9vcfccQRIthUrVpVFDqplDNYw2BZc9VVV4lyBl9Pd911l6tUqZL3i+3w/WOPPeYmTZoknzmIIqV1aGYYhmEYhmEYhpGfMQWNYeRyEqNYvP322+6hhx7yzjKC3xkiLdWqVUusY4YNGyZOfFlZCgve3k8++WR3//33i/UNyhm2LnXs2DGpoy4chT/wwAPe2TYI952ZI2WcE4bxjm4YhmEYhmEYhpFXMQWNYeQQWJawVeiJJ56QiEmpOOmkk1yzZs28s22WKTjkxT9MMtj+9PXXX7tzzjlHrGNw/HvGGWe4c8891w0fPjxQaDksdQij3adPH9mqRJm5VqNGDffee++J75lkyhnCCaO4wSmxD9EorrvuuqRbrtie1bdvX7HEQbnEPbz11luiCDIMwzAMwzAMwygImA8aw8gBUK60b98+5siXUKI457322mvlPBEiK7Vs2VIsTHwIh86WJv5PBk6F33jjDQl97acj9CVKEBQ+rVq1cvXr108awnT27Nnyt9njvWDBgphSB2UMfmSwoiEMZjIITYr/G8J6x3PffffJ9qxk26cI4X3TTTdJiE0fHBUTvlwTmtYwDMMwjPyL+aAxDCO/Ygoaw9jFsPUIqxiULvGULl3ajRw5UixVksF2IZQt8VuejjzySPf++++LRUsqsHpBOfLtt99msGgBlDOk5X8UISiMsLhJjBjFtiQEnx49eohiJ5lSB0iPlQzbsHzwddOhQwcRppJZ21A+wnXHK598UA7hhNgwDMMwDMPHFDSGYeRXTEFjGLsYnOQeddRR4tMlHhQZp59+ekp/MSh2cNDbr18/+QykQUlDCGu2BqUCpc60adPcF198IUINFjLpgNKoRYsWYjVTt25dEYJSsWbNGnfppZfKNqp4qlWrJveE/5lEUOi0a9cu6XYtrH3wY8PWKMMwDMMwDB9T0BiGkV8xBY1h5AC9evVyjz76qHeWEXyx3HbbbUmtVIii1KVLFzdo0CDvyjawfiH8dps2bVJat/jgwwYFzaeffupmzpzpZsyYIQqff//9V5QhpUqVckcffbQ77bTTZAsU0aEyg7+3ZMkSKRe+b3xQHhEdCqUQobsTIU/879x6660ZtjYBabHWYetTMqsbwzAMwzAKLqagMQwjv2IKGsPIAdjOQzjsiRMnele2g4IFZQtOdpOBVcmVV14pEZTiwY8NjoHvvvtuV7lyZe9qeuD4FysbjbXK008/LeG0Fy1a5F3ZBlun2H6FhU8yKD++aggfngjlx6rm4IMP9q4YhmEYhmFswxQ0hmHkV2xp2jByAMJh33vvvbKNJxEUJViPYOWSTH9avnx5iXB0ySWXZHC4u2HDBgmxzTYprFawtklX/7rXXnsFUs5gbYP1Db5jrr766gzKGaxfUM5gTZNKOfPNN9+4yy+/PKlyhihP/fv3N+WMYRiGYRiGYRgFClPQGEYOceqpp4oiJhkbN250J598spswYYJ3JSM47SVEN1uhSpQo4V3dxty5c8U6B98uL7/88g4Of8PAdiYsW/A1wxaoL7/80vtmO+edd5776KOPRJGUDJwCd+7cORbBKh62M91www1iCWQYhmEYhmEYhlGQyFRBE2b3U9i0vAhqIa02/7B5Q3bce06VP0xa8g5772HvO0z+Ye4dfypB88ZS5MEHHxQ/L8lAgYEiY+3atd6VjKCkIarTq6++Kn5isFyJB2e9l112mTjpveeee8SJL9Y58ffJ599//122OCWDe+I7rHE+/PBDd+KJJ7rGjRu7AQMG7FAuykOobPzjHHbYYd7VjEydOlXSJzpI9sF58i233OKdZQ5lo1xa8HuDJZAG8qYuw6bn0EB62o3/NfjtriWIdVYifn8Kkz5Vf80K7hurrTDPeth60+ZNff3xxx/eWXDoa2HqjfvW9lfSE35f2+bkHabNIEx6yq0tO+nC5p2T6XOq3iA70mshLfeu/Rt+ei2kD1N+P5CAhrD3HabspAtTb4wVYe49p2QKYG7SpueeSa+tdz+9FuRVbd7kG6beyTfM3Eha7b3TVym7dm6FnJIpIEzeYWQK2iysLEe7afsc9x2mzxDsRUu69ZZSQUPhCberZeXKleoHjkrDCkDL0qVLxQJBA5W2YsUKddmpt2SWAelCwxFaWDtIIwQvW7bMOwsOzl61YKkRZpAmBPSmTZu8s2BQX+StfdhptzD1NmfOnB0c3abLc8895w499FDvLCOzZs2SbUKffPJJykG4du3a7scffxRlDEqSRPB3c/vtt7uqVau6Ro0ayZYknO++9957Enr7u+++k+1UixcvluduypQpskXqlVdecT179hRrFrYstW7deofQ4IDVC9uq8ClDOO9UjBkzxrVv3176aDKIQjV48OCk276SwQCZzIdPuvCcM05p+iv9bfny5WrrJIQhxintGEt62ko7STA+Ms5o+fnnn9XPGnXGOKMd41A0plJaZgXPED6ctPXGM869ayEt+WtgXkSxqX35IF/GWE1/J0/6qnZepd4ZY7SCJO3N86qFe2aM1kKfSzVuZQXPCWOFVhhkTiS99nlh/A8jk4QZJ8LkTZsxPmuVgkDeWlnOlym0L26UO0yfDSuHhmk38qbtNDBW0G7aMZZ643nTwjinnR+ARSQt69evV8/p3Pf8+fPVYyxtjkyhHSeoszDvfNSbNm/G1kQfhkGgryFTaOdG7p1nXSsL8rzgYkADZUbO18Kzpu3vyDPI+5r7Bp415iZNvZMmTL0xr86bN08tU/hl1xJmnPDn9KzKntJJMA87AgURXTTwoONng+gyQfEH+KCOTn0Y3PGnke6LXjw0OgNksWLFVGVnMmewIDyxBvLnYSPqzZ577uldTR9efnjotPkzyPEir4E+g0BB3onWHFlBR0UgwKpE024MkgzyOIrT1BuTIwNFsmhD6RCmvwMDzbHHHpvyhZ9tTFjENGzY0LuyI9QhEzzOhbNSXNA+KFb8CEnx7cWQwMHfy2oAKV68uHvmmWdc27ZtU0aP4m/hLBhnfqmUWAcccIBElcKCxjAMIzthfkCmqFKlinclGMxNjO0aJ+r+3KaVKZhXmReYV+N9jqUL8gxjMHOjBuamQw45xDsLBuVGjixbtqx3JX2oN154KTc+0jSgkMS6VNNu9BnqjvTJFj6yAlkQQVxz70B/Rf7W9BnKjhxcsWJF70oweFmlzhO3T6cDeXPf1Jmm3oLIYuYk2DCM/IpFcTKMXMKIESPECibVqhvKK/yz9O7dWxQjqUAwxOIGpQhWK2FWo5JB3ihSsKjp3LlzpkIcgh6+ch555JGUyicUgs8//7xr1qyZd8UwDMMwDCM1pqAxDCO/Ygoaw8glsGL42WefuebNm3tXdgTroJo1a4pz3jJlynhXk8NKFFZFAwcOdC+88EIoM0qoXr26OAC+4IIL3IEHHiirkplZSrFlDOGJiE2pLHFwJMzWqBNOOMG7YhiGYRiGkTmmoDEMI79iChrDyGWgpOnevbv4hEkFps933nmnO/fcc12lSpW8q5mDz5KxY8eKooYDixaORL8/mCWjfMGknm1bderUcQ0aNJAtWOlsH2OLHo6CcWCc2T52nBezPSozhZRhGIZhGEYipqAxDCO/Ygoaw8hl8EjOmDHDnXnmmSm3OwHKkoMPPtg9/PDDrmXLlt7V9GAbFP5gOBKdILL3HH8yKGn43/dTkxXsPWdrFYojFECZOZHFpwFOio855hjvimEYhmEYRnqYgsYwjPxKem9ehmHsMtg2ROQmHP2eccYZKR1DohAhKsxZZ50lB5Y3OBZMB/zZ4DsGB4Y4zow/cNiLhQ6/SUc5g8UMglGLFi1kCxTezVMpZ1AqnXbaaeLw2JQzhmEYhmEYhmEY2zEFjWHkUohi8O6777pbb701y2gKWK60atXKNWnSxPXt2zdUyPB0IboHZSNPtlqhpMkq3F6fPn3E54w2KohhGIZhGIZhGEZ+xbY4GUYegAhPPXv2lDDaWM6kw+mnn+46derk6tevL75kUPJow4BjEYM/GZwOjxs3TiIzTZs2LWXY7HiwCEIhQ5rGjRt7Vw3DMAzDMHTYFifDMPIrpqAxjDwCToMHDBjgHnvsMbdx40bvataULFlSHPJWrFjR1apVS7Yw1a5dWyIoIdRw7oPyh7+NMmbJkiVy4FyYrVR8xicOobPTpWjRou6mm25yF154oZTBMAzDMAwjLKagMQwjv2IKGsPIY8ycOVOEktmzZ7s//vjDu5q7wMEwfnSefPJJV69ePe+qYRiGYRhGeExBYxhGfsV80BhGHgMrmO+++05CWbdu3Vq9bWlnQFk6dOjgBg8e7MaMGWPKGcMwDMMwDMMwjDQxBY1h5EH22WcfCa09ZMgQN3369JiiBn8vuxoiPZH3Oeec4yZNmuTeeecd16xZMwnRbRiGYRiGYRiGYaSHKWgMI4+DA14sViZPnuyeeOIJd/bZZ7vSpUt73+48KlSoIOG9yXPKlCnuo48+cjVr1vS+NQzDMAzDMAzDMIJgPmgMI5+Bo1+OH374wb344otu6NChbuvWrd634SAaFNGhOnfu7Bo1auT22GMPt+eee3rfGoZhGIZh7HzMB41hGPkVU9AYRg6Do18UKFqrF0JfFy5cWI5k/Pnnn27RokVu6tSpbvny5RINikhMmzdvdps2bZLv2abkb4/aa6+9XJEiRaQ8hOYmyhNWOkR+OvDAA2V7lQ+KIPLXlp1yUG6iPWngXrTRoTZs2CD3ikPjoFvD/ve//8XqnbrSQP1Tf0TZCgr5r1u3ThRm3ENQCI9OpK74CF5BWLNmjStXrpx3Fgzy5ihWrJhqS96WLVskHe0WFOqNdidtquclK5YuXeqqVKninQWDOidvjd8oQt2vX79e6l1TbzzrTPfUO897EKg36p1ya8pOep71smXLeleCwbMClN0wDAOSKWhq1KghC0ea+QEWLlzoqlev7p0Fg3GKsQ65SQMRNNkaHi9jpQtzKvkjT3D/QfEjg2rLjmxZqVIl7ywYv//+u8hCxYsX964EAxmav8G9B53bgHojnVamYG5EntBs62dORpbTzo3IBOSrnRvDyDPIFKCR5bhv+hwLvBr5/7///hNZTvvuQdlpc+27x6pVq9TyM/2F/s6zllm9pezJvHwsWLDAOwsOL4NBQgHHw8sqWya08NLmd5yg/P33327ZsmVqiwM6DFF2eGg1kD/1TuNpoN14GdfyzTffyECvYe3atVJ2jc6P+iKMM4ONBsrMxMogrYF2mzVrlncWnGnTpqnrjbZmgNbCw86RCiaOww8/3LVv39716tXL9e/fX8J1sy3qgw8+cK+++qr78MMPRbjhGDFihJy//vrr7plnnnG33XabpGX7UqLgwHPC86KFsN3aSFS8sIaJYkVfIb3mZZfJgTGGMmigv1N32j7DM0b5teMMeWvHSOBlW1t20tHfqUMNKDk4NPCsrV69Wt1vKDvKKS2Mz9o+4/c5zfgKtDnjhCY9aUirnRfppzzrWhAiGaO1MK+OHz/eOwsOcwv9RgPtzdymnZuQoxhjtc8Ldbdy5UrvLDijR4+W+tNAm2vnB57VOXPmqOsN5s2bJ4K0ps+zcIEsqe3zPC+UXwtypHaco86QSbTQZuStqTfajZd17fxCvSH/a2Vg2lv77kE/DyM/M0Zp75vnm3vXzg/UF+m1MgFzW5gxlnrXjhMoSLSyP3DPyBQ5MTeSN/1NO07R7mH6HPMScoUG+loYOZA+o5UDfXkmTHr6jHZepK8ix2phbtHCfafTX1Na0PCwI8RqtXLcOJopzSolnYYOr9WM8bCzqqzJ279vXkQ1WzfobEzsWi00nY3yU+8aLbj/0qbVCoZZGafDU3/Uneall0GSOteu0FLvtLvWooB61/Y5Bgq0/5q8DcMwjJ0LAlGZMmW8s2AgUGlX25jTEf6xtNPMD8xryERaWYx5lbJrVuWBF4Dy5ct7Z8Gg7MzNWitD6p202m20pA9j9UX5WZ3W5E962l1rFRBGhkYOI7223Sg38id5B5Xl6O/I0NSbxqKAvk7+6ViW2hYnwzDyK7bFyTAMwzAMwzCMPIMpaAzDyK9YFCfDMAzDMAzDMAzDMIwcxhQ0hmEYhmEYhmEYhmEYOYwpaAzDMAzDMAzDMAzDMHIYU9AYhmEYhmEYhpHj4OQ4TJSUVOD0ee7cud6ZYRhG7sUUNIZhGIZhGIZh5ChEcTrnnHPcoYceKgchu8NCLJQZM2a4ww47zNWoUcPdeOON6vC8hmEYuwJT0BiGYRiGYRiGkaNMnjzZjRgxQj7Pnz/fXXjhhW7t2rVyruW7775zZ599tluyZImcDx48OFsUP4ZhGDsLU9AYhmEYhmEYhpGjHHHEEa506dLyGcuXr7/+WkJna5U0CxcudK1bt3aLFi3yrjhXuXJlV6ZMGe/MMAwj97FbdACMeJ8No0CydetW2fNsGFCiRAnvk2EYhmEYu5I5c+a4Tp06uYkTJ3pXnGvUqJEbMGCAq1SpknfFuTfffNNddNFF8nm//fZzn3/+uShzfMaMGSMWOMuWLZPz3Xff3bVq1cq98MILrlSpUnLNMAwjN2IKGqPAsX79evfWW2+54cOHu5kzZ7rffvvN+8YwnNt3333dkUce6dq0aeM6dOjgSpYs6X1jGIZhGMbOBouXY445xm3cuFHOd9ttN3fQQQe58ePHx5QrmSloli5d6o4//ni3evVqOQeUPB988IH81jAMIzdjChqjQPDrr7+KQmbQoEHum2++cZs2bfK+MYzUFCtWzJ1wwgmuS5curkWLFq5o0aLeN4ZhGIZh7CzYntS2bdsMljSnnHKKe+ONN1zVqlWTKmjq1q0rMl67du3cmjVr5DssZ8466yz38ssvx7ZPGYZh5GZMQWPke/Def8EFF7jZs2e7v//+27u6HfYi77333t6ZUdBJ5jyQ/lGtWjU3cOBAd/TRR3tXDcMwDMPYWRAWu0GDBmL5DFjSYOE6atQo9+mnn+6goMHi9bTTTotta4IzzzxTrKb3339/74phGEbuxhQ0Rr6FcI2vvvqqu/nmm2PbmLCAwOy1cePGYu5au3ZtV6RIEfnOMACfRNOmTZNVOAS+cePGuT/++EO+o/8888wzsqpXuHBhuWYYhmEYxs6B7UrnnnuumzJlijgOhoYNG7omTZq4O++8U86LFy/u7rjjDtevXz/3yy+/yDUsZ8444wzxXWOWM4Zh5CX2iA5u20Y3w8hH/P77765nz57ugQcecFu2bJFrp556qpjEXnPNNbLCgrO5vfbaS77LSf7880+3atUqtXNahBGUURqFARZFREfYY489VHVB+pUrV6rLPm/ePLfnnnuqyo7S5Oeff3blypXzrgSDOv/f//4n1jGsyvkUKlRIojyceOKJ4lCwadOmbsGCBRKik/sdOXKkbJGrVauWpNNYX5Ev+XMP+LwJyn///ecWL14sW7AQQoPCM0G7affiUxcoNuk3QeGeMT3nvjVlp7/zfGsUqzgDp97pc5r+/tdff0mf1UYAYTWY/kIfCwrjxIoVK+RFJL6/pgvbPPkbPGtB09PfSK8dZ0hPyFytY076C21nSlHDKHggX5x00klu2LBhMZ80jIWE5GZMA8amsWPHZvApeM4558h2qCDjztSpU1358uW9s2Dg74a5STOnM74xJzMnauYH8mWcZBFJMz9Qr4zxyBQamBdJq5EJNmzYIO2mzZt5mbrj3jUyBfkjl2jmRtqNeiedpt2QBZELtApElJcoLTVzI88OeWvlGd4dkIm1MgWynHZeJx1jgLbN6eu0u7bPsTOjbNmy3lkwyBsZHBk2s3pLeVd0uB9++ME7Cw6OvLRh8ai0zz77zDsLzoQJE+QFQgMvXtOnT1f7KOGef/zxR+l8Gli9Z+We/zUwSM6aNcs7C87QoUNjE15QeFjotAw4QaG+2GfMS6cG6ov09B146qmn3EsvvSSDLg/BDTfcIPdWr169pJPn5s2bQ/V3+qtvghsU6kszwMSjVTSRr2ZwjUfT3vFoJnTQvmT7kC9CXWb3zsswipqPP/5YVucQFHk+sKJhVQ7BQAtl17Y7ZSYtk5QG2izZdr90Ia1GGAHKHqbP+feuhbTaPocgFKbPUWfa54X+rm1vYIzl0BrNUmdh7j2MpSJtpp1Tgf763nvveWfBYXssLwAamIN++umn2NwUFF76kGm0Yw0RceJDDAdlyJAh3qfgIEshE2igvb/77rtQTvx52da2Gy+8lF3bbgjhX375pXcWnO+//z6Dg9sgUHa2AGmh3liU0IxVyGIEX+D+NSB7I4slPu81a9YU2Zgw3MwBlC2+b3DuL8YxXrAghwwYdFuTdl7z0c4tlJn70o7P/pwYRibQ5u2jrTsWLZjftFDuMPIMfc2v/6CQLqwMHWZepb21fS7snE568tf0G7++tPM6eZJWe+/ahWGfMPXGvadT7pRbnLhxBAu0UxrCCPAQJj0vXVS+9oHh3knrD3hBoDoZ6LSdhvR0+DCNz/1r04epd8pN3ZFeU/f0N+pNkz/1Rtlp98GDB7vu3bvL5I0y5oknnpB9ypn93bD1Hra/G7kf+gfhOa+66io5p6+98sorsT3whmHkXnh508ozPPthXiBIjzyhkSmQJzi0+TO3MS9r04eZ25jTuWeNlSHwso8QrZWnwtQ7dYZSjPy16cPI0OStrTcIIwdSb9R5GBkaNO2WVX9F+UOERRSPyaDMfI9yxqI1GYaRVzEfNEa+Aiueww47TIRxhJPevXvLHmWtgGcYiWA906tXL7GkYTXviy++UJtEG4ZhGIaRPljI41uG7RnxrzAo0oi6iLW0djulYRhGbiD4soBh5FKYqFk1wbwXsGzo27evKWeMbOWKK65wnTp1kpU6thOisDEMwzAMY+dDiG223rFA4sN8fN5557lPPvnElDOGYeR5zILGyDdgEnzooYeK0ywmcPwgZWbZQNjFZ5991jvLmkGDBoljYcPAJ0X9+vVjvqpwdmZCoWEYhmHsGrCkIRrnunXr3NFHHy2+4gizbRiGkdcxBY2RbyCk9qWXXiqfr7/+evfQQw9luu/+3nvvdbfddpt3ljXLli0zBY0R49prrxVn1MA2OpwIG4ZhGIaxayCgCVudjjnmGLW/H8MwjNyGKWiMfMNRRx3lpk2bJp+xnjn++OPlcyqIEDFmzBjvbJsFTv/+/cW58FlnnbVD+quvvlqi+hjbwJGf74hwZ24j21X5BIWwlBUrVhRHlkSMYPVOG7LPMAzDMAzDMAzDFDRGvoBQmrwsQ5UqVdz8+fPlhT4IhNo+8sgjxWwWvyI9evTwvjGSgQUSliPdunVzjz76aKgwupnRs2dPsVS57rrr3H333ZeromU1btzYjR49WrbWEVK1cuXK3jeGYRiGYRiGYRjBMCfBRr5gxowZ3ifnzjzzzMDKGSM4ixYtEuuWn3/+WcJy7iwWL14sf3/y5MkS8jU3Ua9ePfkfBSGWV4ZhGIZhGIZhGFpMQWPkCzZs2OB9cmIFY+x8sKB55ZVXxNHyztz69eSTT0o+WNHktj3mBxxwgPz/xx9/xKKHGYZhGMbOhq3cWHCyXbugzT8siLBok518+OGHsthiGIaR05iCxsgXrF+/3vu0bYuTsfNBOdGlSxd3+OGHe1d2DjhmJp+aNWt6V3IPRIzAETWWRERyMgzDMIxdAdt/zznnHHfJJZcUOMUCCqkrrrhCLHmzgylTpriuXbuKTznDMIycxnzQGPkCfMZcddVV8vmTTz5xLVq0kM9BSMcHDZYSP/zwg/hbOfbYY8V57aRJk2Ryb926dSys9//+9z+3YMEC9/3338sqD7+rXbu2O+WUU1y1atUkDY8eoSH33XdfScNvpk6dKoIHDo/5HifGrJJxrXr16q5Vq1ZJFVA4Rx47dqxbu3at22effdxhhx3mGjRo4EqXLu39wrk5c+a4VatWuUMOOcSVKVPGffvtt3IQovKggw5yp512mpSHe+Q6ZWeVqm7duq5JkyauXLly3l/axrx589yKFSskvHStWrXc7rtv0/dy72w5+/HHH93y5cvlun/viSEwqRvyoQyFCxeWSAzHHXec23///b1fONlCtXr1ale2bNmkShrqjLxoA+De8A1D+yT6xdmyZYv76aef3N577+1OOOEEqRPqjXJwrWHDhq558+byOR3efvttEY7ZgjVs2DDXsmVL7xvDMAzD2HkwxyFLIHd88803MrcXFFBIIZfgmB+ZL17WCQoLLOedd5776KOPJCJUQapHwzByKShoDCOv8/TTT6NolCM6WXtXg7Fp06ZI1apV5W8888wz3tWMLFy4MBIVCCK1atWS3994442RkiVLRqICUmT27NneryKRqLAUqVGjRmSPPfaIlYvPlSpVijz11FOR6tWrR6pVqxaZOXOmlyISWb9+feTEE0+MlC1bNhJ98Y/Ur18/svfee8fSczRq1CiyatUqL8U2Bg0aJPnvvvvusd8VKlQocsEFF0S2bt3q/SoSueqqq6Tsffv2jfTp0ydStGjRDH+bvzF69OhI586dI/vuu2/s+p577hlp2LBhZN26dd5f2kbPnj3l73Xs2DHy999/e1cjkbFjx8q9xf9t7uPwww+P/Pnnn96vIpHBgwfLve62226x3+2zzz6Rbt26eb/YRteuXSWfLl26eFe2QZ4PPfRQpFy5chn+BkeJEiUip59+emTDhg3er7cxdepU+Vu0zdChQ6U9EuuNNo2/n8x46623pH5IO2zYMO+qYRiGYexc6tSpI3MPc/fcuXO9q8FhXkaeyUusWLEiUrNmTZl/H3vsMe+qDuQ9X1YLU487k9WrV3uf8gb//vtvnutThpGbsC1OhhGA6DMjljZLly51vXv3FksbLGKwnNhvv/3kN9OnTxdrGqwzWInBh8rIkSPdCy+8IJYqffv2lfRYc2Bt4sPfxlLm119/lb+Ndco111zjXn/9ddehQwdxfPzVV1/JfnOf6ATonn76abdmzRrXuXNnKduyZcvE9BkLkXgLkqgQJt+zSvTGG2+INc5LL73k2rVrJxYjWKl07NjRDRkyxJ1//vnu1VdfdRdccIHbbbfd3IQJEzKEJAf/72FxE89tt90mjn3PPfdc2fbDfXDtpptuilmmsCXt5ptvFsuZa6+9Vu4bU+VbbrllB+sn/j75kF88lPP222+Xv3X22WfLOaGuL7zwQtl2RFSl7t27ZygfK2X8LaykbrjhBtk+1a9fP6kPrHewYho0aJBY/hiGYRhGfgZLWKxy8SPHHJrXwHq1T58+YkUbFGSuzz//3F155ZUiG+RGKOM999wjUUobNWok8mEiWDo/99xz7oknnhDr55yG8px++unSp5D7kKsMwwhI9OE3jDzPrrKgWbBggXyP1cVee+0lFhxYvvhgedGhQwf5zQknnCAWN/H88ccfYqHC96VLl45Mnz7d+yYS+eWXX2IrYoccckhk1qxZ3jcRsV7xrVJuv/127+q2VRWsQSjP448/7l3dBisY8WCJQnrKHf/b6OQpljl8V7hwYbl3Py2rVFgL8d3zzz8v13yiQo1cb9WqVQaLk8qVK8v1O++807uyrV7iwdqoQoUKUhYsWXz+97//SXni6dSpk/w9LHV8okKKWN9wnfqMCgTeN9t44403xBoHS5qJEyd6VyORSZMmSRqO8847L8MKDxYwRYoUEeuh+HbJDLOgMQzDMHKC7LCgefjhh2NzInM6c3BewLeg8cuOzJQob2XFxo0bIyeddFLsb3DkNgsaZLEGDRpI2ZDzkEETocy+RfStt97qXc05Pvvss1h9VqlSJc9Z/xhGbiClBU30u1Aa5egLmfdJR5j0aNQpf16EclP+ggj9Ld6iJAhh25v0QbT8lBOHcjfeeKP4S/H7K9YcM2fOFKsTrF4OPPBAue6Dn5WLLrooQ9QjrGCigoV3tg2sT+Kd77K/mrQQ/1zib4bvKM8dd9whKy34o8FKZI899vB+lZEKFSq4Tp06yee//vpLLGfwIwPHH3+8WM34aYma5H+XCvKKB3803P9DDz0kFi5YEmEtFA9+Yig3dY4Pl8cff1x8yVAXWL9kxbhx48TfTqFChdwDDzzgSpQo4X2zjfbt28u+/KgAJhZDiVBvWN3EW9fgY4e/lw6UGysbLH800N8oP3WvgT6Aj6NE66V0oZ5ZOdWCj6Egz0s8fn/XjnPUGRZjGsgT6y5W+DTwnPN8a6HO6ZMaaGvSa+dl6o0+pxkrqTcs4eKj5QWBMtNntOBvgvzDoO2vEHZOJn2YuU3b5jkNdR5mbua+w6TPacL0mzD9FdJNz3yPnzmsfdu0aSNzd5j+mlMwH2JFwjiRzrzKPWJ5k2hxghyihXy1czr1TdmZH+PZfffd3cUXXyztg9VzKl87/nOibTfm1DCOprGy9vv7iSeeKL78Dj74YHf55Zfv4L8wEeTm+fPne2fBQb7EAls7TuKbkfvXjDU8Z1hkJ7NsSgfKjNW9FqzxtRbfYedlX4bV9Dn6Cv1dW2/IYrxbaNucvk67aZk4caL3KTjcM3JoVvWWUkFDxYUpAFsxtEI0wjOhA7XgLFTbYXnh4mHRCvBs6SB/bachf5ymal/8aLcwoQc/++wztXKMOkc5oJ0geNgovwYUDWFgkMF5bBDYmuPz9ddfy8sLEQCYYFGm4NQ3GSgT4hUBbPvxt0cBypF0IyMVK1ZMtgWhWCFfFCJMjih4UGIkA1NZFCRAXvwNhABAoRQ0lLW/bcmHLVcnn3yy9GEURjj9ZQsYdeSD0octXzglpt7YboQTYQTEVOWOx1dosb0M58GJUL8oioBtVInQPjhSTlTspAv1hZItXYVOIgjBOIfWhg0nvR9BSgPpUgl66YCST5s3W/Vof7/PBYU68x1rB4U8afNE59HpQtnD1Bv3re0z9FmeW229+f2NvhMU0oSpd9Ine07ThfaKHyODwrhMCF0tzOkIVBpQrJFeq5hDjmJe1b6wI4QmLgAEIUy9kTfzugbkEGShxBfWIFBvvHxpYP4ivfYFAhkynbksFV988YVaHqLOErckp4KFDOR1gh+whQZoM9pO88KKLDZr1qyk8246sODDdqWgyi3kTracf/rpp2nN66+99pp78cUXvbPtEJ1SC2NkmDmdtInzA9cvu+wy2do+YMCADIt78fjjeph5VVt2oN58mYDxmoUxAlygBMsKZMgw8wN1xvygvXf6C4dfh0HwZYowMklWCqzMQH5PDL6RLsj/Yerd7zPaeqPsLJZqoK8xdmnb3F/c1oIMrAVZDlkwq3pLeWf4ZqhXr553FpwzzjhD3el40Jo1a+adBYfVgMqVK3tnwWBgIZKPVhikwXnpTGW9kBU85Lzcal8gePnGl4YW2k37AkGfIVqP9oEhQo+23XzrEi1MLvhsCYKv5ICmTZvKIMm90/YIF6kEcpR38YIPk1N81CL+Rrr3wwOOzxYiEb377ruiqOHvo+AkqlWy0M+8ZPowyDG5+G1GOYK2X2J/wc8OypgPPvhArFS4VwRthD8iMvnUr19fBFh+h1KJF5BRo0bJnuWs8CckhOhkQiTX/JeSZM8i9cbkkKhcShf+JoKSVkkB/guzBtqItopvyyAwvmgndSBvzaQMTIzxfS4oYQRJ8uS+tWMc9xxGmKLetAIJeTMvaeud/q6dV+jvtJm23qj3MIIg960VgIG0bdu29c6Cg0yBMlgD7U167fOGEMqcrn3Wq1atmnKxIB1YtdfCCjqKcA30tZNOOkn6nRbkEe0LN88K6ePn5iDQZym/FiwQkOc0MDfhAyRdGE/j+yeLGyzWaMYa5lRkuXj5CFCgoHTjyEzxwzjFu0eQuZVngzEKeeDqq6/OcmUcZetjjz0mMgf+d3hGfNIZp+LvJX5BMujcRD1QBmQ26pq+nkr2o1za8TsV8ffBGJlK+ZMV3EfiCyttkpX1tQ91Rt5+fQRVztFXKL92YZx61b5D0O941rWyJO0eZm7kuQ0zN4bJm3qj7TTjBDIBba6Vh0jP86KVh8LWWxhFLvXGOJdV2XUSsmEYSeGhZ8BjknnnnXe8qxlhZUu7mpoKJgm29bBi0b9/f5ls5s6dq96SkB0g2A8dOlTCT/tCLiuS8VBOfodC56mnnpJr3ENWW3cQ4JgQsdp66623vKvbYRsKVlEI+ZqQ64ZhGIaR32GbApbTHAQY8MGi2L+ORUwq+M7/XTKLH2QQrGVxxMv2brZXEzSARaXsAivd66+/Xl7UseC59957U76sY6FDEAUWi5A/Hn74Ye+brMGajSACWE9zH9wP9/X+++9nasWNdRL141tpI9+8+eabEgSC7UsEM2CBLZnlPEoLLPBIz3YslCk+WHf51/37ZWHKbw+OZGBVhkNhlFncB2XA0gXro1T1Rr7+32Q7kQ+WXiyqkdaHuvB/y9anRNhGxnfs0iA/LByRl/k71CkWQ9RPVrAAifzHYiT30a1bN3fffffF6hn5kHywENNuBzeMHCP68BtGnmdXOwnmiHcOHA9hrP3f4NgW57///vuvOL/9+uuvxREt35VO4SR4r732ikQnK+/qdg477DBJF+8ELjrpSNju6OQZiU504uDvxx9/FIdxBxxwQGTx4sXeL7c7CT7llFO8K9tp3769fHfDDTd4V7axcePGyMknnyzfpeMkmPxxDoyDY8rDEV+vY8aMkd9xrVevXuLozy/3uHHj5DfUSzzRiVeuxzsJhiuuuEKulyhRQkJ7U7/Uc1TglHvku9q1a2cIS+47Cd5///0zhEUH6m2//fYzJ8GGYRhGric7nAQzb/E3OJ599lnvaiTy3HPPxa4zn0Zfur1vtsO8fdxxx8XKsDDOSS/fffnll5HixYvH/s5uu+0W+8zRu3dvCfGtAdnBdxJM+ZApfFmFg/InQpkefPDB2G8I6AC+fMKRqh6RpQjI4P8u8ahYsWJk/vz53q8z4jv5rVu3bmTlypWRww8/fIf0HMholDEe5KM2bdrI9+S/Zs0a75uIyJOJfyPxiIe/PXz48EipUqWS/pajXbt2GfLw4Zr/G+oQWevqq6+OXevfv7/3y4jIXP710047zbu6nbZt28p3jRs3jmzYsCHSsmXL2O/jj4YNG0Z+//13L1VGkDHj2y3+KFy4sDi/9h1gJ/ZNw8gLmAWNkSdgtWPEiBGiac/tECKbVQCsN1gVwUyaLVDHHnusi05W4msliBlsZrCSgTNeTKHJkxUR/qeesEwJsx1DAytwjzzyiNwvzn9Z0WjSpImYHLONiZUuYAXl5Zdflmv8DkdyhMfGbBE/NOnAagt1iTUSebC9i+2BbEXASok6uf/++2WLQE7Cih0rbNxzdMz1rhqGYRhG7qRz586uTp068pm5i23KieAXBesOwM9c/Jas9957z3Xs2FH84eDgloAK/fr1ExmFbdBAcIBnn31WPoeFLQP4vPO3xGFR880338hnH7ZUP/roo/KZ7WfPP/+8fM4K/g7bFPHNg7UyclyvXr3cddddF3MpgPUQ1zNz+Iq8Rr3Onj1bZBWsPrDw9bfXIBN98skn8jkdkCOPOuoo2UZIuYCtZVzzDx+sul955RWxtMYpL9sskBFvvfVWkb+QU4F2a9euXabW1zhkvvTSS8VaG0tmtolp5CzqrHXr1mLlgosBZEDO/e1CWB4NHDhQPseD5c1ZZ50lciW/JS3WSMje9Dm2ztDfsBIyjDzLNj2NYeResBApWbJkpFChQqKxT0Z2WdAQGpuwgNGJ0ruakeXLl8v3HGj+U4HWn1WGSpUqxcrF58GDB0eiAk0kOnFGjjzyyAyhtH/99ddI8+bNI9WrV48MGTLEu7odQmGTb1TA8K5sWxEZNWpUpH79+rF8WLGKCic7hLa+6aabJL2/ahTPtddeK9/dd9993pVtbN26VVZU+O7tt9/2rm7jrrvukuvdunXLYEHDShNWNX55ooJDpE+fPhlWQlgVwpqGFRLfAgXLovvvvz+yefNm71fb4F7IJ1nbs/pGfRCy28+Pg/vBwilxNWrGjBnyt6j/xHCVtMsRRxwhq1tRQcy7mjnpWNBEhVL5zT777CPWRalWhAzDMAwjXXamBQ188MEHkegLsHyHJWsitWrViqXFMsRn9erVIq9xHauPZcuWxeZi5v558+aJFSvfMzcyLwcl0YIGyOPDDz+MlQnrjXh5wre4QJ789ttvvauZW9BgDeLXMwfzOdZE5MWBFfMDDzwQkwOwlknEt6DhwLoDORDZBatfZCffupnj0ksv9VJtIzMLGr5Dnpg2bVoszDZWSVzzD5/JkydLP+E3WAlPnDgxJrfxd5D1mjVrJt9j6dSzZ0/5zifeggYLHOQ6ZNipU6dGtmzZIvfik64FjW9Rde+998rfwCqHMiF/++mvueaaDHIcv0NO87+n7qlL7oHfUQ7k9AMPPDD2G7OgMfIipqAxciVMekOHDs1gsrr77rvL5JOM7FDQ7AyYNFAEIKAkKkyyGyZYtknt7HzShYmU8mSlkGAbFb9LZkKdLtzz0qVLZRKmHnYVWSloEBhQZPl9kwNh76WXXpI+bhiGYRgadraChkWj008/Xb5D4cI2YJ/PPvtMZDK+Y2HFB5mnR48ecp1FCbYVJ8I2ZLZT+/ledtllki4IyRQ0wAs6yiT/5f+WW26RxTd/SzQHL/UoA3wyU9BQP2w75+91797du5qR3377LYMSZ+TIkd432/AVNPwNFA7xeQOLQ37apk2bele3Qb2kUtD4UGZfQRO/BT6ee+65R75HQZRqCz+KMl9xxu/it/HHK2i4Dxb6Usl26SpoOFjMS2TJkiWxcrAAGK+g4b3AdxNw3XXXeVd3BJmSxU5+ZwoaIy9iW5yMXAdmi40bN3bRCSCDiWrXrl0lpHRegi07RNAgwpU2Cke6YLKK1/ydnU+64CGd8mTlpR1zVH7HljAt3DMRwIg8QT3kFqKCjIQQjwqEsQgJUYHVRYVF6eN8NgzDMIzcBkEP7rjjDvn8999/y1zG/9EXZtmWwv9sX2Irsw9bmnD0D2z/iY8qitNWth2zJcXfXoScwDYV/lZ2sOeee8pWKmQKwAkwTmTfeOMNOWdbD9uT/C1BWeGHuGc7Uart12yrYouNj3//iSAPsoUnMe8wkXTS5fPPP5f/kUWJEJYMom+dc8458vnPP/+UcOfJQMZiC5k2Ao8PbX/33Xd7Z9uhnvxtTongAPj333+XyElsEUsF7R8kkplh5DZMQWPkCiKRiPgvYTLFVwv7nRmEefFmbzMTHpEA/P3FhpFXQLBjbzTKRoQfBId///1X+jgCBILdjBkzvF8bhmEYRu4AP3HnnXeefMa/Ci/t+DAZMmSIXOM7P0oj4P8O2Q3Kly8v/gNfeuklUUywWIXPE5Qx+GvBh8nChQslgiOKleyCxRqiACEvMtcOGDBAylSlShXxU5Oucgbmzp0r/6NMyMynHz5lfPBVkwwUD4Sezwl8nzLIIyg3ksGCUnxY/FTRRpFhfH+CYUABGFSmX7VqlfzPfeB3KDNyy2KlYWgwBY2RK8BRHI5ecfzK5A+1atWS0H1vv/22OIA1jLwMDvsI0clx+OGHyzWEpmeeeUacKiOsWihIwzAMIzeBw1Ve6rGOweE9cxaWzkBIZBQPPig/fGXLqFGjRK4jFPXQoUNFKfPhhx+60aNHuw8++EAsW3aW9UizZs3E4ideGYNyyJ9708VXPv33339iSZMKX24F33onGSh6cgLfETEKq8zuY8uWLd6n1CCbZweUKahizr8PQnljzWUY+RVT0Bg5BoPr2LFjxYs9EzWrDmjwWf3o2bOnWBywDcTfGmIYeR22cSGkzpo1S5SSrKaxmsiqEJY0RKUaPnx4nohWZhiGYeR/2KZ09tlni6UzCpbnnntOrt9+++0SNTEerCJ8pQYWGChI2JpOtKeRI0e6c889V9LsCuuGHj16SHQiysC24kRlUjrUqFFD5FIUMEQVSgbKmxdffNE7c65+/frep9zDoYceKv+vWbNGojAlA7mDKE5AndWrV08+JxJmO3pYUA5RNha3iOaUCrZozZ8/3zszjLyHKWiMHAGzUXzKMFkTPhvYc8o1XlAJ1RxvNmsY+Q2ERfo6Jte+qe6ECRPE99L555/v1q5dK9cMwzAMI6dAmYIyBt8jbEVnbmJxAcuaRJDj4n2coLDBR82RRx7pXdnG0qVLvU87j9KlS4vFKhaqffr08a4Go0GDBq5ChQqykIJcmqzcX3zxhSiuALmVENC5DbZX046//PKL+BWKt/jxeffddyUUODRs2FB8+uU2KJe/TRzFH76QEmHxl3DuWGoZRl7FFDTGLoVJgUkAJ3HsEWaywGTx6KOPdp988omsQiRO5EbWvPbaazscb731llghIVAxmRm5C1aBWNXq27evOPDDeoZnYfPmzbK1j/379957b2zPtWEYhmEkgsKEF9eKFStmeWiVBwcddJBsQceahLmLbUv4AUkGL8d16tSR32I5gx9BFBhYjuJ7DQezKHjGjRvnpdh5kA/+cnCOqwHHuW3bthXLG/zlYMGBfIV1Blbf+Ldp3759TJZF+ZEbrb5RUqFswgrKlzewaOKepk6dKtZGWLKz/QmF1OOPP+6lzF3wfkB7sDVq9erVsqCFw+nZs2e7efPmiVU+fpFefvnlbPVrZBi7HEI5GcbO5u+//44MHDgwUq9evUh0co+F2KtWrVrk9ddfl5B4YcitYbZ3Ff69JzsINdi1a1cJBWlkL1mF2Q4CYbfffffdyPHHHx9rO56VI444IvLUU09ZWG7DMAwjRnxo53SP+vXre6m3kVmY7USWLVsWOeiggyJVqlSJLFq0yLuanOjLsoS/js+bUN3x5xdffHHkzz//9FIEI1WYbQ2ZhdmGzZs3R/r27RvZe++9Y78rWbJkLLQ1ByHFCWWdLPS0H2Z7r732imzYsMG7up2VK1fG/s7OCrMNtAl/388L2aVcuXKRfffdN3atVKlSEsr634RQ4PFhts855xzvanLSDbN98MEHy70nQj874IAD5DeJYbZh69atkZ49e0p9+vkULlw4st9++8WudezYMdKuXTv5bGG2jbyIWdAYOxUsN9jzinklmm4iALBfl5UX9gQTvSY6SWfqVM1IH+o1OrHJQcQBHNKxQsJqAqs85oQ298LqG2303XffiVUN0Q2iY7Q8I/inOeOMM2SVyBzjGYZhGGynwclukIMtR/GwJcn/jjkoM7BCueSSS2RrU6LvmUSwXGH7+l133SXRm8iXvJjX+DuEV8aXDdc0YNHi33/iPQUF+dOvg2Q+apCr7rzzTvHPgmUQ+SLbYiHEZ6IxEv6ZeTtZ6GnKl9nf55r/fbIIS1jk8B15JUuPRRPbufgNZU0FbfLxxx9L1CwsdPkt0a389O3atRMZA39DXIsnvoxZWQhldT/0Ab6j3jX3w1a7Bx54wL3++uviY4g82L4FpKFfYUHO3zCMPMs2Pc2OoLUNs2JL2kQNbBDQWGtBg63NG00tGn3uXwP5alcEgHyTaeDTBUuVMPmHqXfunXb3td3Lly+P9OrVK1KmTJmYlpsViOgEH/nmm292aCPKTfk19O/fP5aHxoKGMoep9zD1Rtrp06d7Z8FZvHhx7N7vuOMO7+q2Z3DMmDGRFi1ayHfRySoyYcIE79ttUOdLliyJbNy40bsSDNJHJ3TvLDg///yz2rKH9po8ebJ3FpylS5cmXY1KB/opKzIvvPCCyoKG/sbKEStNqZgxY0akS5cuGSzOooKRrCjxHfWufdZ//fXXyMyZM72z4FDv2udly5Ytsvr6zz//eFeCQZ2tXr3aOwsGebKKuGnTJu9KMGj3MM8q7ZZsBTUdeJ5nzZqlnpvob4zJmvTUG8+L1tKR9FOmTPHOgsOKqrbNfbRtDn/99ZccGqhvntOckinos9qyQ5h682UCLaTV1htQb9pxhjGaeguTPoxMQdqs8uY3zN3JDsbJZNcZf+OhnP53flvxf6J85sPckRl+f49PTx9i3B03blyWYyDp0+kz/A7ZiXLH1zPyTGbzajL8++fekE0zg3wZC7mXH3/8UT777YRVz9q1a+VzPNyPn0cqGFunTp0qfyMRLEZIS9vRXolQJu6Z9OnKoowLzCfcx6RJk+Tz/PnzvW+T499DsjHh+++/z9Bf/d8mK0/i/XDv8Xlzje/4Db/NDJ7RiRMnivUxc3P8WHnBBReI3ITFF/0iFcyL1F+yus0K6pG/ndVzkQqek2nTpnlnwcF6SitTUHdh8vZlWE290Veot2TPSzpQdsYS6l8Dsn9mfSIrfvjhB+9TcJBlGDd4bjMjpYKGzsbLkxYqTivMMdgyYGiZM2dOZP369d5ZMMibl4esBoVU+C8+qSa3rGBwoe60AhWDe5hO9+2334bq8AsWLJB7YOsHL5P+i+Vuu+0mppMfffRR0k7JNSZwrRD++OOPx/LSKGhQElDvWuiv2j5DfWsHd2AC9O89XkHjg8BRtGhRUY6NHDnSu7oN6p302v5GP9dODkC9a/NmgA+zNQ4BIB1BMBnUG0LKa6+9pt7ixFgTL1imgoH82GOPlWfIb2fMee+77z513fGMhmk3xlftGEd/p89pJnXgOUun3pLht5t2jCN9mHojbbwAGQTqm+dFW2/UGXWnSU8anhdt2UkfZowjb22bA+2NsloLSnCtMpdnlJcP7kEDYxxzI31PA2UP+sIaz9dff+19Cg5KbO3WAvo7spS23oB60947cwPtplVQkS7MAgIvTtqXF8qeuBgTBOQ4rSzGGEGf09Yb7Y2iQTu/hBkreMbCKIKzY24KIw+RXjtO0Ge0bQaMj9q86TNB8+bZ8N/zuHfm1vi5jbKwDQ15qWHDhpnO2367aeZG8qHP5dTciBIrjPweJm/qjUMD940cGEYGp+xh+nuYuWXdunXep+DQ19LJezf+iXbgHeAyRzLzs3SIVr6Y/3FoiFb6DiZ26RI2b9Jr7ztsvfnpteUPmz/1TlpN3tFOJ17TcfSLZ/WoUCzX8QTfpUsXd91112Vqfkm9g6bszzzzjDg4A5wNE7o7CNlRb9r+mh347YWDOkxx44kKibI9JjoguKFDh7omTZp43xhhefvtt8XkOzrRuWHDhokzxJ1B9CVNzKtxhoejRf9ZOemkk1z37t1dx44d5dwwjB1hbOeZCSNTgGZ+CDu3hE1P2bXyBDC2aZ1thqk3IL02LYS99zDps6PPhSl7WBkawvT3nCq7kf8h2MiZZ54p/eTaa68VFwpsmwL67vjx40UW/vLLL+Uan2+77TbrU0aeIuXoy8AaZmIkrXZwhjAPUti8w9x32Hrz02vLHzZ/6l2TNy//hA1u06aNvKiinKEcF1xwgZs+fbqEOMxMOQP8PkzZw5Ad9ZZb+e233yQyEP5owu7VNnIG9lITNePrr792N9xwg3fVuW+//VYURERF+/nnn72rhmHEw/geVqbQzg9h55aw6UmrmdN9tMoZCFNvECYthL33MOlJl5NybE7395wqu5H/IQrVhAkT3KRJk2Txt0aNGu7cc891nTt3Fp80jRs3jilnDj/8cHfrrbdanzLyHOFmP6PAQ3jHhx9+WMIFY02AYgZnXThNI4Qf4QhRDGgne0PPH3/8IcoxVg/+/PNP16xZM5m8krF161b3ww8/iGM1HK/hSG7BggXet9uZO3du7GBlNR7ymzdvnlu0aNEO3xnZA071eN4IXdqqVSt5tv755x9ZMTr55JPFcR6KGlYwDcMwDMMwNGAVv2nTJu8s90DAEcKb16tXT6xo1qxZI9bhyK4zZ84UebdYsWLu8ssvl6ALvgNhw8hLpNziZBhZMWjQIHfLLbe4JUuWyCAJrPS/8sor7rTTTsvSYiY7CbvFKa/jr1ZhIYOnf6BNsGzCguaiiy5yjz/+eFLv+ytWrJAtMtOmTZPfYyJaqFAhMRmlTnv27BmLTPDII4+IggDefPNN17RpU/kM9957r+vfv7+0/RtvvCF/I7+zq7Y4JQOFGBY1tA+RF3yImHHPPffYtifDMAzDMAKzevVqkaPZXs3WarYU5SZ4dUW2HTdunPvoo49EfoUqVarI1m8iURGpShslzDByGlPQGIGgu4wdO1bC2A0ePDjmZ6Zy5cqyos9WJsI772pMQZPanBhFSaNGjWQPbv369TOYeuKfpnnz5jIZYwV14oknipIHaxrCRqLkuemmm0T5An/99Zdr3bq1hM888sgj3fDhw6XtWaVAOUG4Q/5mQdlKlZMKGh9WuPD7ROjMZcuWeVedtCWKGrY/mZBiGIZhGEY6nH/++SLjwymnnCLbigrCopth5BZs34mRNrz84ZCUvZ7vvPNOTDnDQM6L+mOPPZYjyhljOyimnn32WTmefPJJUR5gyYTTZhRoWFz4sDUGixiUM3Xq1BEFw0svvSTXUHKhbOM3tCtmo8CLfr9+/UQRw7ULL7xQtkJdc801orxjpcX83OxasIrCLw0Ourt27SqmvYDSDJ9QWNIsXrxYrhmGYRiGYWQGjnh92OrkW8kbhrFrMAWNkSXr1q1zQ4YMka0rrNQzcOM48LjjjhMNO1udsKYwJ1w5T926dd0VV1whB0oTfABNnTrVHXvssdKO+CjxYYvMp59+Kp+J/IQFje8riO1NWNwcccQR8ruHHnpIrgN+bNjGhiJgzJgxrlOnTuLrBgdt9BFj10O7HXzwwaJg41nFeoZ917/++qv74IMPpF88+uij4jPKMAzDMAzDMIzciSlojEwZNWqUWMy0b9/ezZ8/X65hJYOiBosLtrsYuZtKlSqJsga++uqr2MoIjtU2bNggn1GwJYPtTzBx4kT534d2Z0sZigG2Q6EA6Nu3r5nA5gIIo445Ms8oShugzdmqhqPoV199VZzoGYZhGIZhGIaRuzAFjbEDOIlduHCheEonGtP3338vPjawqmjXrp28rGMtgaImTCjF7CTeeodtOUZG/G0vmKn69ZNOpCXfRVUyV1VFihSJtT/9BUubggb16ddNmHC02Q1OndneRrQntj+VKVNGnmv8AxHZAKfRKFzxKWQYhmEYhmEYRu7AFDRGBvBHwko70XkGDhzoXXViRfPhhx/KtYoVK3pXcw+8gPqgLDC2g68gtrkA9USoZsCyxv+MJ/xEsLLwt0CxZSYeHEXjlBalHdY3bJ3BooYtNQUJLJBQ0qAgLFu2rHc190AY7gcffFB8EKFwxcIJxdz7778vWxR79+6dYa+5YRiGYRiGYRg5hyloDMF/GcdbO74qcPzK9hUi9OBvBOUMkYByK/HOicePH+99KnjgzI2wiP5BO+LIF8Ua1i4XX3yx+CaBwoULu1NPPVU+4wh45cqV8vKORQjWMPfdd5+bMWOGOAa+66675HfA7whhiDLmyy+/lEhBOCL++OOP3YABA5Ja2+RXFi1aJP/jqNcPRZ7bwLLnmGOOEcfebFmsVauWKJQIUYkjaULj46to69atXgrDMAzDMAzDMHICC7NdwOGFnMg+RP0hco+//eWAAw5w3bp1k6gwKGlyOzjA9S0YeFlGOeErIgoC/lYjlCnxIZW3bNkiW1vgpJNOcm+88YY78MAD5Rx+/PFHifxEfdWoUcMdf/zxsh1q7ty57ptvvpG/S4jtnj17yu/pL/SL119/3V155ZWi2OE3999/vzgaxmIDJU1B8U2EZRHWRDVr1hS/L7nRuiwRrOSwoKHN+Az0GfoHzqXPOeccc/htGIZhGAUUAj7gsxCwtiUgRG5dhDKM/IgpaAowKGN69erl+vfvH7N64GWbgZnV9ty4ZSMzsPDxw0hj2dG4cWP5XBDI7IUaC4mHH35Y/I4kA0sKQnCjkIkfDlDUEBWobdu23hXn3n33XXfBBRe4qlWrii+i+JDahHT+6KOPRKH3xRdfuEMOOcT7Jn+yZMkSV61aNfncsmVLiZ6Ul5wkYzWHsu3tt9/O0O70heeee85C5huGYRhGAcQUNIaRs5iCpgCyceNG9+abb8pWpsWLF8s1XvAbNGjgbrzxRnfGGWfkyWg8WDBQdujRo4ds38hNjltTwSOIHxNtWbFqwfmrHyI7HpRsvGhn1p7kjbPYefPmyZYotkmVL19etsX4Pmp88O+D35UKFSqIlRVlJ3+slbDWwfEsf6969eoZlDep4LcoBZOVPR2wDsqJtIAFEZZn8MILL7jLLrtMPqeLP/T61k9BCVt+2o0+x7Yn/AkNHz5c2gOwBOrevbvr2LGjtGUi+DXSjhGUm0Pb3/0yaqx8qHPyzqt9jnvXWjeFedbC1lv8OKGBvDnywnhuGEbOwTjBeKMdJ8PMbTk5p/tjtPa+E+stqIImbL0xP2nHd8ru37um7vP63AjafkP6MH1O29chTNnD9hnS8je06TFwCNNm5J3Vs5qyVugwmzdv9s6Cw5YJbTQdHnQ//K+GTZs2qaOT0Gjct7bspONFVQv5Y9Hgd9ygsCqOAiYVWDbgg+K6666LKWeAF8yRI0eKkkY7yFLn+LGg42mg3rThf6m3evXqudq1a8s5lh6rVq2Sz+lAvtS7FrZY8cxowN/LsmXLvLPgcJ8HHXSQq1Onjjv22GMzHFizZNaePGv4lKH+jjrqKNmahIUM0bsSlTPAyzp/F+UMkN73w4IfmqOPPlq+T0c5AytWrMi0v2YGz0gYh9CMUdo2/+677yRcNWBpxLagoHDf2nGOe1++fLnUvwaeU9IDlmZseUJBs//++8s12uWOO+4QH0UoPhOZM2eOur/znNPftelpN61jY+qN/q6d2ygzllNali5dqs6btmbM1s4N1Jm2vzE+sB0uzLOKAlhbdpyQc4SBMVoL962NUkfdIZNo+zvzKn1GW3eUO4x/qTVr1nifghM2b+5bW29Aeq0sSH1Tdm3+pNc+L4CPN+34jhwaRp6h3rSyGPfNGK8tO/VNvWn7O+OUdn7gWZ0+fbp3FhzaTFvv3Ddl174/0F7Igtr+SrnDPOtEjKT+NDAv+fKIBp5x0mv7DHNLmD5DvWvndcrMwqYW5Jkw83oYeYb+zqGpd9JQ59p6o5+zoBymzak7LTNnzvQ+BQd5gGc9q3fllAoaJtacmlyocN83ggbKrRUKaHQ6u7bsDBTahwV4YOi0/iBLOXhBGjp0aFoCIoN7Yrvxt3744QfZzsA2FF6+yIcIPETeYVC+9NJLJWxymA5L+bSTEx2Vcqdzj8ngHnnQWfFHK0kbEGY43YcfgSZMu3HfWkEQLSxtoQUFAQ5/NaC5Jr1WKUdd77ffft5ZcFDqxPvMCQpl18JqEHUfVKHIs9OvXz8RiEiPL5eg24HIk7TaemfVAn8/2pUP2g1fTT6UA+uz2bNnu1tuuUUspBiHUaRwnW1P/moaoLwLkjfPBj6uUAJRdvLWrrxw34xVWkiv7XOUmT6rhbyzWjVJBXmH6e/UGeOERoFOW3Pf2nGGsqP807Y5ZQ9T74zvYV4+mEe0c5M/t2kXfZABmJu0gihlxypSSxiZAHlE+8LJOMt9878WBGGtooH2CqtYC6MkQQ4MI0OHUWjSZ7TtRt6k18pD1DfvD1rCzA+MT2G29jOvaFfVyZvxVZseSwDuXTvGkneYMRaray3UW7w8EhTuHRk6zPyinRvJM4wcy9ya7oJmMmjzMPMy6bVwz8iOYfpcmHoL8+6B/B9GngozTlBn6dR7yi1ODLJMjNrBgomFh0bzAkGRSK9tOAZ4OoxGECZv0pNWU3bqjL+hNZtKzB9fKu3atRMBiyhLftSdVJCWv+G3G4qqu+++W1b7WXkG/i4WEmxxOuywwzKUFWFG+7CHuXf/vilbmHZDqDjiiCNiQiWWQoQZzupFmP5Oeu0LM/2VcmvKbuQteJ6IakWfweJs2LBhMcuT/ADPAasqRPEiuhMwniIANWzYUBxNJ7OuygzGMayMeE7xU0QYf8PYVdDveGHUzm08E1qZAvy5TStTMNYwr2oEYV/BoS17GJmA+watPISShHJr6g3CpKfPUHek19R7TsvQ3LtWngnTbn69hZHBw5TdyB7MB41h5CwpR34mBe3EAgyu2kmVgV2rnAEmFa0wQt7ct7bs5KsVRiAx/0mTJskqEhNmOisS5E16ViAIrVy3bl330EMPiXKG79jGguNXXpJQZCSWVSuIQZh79+87bLuhiSbcs78FB2enjzzySJZ1R32HEQhIqy27kTdASYqzZbb+IHyz6oKyJj8pZ4BnmC1zKHUHDRokkaro26wGYwFDpC+2RAZZoeVlAwsEjvfee8+7ahi7BuaHMHMbz0SY8Z30YWQK5jbuQQPpw5Q9bL1pZQKIl4U0hElPfVN2bb2TL/lrCStDh5FnwrSbX2/aPhe27IZhGPkB/cxn7BLGjRsnKwooHLB2SYfx48e7Zs2auS5duriff/5ZrqH5ZtX/s88+k+v5WROODxSsg3iBRjHDfbPdKYhPGsOIhy2XRMFCOQOYtL711lsSOSw/c/7554syF2WNH26ffb84ECY8+wcffCDXsqJ+/fqxFx383Wi3HRiGYRiGYRhGfsYUNLkYrGYmTJggn7OKioMSB2et119/vWyDIh2r1eyxw+/MjBkzXJ8+fQpM6NwOHTqIkqZMmTKyeu9bE2FdE8YZmVFwwEwbpR5WJGztIYw2zxSKP/rWueeeG2p1N6/AdqYLL7zQ/fTTT+JE2t97yzljC8rPadOmiVl6KrAyOuWUU+Qz/gkI0W4YhmEYhmEYRkZMQZOLQamCQ19ga1IqB1688PTu3ds1adLEPfHEE7HtPCeffLKscL/99ttJQ+Xmd1jlHzBggDvwwAPlHL80vFDi9JSQyFgFUMdsIUPBZRg4ZiSKA/0Gp9r0lU6dOsWiRR155JGyRadz585q0/e8CooZrF8GDx6cIWoVPmmop9tuuy1Tp5g8jz6jR4/2PhmGYRiGYRiG4ZPSSbCR8/To0UN8qAAvjKxix4NPDCxlevXqJavZPigkSMt1Y1t4VSLToKwKE6nJKLgQYYDtTP37949t9SnoEJXp2muvFYfCviPS0qVLu6eeesqdddZZOyiUUSTzPRZtbJ1CcRzGR4NhGIZhGNmPOQk2jJzFLGhyKShf4v07EHUpHvzMsLWgefPmMeUMLz833nijGzVqlOvZs6dcM5xsc3r22WflhfLqq68WB6iGkQ4oY7C2+vDDD8V6xJQz22nZsqVEZyLak18vOCPHxxVbofguHrZb4h8K8I1lylLDMAzDMAzDyIhZ0ORS2HpzzDHHiB+ak046yX3zzTdynehMWNX07dtXzoGIVygdeIGsWbOmd9XIDFYDcJg8e/ZsN3/+fLGysUfBqFChgvhLwV8R23jq1asXKgpJQQFfPVdddZVEefK3WFJvbAUjzP1+++0nW8KuueYasULCcmbq1Knu8MMPl98ahmEYhpE7MAsaw8hZTEGTS3n55Zdl5Z7mIbSv708F5cysWbMkzC/gm+bWW291Z599dqjQ5IZhGGFAmTxs2DD34osvihWf7zS4YsWKopjBp8/QoUPlf37LWBbvl8YwDMMwjJzHFDSGkbPYFqdcCMoXVpd93dmJJ54oK/lXXnmlWNbwfeHChUVxM2XKFPHnYMoZwzByEixmWrVqJUoaHHD7Ea5wdI4T8zp16ogTYcYuwNmwYRiGYRiGYRjbMQVNLoSV58mTJ8tnXnoaNGggW3GgRIkS7vLLLxcfNOYE2DCM3AZj1gUXXOCWLl0qPrFwsAyLFy+W861bt8r5d999J1sLDcMwDMMwDMPYhilociFEOfEVNGwF8C1p8EkzYsQI98wzz8jWJsMwjNwKW5v69evn5s6dGwvLHT+e4avGN6E2DMMwDMMwDMMUNLmSr7/+WqI4xYMzTULa7rvvvrGQtoZhGLkZFDJr16517dq1c1WqVPGubgdLQMMwDMMwDMMwtpFSQYNg/eeff3pnwfnjjz/kb2jAx8qWLVu8s+BQ7jB5s7KrVYKQL/euhdVlQtYm+pRhixNOgwm3TaQm/NHgiDMRrG/8KCoaNm/eHHNAHBTunbz9FfIgkIZ28x2LBoUyk15bdto7TLvRX7V5o4wjkpQWIugECVnMFhMctZ555pni04gXaO29015LlizxzoLDthfts069+Vv/NKxcuVLqTdNf6evLly93mzZt8q4EgzzJm7DUGuivCxYsUD8vlDtMnyNMdqr5gbKxfYlIc/jOaty4sYTeZstTItWrV/c+pc/69evl0EDZ6O/auY12C1Nvc+bMUfcZykyba8cZ7ptD09+pt9WrV6tDo5Oee9dCucNsh+Oemdu0MK/l5NyknVcBmYBDS5h6o860zxowxmvrDchb227UdxhZkHRhZIqwMnTiIl8QuG9t3tQb9a6tt7BlZ5wi2qkGyo7Fpxbmc23e9FPmSO3zRp2RXttulHvZsmXeWXCmTZumHmfwTRcmb56VhQsXqscKf37RpKe+kcG18zp5hpEpqDdtn6HPzZs3zzsLDvWGLKaZmxgffBlcA2Wn3rT9nT5Hu2kJ8+5BX0lHFkupoOElDueOWnh50XYaHvIwHZZGD5M3FccEpcGvN+1AQf440fz222/dbbfdJgqZQw891BUpUkS+YwJASH/22WflO0ICt2/f3j311FPiWJjOTvm10Om0ZafTMTlqHlYg7caNG72zYPCwkl4rDDK5hZkgaBNtn8FnRxgnz6T1Ha+mA/3j7bffljDjbJkrVKhQzKFrUAidHMazP+Xm/jVw34Rv1lK0aFEJ96yB+yb/PfbYw7sSHNJq2532wreL9lnjvsP0Odot/t6JLPfaa6+5Tp06iaXMSSed5O677z4R2hB8eC7JE4UM0SHwozV69GgJzR0U8tX2GaDtODQgDBQrVsw7Cw7jtbbPkS7Ic54Iz7m23qgv8tbmT/ow9Ua5w7Q5wiB9VEuYuYk+E2ZuQpYJM6/y/GlfGmHmzJnep+CQ75o1a7yzYNBmyJHaeRWoNwRxDchblF2rLKC9kyml0wV5RPvSR58LI0Nz39r+Tr3R57TKKb/etAoexkntWEGejJNayFubnnmNMVI7P3DPYWQxyq3NGyi79t5JxzuOFuouTLshC5FeIxcgi1HvYeoujCxGWm3eYefl7LjveDkyCJSd9Np3F7/dtIRpM8qeTr2lDLPNSzqDvLbTM0hT8drKZ1LUPrBM6Ny8puG4b6qEtJqHNWy9kTd15zc+kxWTJYIG2wGIfPLjjz/KbxLhxYiVbfLW1juTqrbTct+gnRxRslDvmrL79U67a9qNeqffaF9ASBvmgd2VILgdcsgh8pmX6D59+shnw9DAS1TLli3FGitRqOZ5OvLII12zZs1cixYtXNmyZV358uVDTYyGoSGMTBF2biM985pmbiIt81telMWY07lnbb1RdtJqhfAw945MQPm1+dNm5B9GpiBvbbuFkeXC1Dv1xr3T7tp6o89r+7uRPViYbcPIWVIqaIzcC6tSbG/C+gFnwihvMDMrU6aMbBmxic3IDFPQGNkJpsVnnXWWKIdLly4tB9swmzZt6po3by7Ogg3DMAzDyBuYgsYwchZT0ORx2NKEDxD20vFiVLduXdUqnVFwMAWNkZ2w4on1DCb5FSpUcAcccIBYymhXvQ3DMAzDyDlMQWMYOYtJ0HmckiVLuqOPPlocvjKImnLGMIxdCYqY2rVryxamY445RrYwmXLGMAzDMAzDMIJjUrRhGIZhGIZhGIZhGEYOYwoawzAMwzAMwzAMwzCMHMYUNIZhGIZhGIZhGIZhGDlMgVTQ4Bd54sSJ7vnnn3d33XWX+/DDDyUSSbr+kvndtGnT3Ndff+2+//57CWeYKi1hGufOneud6cD55rfffuudGYZh5F0YK/0jFVl9H086f8+HMOArVqyQaHdZHVu2bPFSGYZhGIZhGMauocAoaBDMR48e7S655BIJ+0q0oyuuuMLdeeedrnXr1u6ggw5y1apVc9dcc42bPXu2lyoj69atkzRESzrqqKNco0aNXMOGDcVR7wknnOAeeOABUabE8/vvv7tbbrlFIp1oWLNmjevcubP75ZdfvCuGYRh5l7vvvlucCHN8/vnn3tXtEK6baBF77723++abb7yryWFcZPzlb/Xu3du7mhqi3p177rnuwAMPzPK45557vFSGYRiGYRiGsWsoMAqaRx55RATzN954Q0JSJ2Pp0qWuf//+ssKayK+//ioKmRdeeEE+FytWTJQytWrVEiuZH374wd16661u1KhRXoptsKr70UcfSToNAwYMEEsdwzCM/MBVV10VC9f51ltvyf/x1KhRw3Xq1EnG1Xvvvde7mpwhQ4a4jRs3uv33398UKoZhGIZhGEaeJ98raP766y/Xs2dPd/PNN7vNmze76tWru5tuusmNGzdOBHsUKKtXrxbFSt++fd0555zjTj/9dC/1NrB+eeKJJ9zMmTNdqVKl3DvvvOPWr18v25tmzJghCh0UMF26dHGtWrXyUm2H9L169ZLfp2OG7zNlyhTZgoX1j2EYRn6AMRRlObBVlPE3nt12200sFVHifPHFF+6nn37yvskIYztWkYDyHIsbH9J0797dffbZZymtF1HaYxWZ6kDh7oOS/PLLL3cjRozwrhiGYRhG3gELf+ZeFpd5j/n333+9b8LB+9Spp54qf5f3HMMwwpPvFTQ//vije+mll+RzixYt3Hfffef69evn6tev74oXLy7Xy5Ur50477TRRhrz99ttyLZ4///zTTZgwQT6feeaZrn379m6vvfaScyhfvry77LLL3NNPP+1KlCjhXc0IW5369Onjtm7d6l3JnOXLl0te6f7eMAwjr3D++eeLAmbOnDmypSkRLBNr164tnz/++OOkim0sIfEltueee7qWLVt6V7dx//33i9L8wQcfFMV8Mvbdd1/Zrprq8OcHxn+UOS+++KL8PcMwDMPIa/COMnToUDd+/HhZBHn//fe9b/SwDZmF6TFjxsjfffjhh21R2TCygXyvoHnooYdEQK9Zs6YMTgcccID4K0gG1xHaE0HLjCNgKFq0qPyfjPgV3GQwgD322GNZDl7kh7II/zOGYRj5jTp16ohiHOVHsm1OhQsXdieddJJ8xkoGBXciWDQuWbLElSlTRhTs8WAJiRK+efPmScf0IBQqVEj+zoknnihKfsMwDMPIaxxxxBEyt8KmTZvEypRtwlpLmsmTJ7tLL700w7sK/jn32GMP78wwDC35WkGDs19M3IEtRlWrVpXPQUHxglk+EPEplQ+bdGBlNyut9bvvvitHkO1QhmEYeYUqVaq44447Tj4PHDhwBwUMAiOR9YDtSkRVSgQLGX538skni+P3eC644ALZjnTDDTeIhU0YUNz36NHDDR8+3F1//fXeVcMwDMPIO7Rr107eQfzFZJQ0BCFhu1NQWDhp1qyZmz9/vnfFicLH5kjDyB5SKmhQDmi1qkBarYKBdDiI1ELe+B1AycHfQWPMiiq+DbLCv+94vwUMZuzb5H/8JfAycN9994kCCD8I8ZA+lYUMJvt///23OLPEIXEy8MnAywB/F+ufoFDuMO1G+bSQdxjTRtKm8heRFX69a/tc2HpL7DNBYJKk3bWwTQSloebeeT5mzZqljhLGizXbCLVgBUFkHQ301VT+SdKB/dhr1671zoJBe6M00JadvkKbrVy50rsSDPo6449v2RcUrArxn6Vl7NixYv2iAf9d06dPd7fddpustLGNM3FrKT5g/AhPjIXxW4uod6wRhw0bJltNUb4nrtjRr1GsJI7PXNeUm37O80Xo7alTp3pXg0Oda581ys2zqh1jsTZi66xmnKLeEMS1Vp2k//bbb+V/DSjr5s2b550Fh7YLM7eFGd+B9Dk1N9FftH0GclImCFNvQN7adiNf0mvzJ12YduNZCZO39lmDMPUGOVlvjBOLFi3yzoJBnX355ZfeWXDwR6ldwCXvuXPnqmUK5qYFCxZk+rxiDXrllVeKX04+A7IAjvuxZCX/dMA/Zrdu3TLIT1ixovxJ5eYhM5CD+JtauAdkSe1Yw/zCO5mmz1PfyGKJvvTShb6O6w0tbBFHptJAnwtT77Qb/V1Tb7QVMjiyngZkO1yPaMcK5JlUEZvTIcw4QZ3x3pZVvaVU0DBIpPuwJoOoRr/99pt3FgwGGtJrodIRJCdNmiTnKEaI8pEOvPBQcYl+C9A8P/PMM2JODzgUbtKkievYsaPs6fTJrN4It80WKR6o22+/3bu6He4bB8b8f/bZZ0vI76AwQYTpdGEGCgZrJkfNxExHZXLRvgDw8kK9a19YGeDCvHjRXxP7TLoUKVJEbd0F+EAi1HA6CshEeLElb82kCigtDz30UO8sOIS291dzgoKAESZv7plobJr+yss/Y0FmWx4zg/RY5aU7LiVC+rJly2bwhRUE6rxy5creWXAOPvjgmKl0UKhz+hx+ZrB+gffeey+DMoWxlnGQcNeAst2PrsfWKD+yHebUdevWlc/xPPfcc7Id6dFHH/WubANrGl8w/eqrr9xTTz2V9Eicfx544AH5e2yT9cukgTrXPmu0NfdO22vwfeto0jNO0N+0ZafeMa/X9lfuO9FKKggIcSiItDBna1+86Nek184PRI1EJtEqShCCUy0IpUNiZMog8MxqFWsI8Cgkw/jho960LwDIFAjxBJPQQHuHUYKz+EDba2DsDLN4QZvRdpq5ERkMWSxM2cPUW4UKFUQm0sD45Ps+08Cc7vsuCwpjLGXXyhTM6eSfuFiRCPMf7x/44vTncPoq1i9YxWT10siLKT7ffAtXwAfnk08+KXKoBuSgQw45xDsLDjJ0pUqV1HMjspx2bmRuwyLY32URFNoLWUgLMoVWFqO/EzhHC+293377qeqN95Uwzwv1jiymtZDG3UkYmeKYY47xPgWH/k5/zfKdLToA51saN27M7BJp3ry5d2VHxo8fH4kOShmOsWPHRqJCgfeLjMycOVP+blRgjEQrV/4+R1R4jyxfvtz71XY2bNgQ+010so8MGjQoEh0g5fzVV1+NRIUQ+V1UgIxEBzi5Hu30kQkTJsh1P+0HH3wg54YRlqjwFetX9913n3fVMHY9gwcPjkQn90h0soxMmzZNrv3+++9yHhVc5PuowCx99c4775Tvo8Jk5LjjjpN0r7zyilxL5Morr5Q0F110kXdlG9GXtUjdunVj/T/Vcc8993gpttG2bVu5nvj3DMMwDCOv8c8//0T69u0bib7gxua9YsWKRT799FN5H2nUqFHsOvMt8/LkyZMjVatWjV3nYE7866+/vL9qGEZ2oVM35jEyM2nHqgXTvPgD65X4fZXx4GwYDTKrr6zO+lo0/BO0bt06y9UWopd07dpVNI533HFHbKUAXzlEeUJ7/uyzzyZdFTYMw8hPHHbYYbKSgfWdH55z8ODBYq2AI2GiQzBmstLAmMt2QMzX2aqDVYXvx0bDQQcd5Bo2bJj0CLOyYhiGYRi5GSwPbr31VtmWRERFwJKG+faNN97YYbsQ7z24emCrrE+XLl3kPci3SjUMI/vI1woalCmAuXqqfWqYxmFixcHndLeJHH744eIMC7Pps846S9Lhi4NQrFlx4403ilkZpsf4YWDA6927t/g5YMsUYbwNwzDyOzVq1HBHH320CIMfffSRbOMgrDY0bdpUFNlnnHGGRGIaN26cbNUglCcKHEx72WqlBd81bOlMdnTu3Nn7lWEYhmHkPni3Ybsw8+DIkSO9q+nD1hgc6eNawd+mwhaza6+9VvzE+bBgjc8ZXznD+84ll1ziXnnlFdkaZBhG9pOvFTR+mFb2ML/66qvyORGuMxBx4Lcg6F4+XhxY8fVXcnnJyMo5G343GNiwluFlhIgj7LVmkOWlwTAMoyDAKh573wFfFxMnThQFCcpyVvIASxoU4ihvXnrpJQkLCvjo8lf+DMMwDCM7wH8Pi63Jjg8++CCD8iInYXcAixYcWl9N+EC5+eabJXiJP5+ipIl3VszneP+QF110kXv44Ye9M8Mwdgb5WkGDgO87dOzfv39ST9c4PsTBEwef07WgiQfzvgYNGshnHKRlpaABnGPipAt4IcExF86GwzjKMgzDyGvgcBAlDONm27ZtJRoCW01xAAwIkHfffbd8fv3112U7KE4gO3XqJNcMwzAMI7sYOHCgu/zyy5Mebdq0kbmJAAVhIuDkJliYxsUCwU98S5pUsK2JedgsZwxj55KvFTTAHku8m2Ohct1116kiCqA8wfdBZhDuC/BonW5UGl4wMN/3X0BYJTYMwyhodOjQQf7HtwyreKzmxXPqqafKllV/HMbq0DAMwzB2NZFIRN4lWJi99957M/VzmZdguxMRnlJZpl544YXuwQcf9M4Mw9iZ5HsFDT5dTj/9dFGyvP3227Lt6YknnvC+3Q7OsQiznMxXDbHejz32WNmnye/iYdWXARr/CIDVDgqXdCBEGQ6BefnQhNQ2DMPID6Co9sNUnnnmmeKXJh5W+AhzDYybvkLHMAzDMHYW+GP58MMPY8cLL7wg1jOAxfydd94p7hFyK2xNyip0tg/zLH4x77rrrh3CFxNKmy3GQSxnfvnlF9kuZRhGcPK9ggZNMIqZiy++WHy+MFjh3JfBp3bt2qKwwVyxQoUKsg8TPwc4DI73RTN69GhR0rDnksgfeDLv2bOnDFj4niEaE2aBRHEK6lwSZ8GffPKJK1GihHfFMAyjYIH/LcbSvfbaK6aISYToelgo4liYcdMwDMMwdiZsv0Xm9w/k/kmTJkmwD9wb4OCed4zffvvNS5E7WLx4sSwssx2YheNUgVIS4V3m6quvlvch3oOYk7FYxSVDursDgOhOREPk/QpnxoZhBCPfK2gA5Qdab8LEYU0DDKo4+sL/y7Rp00TLi2NKFDkoTOJfABjc2JPKQL1u3TrxFfPYY4+JNhmrG7TTbFfCgVi8YiddNGkMwzDyCyjSzzvvPPED1qxZM+9qRrCqwacYChxTaBuGYRg5AcFB7rvvPlk0AN4DWMTNTaxdu9bNnj1bPhO85K+//pLP6cA7CQvPKFaIVIuF0P777+99mx4sbLPgTbTa+NDchmGkx24RNlMWIFCmsHcUL+38zwDCSwGCf6NGjcR6JhVUFUodwmkvXLhQrmFR07hxY4nMlAz+vh91hHDcWPEE4d1335X/sfSpVKmSfDaMMBAy0XdGjZCBczjDyGmwbkSRzh74VLzxxhvulFNOSTne+vjjO+N6/fr1vatOhNQxY8aIw3gsdtIN0z127FiJlJH49wzDMIz8BdFUsQAB5hyiFiUD35EoMoCFW19hs6tgLsNFAlYuvCvgwNgH9wtY+uPImAVkHBzvSvDLidNhtkSx+4BdCoZhpE+BU9AYRkHHFDRGbuX3338XS8ZUsOc/lQNDwzAMwwhLugqaRx55RHxT8hqFgqR9+/beN7uGzBQ0PuwOwOJHE6E2LMznbItK1y+nYRjbKRBbnAzDMIzcT2bKGTDljGEYhpHToJRZtGiR/I/yA2v6dMC9QmbbjbB82bhxo0QszI7oUFjtB1HOYPVP3lu3bvWuZMSPapuO81/m8yDKGf42f5e/n67PHPDrjIP6DQt1EGRLmGHsDExBYxiGYRiGYRiGkQb4nPniiy/kM+4HqlSpIp8B5cY777zj+vfvLz4ufUaNGiWBRAYMGOBd2Q5p8PVChEL8rLVs2VK2TLGFCn8yQUFZ8fzzz0sZPvvsM+/qdrC+4buXX35ZFBwomp555hnXqlUryRuXDPfcc4/8HR+i1VJ+vufo3r27W7BggfdtRr7//vvY38d3ZzxsF+ZeOXCujFKFurz00kslX/42Ib3xf5MZKLDYFo3/OtJQb1gRffrpp/L9nDlz5J7IZ8OGDXLNhzqlfByUx4dIXfyNkSNHyvmbb74Zu4/M2oGIVf7fY7u2YYQm+lAahlGAmDdvHtsa5bjvvvu8q4ZhGIZhGAWbnj17xmSkl156KfL777/Hjt9++y0yZcqUSMWKFWO/6dSpU+TPP//0UkciK1eujBx55JHyXe/evSNbt26NXHXVVbHfP/fcc94vI5H//e9/kfnz50eaNWsW+37PPfeUwz+vXbt2ZPHixV6K7Xz99dfy/V577RUZPHiwd3UbS5YsiRQrVky+b926tXd1O355SpUqFZk8eXKkXr16sfzij/PPPz+yYcOGyK233pr0+wYNGkQ2b97s/dXt+L8vXbp0ZNKkSd7VbYwYMSJSuHBh+Z66fPLJJyN77713hr/LUahQociQIUO8VBlZuHBh5KSTTtohjX9wf88//7zUY9GiRSNz5szxUm5j5syZsd+++eab8ve4F//aBx98IL+7/fbbI7vttltkjz32iLzwwgtyLZH//vsv0rVrV0lXrly5yC+//OJ9Yxh6UlrQYGqGVlVLWPOwMOnxU0D5NZAOTXYQ87p4qLMwcf/Jn32bWqi3VKaJ6YDzTC3UWXSg9s6CQ9m1fS5sf4Wc6u9o26MTrXcWHDz1r1ixQlZAgsI9z5o1a4fVhXShr4Up+/jx493y5cu9s2BghuqvYGnAiSzRBTT1xjM6ceJEt3r1au9KMOivmEenWn3KCp41HOFqxxryzmp1KjM+//xzMUPW8Ouvv4qzde3zRp35TtqDwnNKvWlWJIEVu2+++cY7Cw5RMbRjLGMrzoq1cxOriTzrmvQ8az///LN6ZZC2/uqrr7yz4LAKzfMahjBjNPevGSd8uH9tevIOM6cjD3FoYWVYC2UPIxMwzmplOaDeKIMGXxbTjlPZIcuFQXvfQH/RbhUJW29h5cjoi7eEmNZAmd977z3vbBtPP/20RHL1D6w0CNqBzAWlSpWSkNv4WsG/H3NrPEQxuvLKK8WKgy0/RCOsWrWq9+22cfmcc84Riw22I91www1iYYPvG6xIgPGPYCSMwamgrxP+O+izzu+vvfZaCX5ywgknuPvvv9917NgxFlL7/fffF6uZxx9/3B122GHulltukYMQ2sCcxm+Ifqvpc1i49O7dW+qEv3vXXXe5Bg0ayHf8vQcffHCHMQCrm27dusVkmJo1a0oocKxp8KvIfdBuDz30UFr9ePLkyWKFg9VPsWLFJBCAH7UKi6IyZcrI36EOEred8ZziIHrQoEFyzr3QJ9KFPpfMwildkGfiLYCCQN7I79q5ieeM/q4Zo6lH6p3nQwP9lrJrx0nkSD/KmYYRI0Z4n4JDvSEDZ9k3ow2TFDSA0UHBOwtO9OUlsm7dOu8sGGhro4KodxacGTNmyN/QEH3hkfQbN270rgSDe44+MKJR1RCd2ESjHJ2kvCvBiD4sohnWMmzYsAwrAUGIvqxGohOIrAgEhfqKvjxEopOedyUY0YdV0mvbbdWqVbKKoGXMmDHqPgfRQcb7FJzoIBuovyVa0NDXtP2NtqbPatH2NZ+w9abpqz6k19Yb0GZh6j3MvUOY9GHzjgpe3qfghO2v9Lkw7Ram7NnRZto+G7a/hq33sP0tTHraLCoEe2fBYU6NCsHeWTCYm6ZOnaqem5DFWP3V1j3jPavDWljt1tY9q/jIBBror8zJyVbn0wWZYPny5apnJvrCK2XXzuu0d6LlQBCQA9esWeOdBYO8x48f750Fh/tGltXUG/IA9b5+/XrvSjCwUIm+KOfYWEN/i7egSXVgVYEVzdy5c72U28YZ8o+3oMFChd+eeeaZcm+JdOvWTX5XokSJyOeff76DLHf//fdHdt99d/nNZZddlqFe4i1o3n//fXlmfNK1oOHAyuTBBx/MMLfFW/RQ/hYtWnjfbOPll1+Ofd+2bdsdZLl0LWg46tevL8+pD33vqKOOku/4Xfw9U7833nhjLO0pp5wiYyRt7vdXxtyrr746Vm9ZWdAUL15c6rBjx46SNh7q9Nxzz439Nt76yadfv35iYXPIIYdEli1b5l1Nj7D9NUxaCCuLad91gfTa5xzClB1yqt7pUzwvfn9NRUoFjWEY+RPb4mQYhmEYhrEj8QqaMmXKRKpXry5HjRo1Iscdd1ykXbt2kQceeCCyYMECL0VG4hU0HChnki0+IosVKVJEftOlS5cMChZA0YZiGSUHvzn88MMja9eu9b7Nni1OHCgmEnn33Xdj37NtB4VhPPEKjoYNG3pXt5OuggblSOKiMi/9F198cezvx7/Ec/8HHnigXK9QoYJsD0tFkyZN5HdZKWhQrtx2220pX5gxOPC3YNWsWXMHZXvdunXlO7a6hVWYGIaPOQk2DMMwDMMwDMOI4+GHH5atSxxsiWBLDyGt2cpSvXp171eZw9abChUqeGfbGThwYGwbHNuI9txzT/nMNbbnHHnkka5Zs2axbYaVK1eO/Sa7IEQ3zogTKVSokPfJyZauo446yjvbRuHChb1P4TjttNNki1I8u+++e4b842F7iL+9umnTpplGz6Lu0oHokD179kwZ7apOnTqxUOtsr47f1v/WW2/JNiO47LLLUpbbMIJiChrDMAzDMAzDMIw4eGlPdqTL8ccfL4qVZMT7cSMq1IsvvujatWvnypcv726++WZRVLRt29Y9++yz4qsGXyUlS5b0UmQPKGgOOOAA7yw5tWrV8j5lP4mKn6z4+++/Y747sip3uqCAKlGihHeWnKuvvtqVLVtWfKe8+uqrcm3jxo3i8wZo55NPPlk+G0Z2YAoawzAMwzAMwzCMbCSZ5YwPDml9unTpIs6EhwwZIiG7P/74Y7HWIczzFVdc4Q499FDvl9kLyqasrHJ2plWI74xYg9bZfyLxIdJTgYPkU089VT7jEBkn0QQM8J3XP/DAA/K/YWQXpqAxDMMwDMMwDMPIRjKztqlXr573aZsS5LrrrnNjxoxxU6ZMcS1bthSLDSxcjO1gXbTvvvvKZ6J4JkbNiid+K1JmYKmUFbQDkaMAC56bbrpJIm3x+cQTT3R169aV7wwjuzAFjWEYhmEYhmEYxi4C/ysHH3ywfOZF/5RTTnENGzbMYNHCNqgwoe7zG4Tj9rc2EV6arUfJwrIT1vzTTz/1zrIHLGjwewOEYx82bJh8Puuss2JKI8PILkxBYxiGYRiGYRiGsYvAKuPee+91RYsWFUXM+eef7zp16iTOg9nidMstt8gWqb59+8b8rhR0UF7179/flS5dWs6HDx8uFiwDBgxwX375pRsxYoTr0KGDbBcrXry4/Ca7IO9evXqJg2TaA384OBg+99xzA/klMox0MAWNYRiGYRiGYRjGLuScc85xjz32mNt///3FAe0777wjCgau49dk69atoqwxK5rt1K9fXxz1lilTRs6nTZvmLrnkEteiRQupNxRcbdq0cd27d5fvs5MTTjjBNWjQwDtzorDZWf6BjIKNKWgMI5/x+uuvi0f5Dz/8UL3qMn36dFnN6dGjR1LzUcMwDMMwjPwG22hQAnD4SoAg4E+mdu3akj6rl3esMfBtgj+Viy++2B1xxBGy7Ynw0fwNLEG++uorV65cOS/FdrAQIQ/kPRQ88eB897jjjktZhmrVqsl3/CbeWbEPf4/vOSpWrOhd3Q5/3/8+WZQnIlfx3bHHHrvD9p/99ttP/O+k+ttw4IEHxv5+MusUthV99913Ev6aOiPkOXkeffTRorwZNGiQXCc995gYFhzLF//vk1e6FClSRPIA7qtr167y2TCym90iUbzPhmHkA5g8pk6d6kqVKuWeeeYZCdsYz/z5890hhxwinwkR2KdPH/nsM2HCBNexY0f5HZM0JqMIAIZhGIZhGMbOYcOGDW7Lli2OVzMUGdm9TSe/8b///U/CXfshy1GooUTZWdA++KH56aefRDn02muvpeVk2DCCYr3KMPIZZ555pkwY69evd+3btxdnZula0jDpnH322aKcAUILBlldMAzDMAzDMIJTsmRJsQQh9LMpZ7IGWZc6w+qJY2cqZ2Ds2LEiJ+OPhi1VppwxdhbWswwjn0H4vyuuuMI7c2Iii5ImK5h0LrzwQrd69Wo5R9Hz7rvvSqhHwzAMwzAMwyiIsN2/d+/e8hnnzWeccYZ8NoydgSloDCOfwWrC008/LYoZ35KGyABDhgwRc9BkTJo0yTVu3Nj9/PPPcs6WJnzZsIpjGIZhGIZhGAWV8ePHu1mzZolPnEceecSVKFHC+8Ywsh9T0BhGLuCff/7xPgWH7UvJFC/33HOPu+yyy7wzJ47osIiJh33OEydOFMsZfw9vkyZNxAt+upYzYcI/hrlv+Pfff71PwaHcYVxwpar3dCGttu4od5h7hzDpw/bXMOmptzD1Hqa/Qph6y4420/bZvNxfw44ThmEUDMKOFWHShxmfgTFWm550Yee2MOnDygRh2dlz4++//y4Ln4DTZVwBQNi5LWz6sP09TN5h+iuQPqt6z4yw/TXss64lnf4GKRU0xHcPE9bt119/dX/88Yd3FgweBH+bhQbKTWg6DTQYFgd//fWXdyUY1Jv/oquBRl+zZo268THBC9Nu5K2FOg9z7zj6ou010OF/++03qX8NhDek3bUsW7ZMnTflRiuvZcGCBW7t2rXe2XawpHn22WfdtddeK+c4N8Op2UcffSTngOUMXuz9/AkfiHIGD//pwDM+efJk7yw4s2fPVj/r9HWiG2ih3pYvX66aYGjrhQsXyjingf46b948t3jxYu9KMEg/ZcoU9ThHuXEkrQVH0tr+Tt4zZ85Up6fOlixZ4p0Fg/F90aJFMtZooM99//333llw2EZIn9OA40ieNa1As3TpUrdy5Up1f8cv1bp167wrwWA+C1NvtLn2WfHR9hkII8/4MoW2v5Mv6bXCKH2W+U1LGJkAeYB+qwVZJowQzb1rZTn6LOOENn/SJ5uX04U+p5WHfDlSC3lTd5qxgrzDPC+kR1bRwrzMGK+FyEBaGKPIXwP9lDlZO8bSXshx2v7OvBSm3pDFtGMcMmAYGZjnFFlSOzciv69YsSLT/k5/btiwobv99tvdE088IVGsgHueM2eO+nljXP/xxx+9s+DMnTtX5nUNzAv0d62Shf6OXKCZm3jO6W/aMZKyIw9p50WeU2RwLV9++aX3KTjM58hjWfXXlFGcGGCZHLXx3XnYcNiUGF4tHejwM2bMcHXq1PGuBINtGkSf0fjOoNHp7KQtWrSodzV9EEioN0K+aSB/HrgaNWrEBoAg0NkZqAnRp4GBgvB3GugzHOSdLCxeZvCQ8aDjFO2AAw7wrqYPg+eqVatcpUqVJMRhUBCEGKSpdw30d7YDafrMzgYF0M033+xeeOEF70pyGjVq5F555RVzCmwYRr4CmWL69OkS8lUDyh3GdiLjBYW5jfRamcKXxRiX99prL+9q+iDPIAgyN2oYM2aMO+WUU7yzYCCP8PLkRw0MAvXGiw+LBVrHn8gULFRo2o0XXeoOWVKzlQFZkJfemjVreleCQX+lzTV9BqUSMslRRx3lXQkGixfUefny5QPLctQbshj1rqk3ZDFe/JDF9thjD+9q/oX6oq/vbOe22Q39s1+/fvKZkNcdOnSQz4ZhZA8WZtswCgAIAbfccot7/PHHvSsZQTkzePBgEUYNwzAMwzCMnQvWqN98843r2bOndyVvgAUB2+GBwBQPPvigfDYMI3swHzSGUQDAGuuuu+7K4JPGh21NWM6YcsYwDMMwDGPXQPAGfJuE2dZlGEb+wxQ0hlFAKFasmHvsscfcDTfc4F3Z5hB42LBhtq3JMAzDMAxjF/LOO+/Ilq6XX37Zu2IYhmEKGsPIVdx3332y75tjZ+w+xCfUvffeK/kQevvFF180yxnDMAzDMIxdCAtm+D6Ejz/+OFSQjYIK/sXwO4q/Ka2TYMPIjZiCxjByEUzQeIMPE4EhK/bZZx/Xp08f99Zbb6UdrckwDMMwDMMID5FciLLpQ0SaMJEVCyqvv/66a9q0qWvZsqUbN26cd9Uw8j6moDEMwzAMwzAMw9gFfP/99xLtymfr1q2y3dwIxqhRo8QKiei3HIaRXzAFjWEYhmEYhmEYxi4AZQwhxQ866CBXtWpVucaWc0K7G+lz/fXXu1NPPdW1b9/enXzyyd5Vw8j7mILGMAzDMAzDMAxjJ7Nlyxb3/vvvy+dzzjnH3XzzzfJ548aN7vnnn98p/gfzK/Xr13dfffWVOFtG2WUY+QVT0BiGYRiGYRiGYexk+vbt63777Tf5fNFFF7nzzjvPVa5cWc4HDhyYYeuTYRgFE1PQGIZhGIZhGIZh7ERwDvzKK6/IZ7blHHXUUa506dKuTZs2cm3FihVZOgsmmMSMGTMketGff/4pFjfr1q2T6JwtWrRwJ510krvuuuvcr7/+mqk1DhGQ8NvSvXt3V7t2bXfccce5yy+/3C1dulTSJeaTDqtXr5Y0HNxrZixcuFB+R37xsPVr8ODBrmPHjuL8t0ePHu6LL74Qy6PE+2FLGH9j9uzZki6Rf/75x33zzTfu0ksvlb/F/wTIoL4s6pORq4l2dsMwcgk33XQTs48c0cnDuxqOtWvXRqITYSQ62XpXgvPbb79F/v33X+8sI3/99VdkyZIlkahgEfnvv/+8q4ZhGIZhGIbPM888E9ljjz0ie++9d2Ts2LHe1Ujk+++/jxQvXlxkv/PPP9+7mpxPP/1U0vN7/sYjjzwSqVSpUkx29I+yZctGhg8f7qXKyIIFCyJt2rTZIQ1H+fLlI/369Yu8+uqrcl6iRIkMZYUvvvgi9nvkVp9vv/02UrJkSbl+9NFHe1d3ZM6cOZEiRYrI75566invaiQybdq0yIknnih15P99/6hZs2Zk1qxZ3i+3cdttt8l31MXXX3/tXd3GmjVrIh06dIjstddeO/ytqlWrRj7++GPvl4aR+zALGsPIp/Tv31/MZitUqOAOPfRQd8ABB7hzzz03pRM6VkvuueceOdauXSvXopOoO+GEE1ydOnXcH3/8Idd8WOlp1aqViwoBMUd3xx9/vKygwJNPPil/a8SIEXJuGIZhGIZREMFiY/To0e6///4TuerII4/0vnHu8MMPlwOwHkEeywosYAjVfeONN4q1zGmnnebOOuss71snchxWNf52Kh8iRjVq1MgNGTJEzvfZZx/ZanX77be71q1bi9VJnz593BNPPCHfB6FevXru2GOPlc9TpkxxP/30k3xO5JZbbhGLF+TTq666Sq799ddf7qabbnLfffed1BH3NW/ePPfll1+6unXrus2bN7vDDjtMfpsOn3zyiRs0aJDcT6dOneRvffvtt+7ss8+Wa0cffbT3S8PIhXiKGsMwcgHZYUEzbty4SHTij/2d6OQrh3/OqsXTTz/t/Xo7S5cujf2GVZfnnnsutqJTvXr1SHRC834ZiXz++eeRgw46KPb7okWLyrH77rvLassrr7wS+6579+5eKsMwDMMwjIIHlsy+LNanT58dLI7vuOOOmNx0ySWXeFd3xLeg8X/bpEmTyM8//+x9G4msW7cuJp9VrlxZrJt9sITu1atXLG3jxo13sErhb7Vo0SL2myAWNIAVjf9do0aNIlu2bPG+2cbs2bNjsuUDDzzgXY1EVq1aFaldu7ZcP/nkk72r2/jjjz8iv/76q3e2ncwsaLp06SLfVatWTeRbH2TZefPmeWeGkTsxCxrDyGFYKUh3f28ySMtqgA8rIdOnT3f77ruvi05ebubMmW7RokXuo48+cpUqVZJVi+gE7QYMGCArOqSnDPHwHSsZfN+uXTvXrVs3t+eee8p3rIiwyrJgwQI553fkwflnn30mKyhXXnmlfJcV7Clm1UQLUQ+0YBGkzduvt6iw410JDm2mbffo2C2rSYntli6UO9l+7XRJtKYKAnlz39yDBlYNte1Gnqwehmm3DRs2eJ+CEyZv+lyYNqO/afOm3sL0d9LzrGuhvcOME4ZhFAwYp5gjtGTlNyUzyDuzufHBBx+MfU9IaKyZly9fHjuaN28u38Hw4cPTchaM/xrktYMPPlj+NvNEqVKlxJoZGLO55oOlDVY8sP/++7uhQ4eK5Q7zg19vNWrUcO+9914ga5V4K52GDRu6xo0by+cJEya477//Xj774AgZ+eXAAw90HTp0kHx9mcCXC/DDE2/tXbhwYVeyZEnvbEfi0/r48+WaNWvE340Psiz15ROmz5BnTs6NyBRh5sYw8gz9jXvXwH1T7vh3lyD4MriWMG0O6Vi4pYL7TkeGTqmg4eFhC4MWXta0nY6CL1myxDsLDlsstIIsDxlmgelUXjKoN16G4wfEINBZqXftixcPa6otLOnAoKjttAzQ1F3iIJkuv/zyi/qFmzJz39oH1m83LfR37UBDXwvjtZ869+sNs1HMOAFh4I477pBJsFy5chLOEdNZJnTqCfNRnLNRb4n9nd8xwaLoYTL1w0DSL19//XV5tkuUKOFeeOEFceRWpUoV2ep0+umny8SO+Ww6LF68WD3Q8azOnz/fOwsOTuK0/c0fJ3jeNPCMIAgiLGlgfEGg0/Y52p/0Wmg3bd70Hfqcdoyj3hkrNNBuy5YtU89NjDO+YlIDda6dW6hv6k07t9DfEMY047Pf3xknNVBmnFFqYWzWtjlQfpTIWqh37bNK3rwgaIVoxhjqXtvulJuxTsu0adO8T8EhX23e3C/PahghnOdN+8LNs44sqX1ekUETnZ8GgblN+7zR1+JfSINCm5G3ZqxgXOdZ1c6N1BsyjLa/0+baZ5UxNkx/575TjVM4skVe8mnWrJlsQY8/fKUKMFZ/8MEH3llqkOvKly8vbc444c+rLNAlg7GI5wouvPDC2O+Q3/nOh+vnn3++d5Y1OOllrIPddttNZMa9995b5trEbe7cF32LLVlsvecZ5Vnbb7/9YtujkM3YNs+CI7+nT2TWH/ku8XucAhcqVEie4VNPPVW2f7300kuy9covK3DvHJr+Tp/hnU3b3+nnuBLQwruydoylr4R576GNODT1xn3znGrHOMrOs66VI+nrvjsGDTzPWujv6chyKRU0dGoeLi3+aruG3XffXS3MAOk1HQaoMNLvscce3pVgkI79nAxQGkjH39CWn0GHttPCoLzXXnt5Z8EIky/QZ8L0G9DWe5g2B8qtFSiocyZnLezhZSWEZ+app56Sa+ytveyyy3a4JwQA9hkDAyuTKsqVxMn8kEMOcY899pirVq2ad2UbCK14xAeUMUzw/r5pH1Y5sNxJB3zjsNqjgTo/4ogjvLPgUG/avHlGSF+sWDHvSjDopyjKUJxpoL+yAqQdo2nv6tWre2fBIW/ts0qd0d+16RFGOTTQbvhLKl68uHclGKSP9xsQFPIuWrSodxYMxlcEVu0YV6ZMGRknNOn9/q6tN8ahMM8q9aZtc2BsDjO+h0lLfTMva+d00vG8a9uddNo5HZBntLDqrc2bcpOee9fCM6OVS8iX8VXb9tx3GJkojCxE3WnlEQjT3/1+rm038i5SpIi6vzNGMtZpoM3wDaOFMQqFQzKwiAkCY8bHH3/snaXGV+rwrFSsWDHL5w2Fp69M4Pc+zA2JZQ8iX+CnML7PHnPMMRIZCoia5C+KcE+zZs2Sz1hnU14W97DuZqxB7mTRD6iDN998U6xsWPTju1QkGyOx9CaalQ8+aYhYdcYZZ7jevXt7V7fNjciCmj5H+ZGhtbIg/T2MTIGsnqrPZQV5h5mXqTfkWE290V60O0o5DdQ7z7p2nKHvI9No8RWJGpD705HlUt4ZDyYVr4XMtYIoefPipoVGT3zhTBcmVO5bO7EysTBIaycXBjjSaydnrBrCtBsvXtqyc+/UvTY9D2qYduNhC/PCyiCrhf6uzZv6CiOMkZZBilURf7WPlYJUEzWrCkzmaP7RnpM+sc1Y2cDyJhG01b7WmZcmJtRkz0q8+WhmkFY7wIK2zoH71gqifpuFKXvY/Glf7bMWts+FyZt7TtU30yFMvQF5a9uNew7b58K0Wdh6D1NvYetdO6cC9x027yDm+okgUPECo4FyIwwy5mpAjtIKwYDCXCsEAy8AWnhp0ebN/fICEKbfII9oX5zo79SdNn/6bBilIosj2rJT5nTn4GTQ18lb0+eoN/qrVrHH+Mrzou3vYccK7XMK3DtHIignfGUL238+/fRT9/nnnyc9+B3KDvj6669jyoxU+PkxpyXLOxl+3cZb+1BniemDWCckzosoPC655BL5TD5Yd2MtTRhv/u4pp5zimjRpIt/H580zx5Yttl6xAMi4zcIgVipszUfJkorEPkMfxJJ83Lhxki/1Sv/A0ghlz5133im/I39tnyFP/mYYWTCn50YtYeuNtGHqjXvXjhP0t3Sfl2SEkQO5b/LOquz6mjEMI9eCsiwr/IklGcmUM8DqGJMlhBnYDcMwDMMw8jtsh5g4caLIXGwbYnsTyolkBwtofA/IWvGWHtkBVpC+shm/hJkxefJk75OOiy++OKYYx4rm8ccfjy3w+cqRZPy/vXN3jbKJ4vAbo3hBRfS/0FZBxEpBsFMEG0ttvOGl1EYLL4iCjRJSKIJRxMLCVhRRGwURGyMo3m+Fd7yAJnw+882ETb5Nduc367dJ9vfA4r5rZmfeM+edmT1zzhl+wHLS0pkzZ4LRKoXYA+H3ud5hS5curXp6ekKORDxyErxXQxiN+dvYQGPMJIFd3mQRPn/+/LAY21pI2oabK5PgaK6Ro1nF+Ty5xTJ5j5YfoCT+3RhjjDFmosM6jJBvQtDZOEvGl9HAiMOhDGkNhrdNSV6ckeBpnrziyAtGKPzInGwYLQiXb2TAaQSe6YcPHw4bgXjPHD16NHyOwWTJkiXhfS1sAOIJnvLbIQvCoQ8dOjTkiZcTKppyKSXw7MJAhvc3UE/acDRmvGEDjTGTBFySiekFJnR2B0buNDBh7d69O7zHRS83jpKJNk3u169fr/r6+sL7Wshtg1upMcYYY0ynQnLyK1euhPfk7eOEpEYQ3kbyXyAc6NKlS1mGibEgZHLbtm3xqqpOnz4dcr6cPHkyrOlYN27ZsqXau3dv/IsyCGXCGMNaNBmCuLd6Xt4cPoDnzIYNG6obN26EzwhHwrCTDC3kV2w2LIb7pC7CpZIx5vLly0MH4CxfvjykhTBmPGIDjTHjlGXLloWEdWO9yExfe4ThiRMnQj4cYHK6ePFiOCGKjOVMvuzeMDlhaDly5Eh2cjHKYQTCU4fJdtOmTdXBgwdDJnlcV/v7+0MStpFZ+40xxhhjOgWMEr29veE9ayeMIM2yY8eOIY9ovGhaGYqzdu3asImGsQYPH4wWW7duDetJTk06d+5cCE3atWtXLKGD58uqVavi1b+5P9atW1c3/wbGGF6sWzmGnL/BM5wTR2Hx4sVDeW0agccOpzWRx2fNmjUhJJ9NSQxAeDOR55SQK2PGK937xgoENMb8r7DTcuvWrfCeI+QavfCIISFwSqrNBERW9mvXroWj3IjXxcuFWF6MNxhnSJxGTC8J12phQksTFlnuMQDVg7pYbNy+fTvsSly9ejVM6OzEHD9+PBxDvGfPnvA5MKkSV22MMcYY0wngTYyBgGTVbI7lHFtNgmyOfqYseWNILkwCXeB72XgjETTGj3onMnLEO2FSixYtCuuvkR4rnP7EGo+1HKHqeOhQD+s1jEOsBTEK8X+c1Ll69ephp2OxXmQ9yXoQYwqeLaOBceTUqVPh/ebNm0Py33qwYbhy5cpwz0DbCJNauHBhtX379urYsWP/SdbOccV4xmBQQsbpZEzWwtw3IV3IAcMQ/+LBxKlQBw4cGAp1MmY80vXnoWyN35wxphiOwMbI0SwYW8h4j0GlFow3+/fvDwYadgt4zHELxXiDoYZJeCSUYSIEYn7ZURkLvhvvGbxm+H52Ozhake/nyMS0aNi4caN3KowxxhhjOgjWhnjAYFzhZCc2Fet5zxhjhmMDjTGTGI43ZEJkh4FYWxKupeRzrYKEwIQ7cTwlRpnklmuMMcYYYzoTQpZWrFgRcvGsX7++unDhQvwfY8xY2EBjjDHGGGOMMaZlEG5P2BJhTnhdO9zdmOZwkmBjjDHGGGOMMS3h+/fv1c6dO0OYE97b5NExxjSHDTTGGGOMMcYYY1oCh0fcv38/vOdgipTk2BjTGIc4GWOMMcYYY4xpCWfPnq1u3rwZTmIiSbAxpnlsoDHGGGOMMcYYY4xpMw5xMqbN/P79u/ry5Uu8yufbt2/Vz58/Q5xvLoODg6H8r1+/4id5DAwMVJ8+fYpX+Xz9+jUcA65Amz9+/Biv8uG+1bpL5UZfpX5ToP7Pnz+HfxU41atE56gbvVVAZ+h3te3EtSM7BeTOiWNq2yn34cOHeJUP+qrqTBon1D2VHz9+yPpGnci9RF9Lxgn6TK3bGNM5MLcw1qlw8qUKYyQvBeZFxjnmZgXmB8qr8yrjK+VV3r9/H+5BgXsuqbsVc6OqM2luVPuN8iXr2JK5EbnRbyppTaDIPcmtZA1eugZmrFDhdDIV7rmZcWJUAw3KzvG5Kk+ePJEVnoZzJJvKixcv5EU0yvbq1StZ4enwp0+fFikNcleVFqV58+ZNvMrn3r178g8IBhlkpzysyOvZs2fy5Ijcnj9/Lusc/Y3Oqjx8+FCeYGj727dv41U+PKuqvjBAo7MlPxpLBniOAFfbzmLg3bt38Sof7lv9oY++ou8lkzr6ouoM5Rnj1H5D30smGOTe1dUVr/Kgv/mxrowTgMyamdzqgc7wvJToe8kCnmdF1Rl0judFnVuQG3JXylOG8uq8SF+XyI12q88q0G937tyJV/kwp6oGJsb3ly9fyv3OOEV57kGBZ7VE9nfv3o3v8mFee/36dbzKA5179OiR/KwDa0EW8Qr0G+sZVe8o9+DBg3iVz+PHj8NYpYCu9ff3x6t80Bl1Xmdspd9VudHf9HvJOFeiMyXrZ/pLvW/GSNYU6noIuTNGqUYSZFay+cBzrq4JqLvkxzL3ztxYsqZQx2fkTdsZLxRK50bKqvMybUduKui62m883+ir+qzSdvRV1Tn6Wx1foWT9zD0ju0b62r3vD/H9MCiIAGfPnh0/yYNBZubMmdXUqVPjJ82DwKdMmRLiFlVK6+ZIuO7u7vhp8yA3vqOk7dQ/a9YsSfFoM6/p06fHT/JgoJs3b55UNwtI6kb2uVAfDxztVtqOrlJ+xowZUr8D31HSbzwr9F0ulKHstGnT4id5IC/uW6kbuVMWfVf1DV1VZY6uqG1vhdx4Kc95kpvadkj9ptRPncide1f6jf5Cdmq/UTc6o5DaTt1K25EbeqPIvVTfk86VyK1E30vkTjl1XqRuype0nbFVlRv1qn2eYEG2YMGCeJUH82LS2VySnqljDfCcIwNVZ2m3qjcsJufPnx+v8uBHS9IbBcqX6A1rEupX7r0Vawrqnzt3brzKI62hlbajJ/Q7OquCvnLfuTrH3/Oi3Yq+px8t9Lui7/QXL3WsoL9K1hTqOEUZyvIdSnlkTXl1TUA5dYyDOXPmSLoK1E3b1fGRcuiL2m+0W9UZZE2f8VLkTpmSNQXtVnUOudFvat21+p577/x9ybNKmRJ9LdU55KbqW7N1/9UcNMlYoVBStt20u+3tqj+pUkndE7XfJ7K+GmPMZMdjtEap3Not94nc7yVt79T7NsaYyYCTBBtjjDHGGGOMMca0mXy/ImOMMcYYY4wxxhjTQqrqH1eXnIJQDEadAAAAAElFTkSuQmCC;" vertex="1" parent="1">
          <mxGeometry x="-670" y="40" width="701.92" height="313" as="geometry" />
        </mxCell>
        <mxCell id="IjUfGqjnft0cQAmJXYSc-2" value="User&lt;div&gt;&lt;br&gt;&lt;/div&gt;" style="shape=umlActor;verticalLabelPosition=bottom;verticalAlign=top;html=1;outlineConnect=0;" vertex="1" parent="1">
          <mxGeometry x="-520" y="370" width="40" height="80" as="geometry" />
        </mxCell>
        <mxCell id="IjUfGqjnft0cQAmJXYSc-3" value="&lt;font style=&quot;font-size: 24px;&quot;&gt;&lt;b&gt;ECG&lt;/b&gt;&lt;/font&gt;" style="rounded=1;whiteSpace=wrap;html=1;" vertex="1" parent="1">
          <mxGeometry x="-665" y="520" width="80" height="40" as="geometry" />
        </mxCell>
        <mxCell id="IjUfGqjnft0cQAmJXYSc-4" value="&lt;font style=&quot;font-size: 18px;&quot;&gt;&lt;b&gt;Temp&lt;/b&gt;&lt;/font&gt;" style="rounded=1;whiteSpace=wrap;html=1;" vertex="1" parent="1">
          <mxGeometry x="-579" y="520" width="80" height="40" as="geometry" />
        </mxCell>
        <mxCell id="IjUfGqjnft0cQAmJXYSc-6" value="&lt;font style=&quot;font-size: 14px;&quot;&gt;&lt;b&gt;Blood Pressure&lt;/b&gt;&lt;/font&gt;" style="rounded=1;whiteSpace=wrap;html=1;" vertex="1" parent="1">
          <mxGeometry x="-493" y="520" width="80" height="40" as="geometry" />
        </mxCell>
        <mxCell id="IjUfGqjnft0cQAmJXYSc-7" value="&lt;font style=&quot;font-size: 14px;&quot;&gt;&lt;b&gt;SpO2&lt;/b&gt;&lt;/font&gt;" style="rounded=1;whiteSpace=wrap;html=1;" vertex="1" parent="1">
          <mxGeometry x="-408" y="520" width="80" height="40" as="geometry" />
        </mxCell>
        <mxCell id="IjUfGqjnft0cQAmJXYSc-11" value="" style="endArrow=classic;html=1;rounded=0;entryX=0.5;entryY=0;entryDx=0;entryDy=0;" edge="1" parent="1" target="IjUfGqjnft0cQAmJXYSc-3">
          <mxGeometry width="50" height="50" relative="1" as="geometry">
            <mxPoint x="-500" y="470" as="sourcePoint" />
            <mxPoint x="-310" y="480" as="targetPoint" />
          </mxGeometry>
        </mxCell>
        <mxCell id="IjUfGqjnft0cQAmJXYSc-12" value="" style="endArrow=classic;html=1;rounded=0;entryX=0.5;entryY=0;entryDx=0;entryDy=0;" edge="1" parent="1" target="IjUfGqjnft0cQAmJXYSc-4">
          <mxGeometry width="50" height="50" relative="1" as="geometry">
            <mxPoint x="-500" y="470" as="sourcePoint" />
            <mxPoint x="-615" y="530" as="targetPoint" />
          </mxGeometry>
        </mxCell>
        <mxCell id="IjUfGqjnft0cQAmJXYSc-13" value="" style="endArrow=classic;html=1;rounded=0;entryX=0.5;entryY=0;entryDx=0;entryDy=0;" edge="1" parent="1" target="IjUfGqjnft0cQAmJXYSc-6">
          <mxGeometry width="50" height="50" relative="1" as="geometry">
            <mxPoint x="-500" y="470" as="sourcePoint" />
            <mxPoint x="-529" y="530" as="targetPoint" />
          </mxGeometry>
        </mxCell>
        <mxCell id="IjUfGqjnft0cQAmJXYSc-14" value="" style="endArrow=classic;html=1;rounded=0;entryX=0.454;entryY=0.027;entryDx=0;entryDy=0;entryPerimeter=0;" edge="1" parent="1" target="IjUfGqjnft0cQAmJXYSc-7">
          <mxGeometry width="50" height="50" relative="1" as="geometry">
            <mxPoint x="-500" y="470" as="sourcePoint" />
            <mxPoint x="-443" y="530" as="targetPoint" />
          </mxGeometry>
        </mxCell>
        <mxCell id="IjUfGqjnft0cQAmJXYSc-18" value="" style="endArrow=classic;html=1;rounded=0;exitX=1;exitY=0.5;exitDx=0;exitDy=0;entryX=0.081;entryY=0.381;entryDx=0;entryDy=0;entryPerimeter=0;" edge="1" parent="1" source="IjUfGqjnft0cQAmJXYSc-16" target="IjUfGqjnft0cQAmJXYSc-17">
          <mxGeometry width="50" height="50" relative="1" as="geometry">
            <mxPoint x="30" y="390" as="sourcePoint" />
            <mxPoint x="80" y="340" as="targetPoint" />
          </mxGeometry>
        </mxCell>
        <mxCell id="IjUfGqjnft0cQAmJXYSc-15" value="" style="shape=flexArrow;endArrow=classic;html=1;rounded=0;exitX=0.5;exitY=1;exitDx=0;exitDy=0;" edge="1" parent="1" target="IjUfGqjnft0cQAmJXYSc-16">
          <mxGeometry width="50" height="50" relative="1" as="geometry">
            <mxPoint x="-496" y="570" as="sourcePoint" />
            <mxPoint x="-496" y="640" as="targetPoint" />
          </mxGeometry>
        </mxCell>
        <mxCell id="IjUfGqjnft0cQAmJXYSc-16" value="&lt;font style=&quot;font-size: 18px;&quot;&gt;&lt;b&gt;Transmission Box&lt;/b&gt;&lt;/font&gt;" style="rounded=1;whiteSpace=wrap;html=1;" vertex="1" parent="1">
          <mxGeometry x="-556" y="620" width="120" height="60" as="geometry" />
        </mxCell>
        <mxCell id="IjUfGqjnft0cQAmJXYSc-17" value="" style="ellipse;shape=cloud;whiteSpace=wrap;html=1;" vertex="1" parent="1">
          <mxGeometry x="-270" y="620" width="120" height="80" as="geometry" />
        </mxCell>
        <mxCell id="IjUfGqjnft0cQAmJXYSc-20" value="" style="rounded=0;whiteSpace=wrap;html=1;" vertex="1" parent="1">
          <mxGeometry x="-378" y="637.5" width="50" height="25" as="geometry" />
        </mxCell>
        <mxCell id="IjUfGqjnft0cQAmJXYSc-19" value="&lt;font style=&quot;font-size: 14px;&quot;&gt;&lt;b&gt;WIFI&lt;/b&gt;&lt;/font&gt;" style="text;html=1;align=center;verticalAlign=middle;whiteSpace=wrap;rounded=0;" vertex="1" parent="1">
          <mxGeometry x="-383" y="635" width="60" height="30" as="geometry" />
        </mxCell>
        <mxCell id="IjUfGqjnft0cQAmJXYSc-22" value="" style="endArrow=classic;html=1;rounded=0;entryX=0.107;entryY=0.751;entryDx=0;entryDy=0;entryPerimeter=0;" edge="1" parent="1">
          <mxGeometry width="50" height="50" relative="1" as="geometry">
            <mxPoint x="-421" y="679" as="sourcePoint" />
            <mxPoint x="-258.1600000000001" y="679.08" as="targetPoint" />
          </mxGeometry>
        </mxCell>
        <mxCell id="IjUfGqjnft0cQAmJXYSc-24" value="" style="endArrow=none;html=1;rounded=0;" edge="1" parent="1">
          <mxGeometry width="50" height="50" relative="1" as="geometry">
            <mxPoint x="-420" y="650" as="sourcePoint" />
            <mxPoint x="-420" y="620" as="targetPoint" />
          </mxGeometry>
        </mxCell>
        <mxCell id="IjUfGqjnft0cQAmJXYSc-25" value="" style="endArrow=none;html=1;rounded=0;" edge="1" parent="1">
          <mxGeometry width="50" height="50" relative="1" as="geometry">
            <mxPoint x="-420" y="680" as="sourcePoint" />
            <mxPoint x="-420" y="650" as="targetPoint" />
          </mxGeometry>
        </mxCell>
        <mxCell id="IjUfGqjnft0cQAmJXYSc-26" value="" style="endArrow=classic;html=1;rounded=0;entryX=0.107;entryY=0.751;entryDx=0;entryDy=0;entryPerimeter=0;" edge="1" parent="1">
          <mxGeometry width="50" height="50" relative="1" as="geometry">
            <mxPoint x="-420" y="621" as="sourcePoint" />
            <mxPoint x="-258" y="621" as="targetPoint" />
          </mxGeometry>
        </mxCell>
      </root>
    </mxGraphModel>
  </diagram>
</mxfile>
